<svg width="800" height="800" viewBox="0 0 800 800" fill="none" xmlns="http://www.w3.org/2000/svg">
<path d="M400.002 0L46.7031 203.964C46.7031 278.145 53.7437 342.927 65.5422 400C138.453 752.689 400.002 800 400.002 800C400.002 800 661.547 752.689 734.459 400C746.258 342.927 753.298 278.147 753.298 203.964L400.002 0ZM400.184 729.255C400.13 729.236 400.056 729.211 400.002 729.194V654.706V400H219.953H142.378C131.956 353.534 125.02 300.772 123.012 240.734L399.998 80.825H400.002V161.653V400H580.111H657.65C602.556 645.944 448.948 713.709 400.184 729.255Z" fill="#282828"/>
</svg>
