<svg width="800" height="800" viewBox="0 0 800 800" fill="none" xmlns="http://www.w3.org/2000/svg">
<g clip-path="url(#clip0_715_1288)">
<path d="M633.333 0H166.667C130 0 100 30 100 66.6667V733.333C100 770 130 800 166.667 800H633.333C670 800 700 770 700 733.333V66.6667C700 30 670 0 633.333 0ZM633.333 716.667C633.333 726 626 733.333 616.667 733.333H183.333C174 733.333 166.667 726 166.667 716.667V83.3333C166.667 74 174 66.6667 183.333 66.6667H616.667C626 66.6667 633.333 74 633.333 83.3333V716.667Z" fill="#282828"/>
<path d="M400 666.667C381.566 666.667 366.666 651.833 366.666 633.533V433.2C366.666 414.867 381.566 400 400 400C418.433 400 433.333 414.833 433.333 433.133V633.467C433.333 651.8 418.433 666.667 400 666.667ZM266.666 666.667C248.233 666.667 233.333 652 233.333 633.9V532.8C233.333 514.667 248.233 500 266.666 500C285.1 500 300 514.667 300 532.767V633.867C300 652 285.1 666.667 266.666 666.667ZM533.333 666.667C514.9 666.667 500 651.767 500 633.333V200C500 181.6 514.9 166.667 533.333 166.667C551.766 166.667 566.666 181.6 566.666 200V633.333C566.666 651.767 551.766 666.667 533.333 666.667ZM233.333 250C233.333 296 270.666 333.333 316.666 333.333C362.666 333.333 400 296 400 250H316.666V166.667C270.666 166.667 233.333 204 233.333 250Z" fill="#282828"/>
<path d="M433.333 216.667H350V133.333C396 133.333 433.333 170.667 433.333 216.667Z" fill="#282828"/>
</g>
<defs>
<clipPath id="clip0_715_1288">
<rect width="800" height="800" fill="white"/>
</clipPath>
</defs>
</svg>
