<svg width="98" height="84" viewBox="0 0 98 84" fill="none" xmlns="http://www.w3.org/2000/svg">
<path d="M90.2369 10.1836V4.5708L82.4737 7.21182V0.192383L53.5888 16.9868H44.4112L15.5263 0.192383V7.21182L7.76325 4.5708V10.1836L0 8.73255V75.6043L27.0467 80.6605L27.5816 77.7994L2.91091 73.1871V12.238L42.5636 19.6506V80.5997L31.3969 78.5124L30.8622 81.3735L43.8841 83.8078H54.1157L98 75.6042V8.73255L90.2369 10.1836ZM10.674 10.7278V8.63608L15.5263 10.2868L24.3241 13.2796L10.674 10.7278ZM26.572 10.9695L18.4372 8.20197V5.25183L30.6669 12.3624L26.572 10.9695ZM87.326 8.63608V10.7278L73.6759 13.2794L82.4737 10.2866L87.326 8.63608ZM79.5628 5.25183V8.20197L71.428 10.9695L67.3333 12.3624L79.5628 5.25183ZM95.0891 73.1871L55.4364 80.5995V72.1317H52.5255V80.8969H45.4745V19.8975H52.5255V68.2503H55.4364V19.6507L95.0891 12.2382V73.1871V73.1871Z" fill="white"/>
<path d="M39.6523 22.0679L5.82129 15.7434V70.7698L39.6523 77.0943V22.0679ZM36.7414 73.5887L8.73239 68.3528V19.249L36.7416 24.4847V73.5887H36.7414Z" fill="white"/>
<path d="M92.1777 15.7437L58.3467 22.0681V77.0945L92.1777 70.7699V15.7437ZM89.2668 68.3528L61.2576 73.5885V24.485L89.2668 19.2491V68.3528Z" fill="white"/>
<path d="M21.281 44.1954V66.1072H24.1919V44.1954C25.5212 43.9542 26.6706 43.3729 27.5653 42.4785C28.7723 41.2715 29.4104 39.602 29.4104 37.6499L29.4106 26.73H26.4997L26.4995 37.6499C26.4995 38.8129 26.1561 39.7711 25.5071 40.4199C25.1549 40.7721 24.7093 41.0307 24.1921 41.1968V26.7306H21.2812V41.1967C20.7642 41.0305 20.3188 40.7721 19.9668 40.4201C19.3176 39.7709 18.9742 38.8131 18.9744 37.6501V26.7304H16.0635V37.6501C16.0631 39.6019 16.7011 41.2717 17.9083 42.4787C18.8029 43.3729 19.9519 43.9542 21.281 44.1954Z" fill="white"/>
<path d="M73.8079 44.1183V66.1074H76.7188V44.1183C79.6928 43.4522 81.9229 40.7926 81.9227 37.621L81.9229 31.9337C81.9221 28.2624 78.9347 25.2749 75.2631 25.2749C71.591 25.2749 68.6035 28.2624 68.6035 31.9343V37.621C68.6035 40.7932 70.8338 43.4526 73.8079 44.1183ZM71.5144 31.9343C71.5144 29.8673 73.1961 28.1858 75.2631 28.1858C77.3299 28.1858 79.0116 29.8675 79.012 31.9341L79.0118 37.621C79.0118 39.688 77.3303 41.3695 75.2633 41.3697C73.1961 41.3695 71.5144 39.6878 71.5144 37.621V31.9343Z" fill="white"/>
</svg>
