<svg width="800" height="800" viewBox="0 0 800 800" fill="none" xmlns="http://www.w3.org/2000/svg">
<g clip-path="url(#clip0_716_1295)">
<path d="M174.162 453.215L409.595 709.865C428.622 732.293 425.864 765.899 403.436 784.926C381.008 803.952 347.402 801.195 328.375 778.767L15.2941 437.471C10.7921 432.948 7.14402 427.649 4.52538 421.829C1.26896 414.595 -0.326566 406.723 -0.144151 398.791L-0.143369 398.742C0.0379081 390.828 1.97662 383.054 5.53241 375.981C5.87818 375.297 6.23868 374.619 6.61366 373.95C8.78356 370.068 11.4353 366.475 14.5059 363.257L335.911 16.4946C355.905 -5.0765 389.6 -6.35462 411.17 13.6383C432.74 33.6313 434.019 67.3266 414.026 88.8969L175.069 346.706H745.741C775.153 346.706 798.996 370.549 798.996 399.961C798.996 429.373 775.153 453.216 745.741 453.216H174.162V453.215Z" fill="#282828"/>
</g>
<defs>
<clipPath id="clip0_716_1295">
<rect width="800" height="800" fill="white"/>
</clipPath>
</defs>
</svg>
