<svg width="513" height="338" viewBox="0 0 513 338" fill="none" xmlns="http://www.w3.org/2000/svg">
<path d="M93.9169 36.7674C92.5983 41.5807 89.8802 42.0458 84.2903 38.4743C80.0191 35.8331 80.3305 35.4488 79.4771 45.4596C79.2425 48.6429 78.8542 52.5258 78.6236 53.9981C78.1585 56.7162 78.2353 56.7162 82.3489 58.2694C86.3855 59.8226 86.4624 59.9763 86.8507 63.3173L87.239 66.812L102.767 69.2955C111.305 70.691 118.991 71.779 119.844 71.779C121.239 71.8559 121.785 70.2258 124.969 56.7203L128.463 41.5807L125.745 40.8809C124.192 40.4926 117.36 38.9394 110.529 37.3862C103.697 35.833 97.3307 34.3567 96.4004 34.1262C94.9241 33.7419 94.6167 34.1302 93.9169 36.7674Z" fill="black"/>
<path d="M129.548 47.9472C126.906 64.5591 120.463 91.732 115.265 108.574C114.335 111.446 114.335 112.381 115.031 112.611C115.573 112.765 123.727 114.783 133.273 117.19C142.746 119.596 150.973 121.769 151.592 122.003C152.522 122.391 153.61 117.344 155.628 101.896L156.17 98.2481H150.665C144.222 98.2481 144.222 98.2481 142.746 89.8633C142.204 86.8337 141.658 84.2734 141.504 84.2734C141.427 84.2734 140.416 84.5848 139.332 84.9731C135.918 86.2917 135.449 84.508 137.625 77.2112L139.49 70.691L135.607 66.5006C132.5 63.1637 131.881 61.9219 132.27 60.4456C132.504 59.3575 132.27 57.416 131.804 56.0206C131.028 53.9254 131.105 52.4491 132.116 48.3355C133.746 42.0459 133.746 42.3573 131.962 42.3573C130.712 42.3573 130.324 43.2876 129.548 47.9472Z" fill="black"/>
<path d="M136.38 48.3356C135.527 51.7494 135.373 54.0023 135.838 54.9326C136.226 55.6324 136.538 57.3393 136.538 58.6579C136.538 60.4416 137.545 62.3063 140.186 65.4127L143.835 69.6839L142.67 74.1858C141.505 78.6876 141.505 78.7645 143.058 78.9991C144.458 79.2337 144.923 80.3177 146.241 86.761L147.718 94.3692H152.454C157.033 94.3692 157.191 94.2924 158.044 91.9626L158.974 89.4791L163.864 90.0211C166.583 90.2557 176.905 91.6511 186.766 93.0466L204.854 95.6069L205.243 93.2771C205.396 91.9585 206.331 82.7203 207.261 72.7054C209.045 52.8334 209.126 53.2217 204.466 53.2217C198.257 53.2217 142.439 44.9137 138.637 43.4414C137.933 43.2108 137.234 44.6872 136.38 48.3356Z" fill="black"/>
<path d="M437.198 49.5005C435.568 51.1305 435.414 51.1305 434.015 49.8888C432.619 48.5702 432.539 48.8007 431.608 56.0207C431.143 60.1342 429.825 65.7241 428.813 68.3653C426.949 73.0249 426.872 73.2555 428.114 76.2041C428.813 77.8342 430.755 82.7243 432.385 86.9956L435.257 94.6807L436.575 91.4974C437.275 89.7137 439.059 87.2261 440.535 85.9075C442.553 84.0429 443.176 82.882 443.176 80.7828C443.176 77.911 444.806 77.0576 446.125 79.2296C446.667 80.2368 447.52 79.6179 450.861 76.2041C454.821 71.9328 454.898 71.856 453.733 69.6071C452.415 67.0467 448.92 64.094 447.367 64.094C446.744 64.094 446.279 63.3174 446.279 62.1525C446.279 57.8813 441.465 47.7895 439.447 47.7895C439.14 47.7936 438.133 48.5702 437.198 49.5005Z" fill="black"/>
<path d="M266.18 54.7787C266.18 56.1742 265.638 56.3319 260.901 56.3319H255.623L257.407 72.4018C258.495 82.3398 259.191 93.4387 259.191 101.124V113.776H275.495C285.356 113.776 291.796 113.464 291.796 112.999C291.796 112.611 289.389 110.358 286.44 107.951C281.473 103.915 281.085 103.45 280.231 99.2551C278.99 92.9655 279.143 91.1817 281.239 89.0097C282.25 87.8448 283.568 85.2844 284.187 83.1084C284.81 80.9363 285.74 79.1485 286.44 78.9948C287.059 78.918 290.631 75.8116 294.36 72.24L301.115 65.643L298.243 64.4781C292.111 61.9178 282.484 59.9763 272.393 59.2765C270.14 59.0419 269.598 58.7345 269.444 57.1045C268.898 53.6907 266.18 51.6723 266.18 54.7787Z" fill="black"/>
<path d="M210.986 54.8556C210.986 55.4785 210.52 62.2292 209.978 69.9143C209.436 77.5994 209.202 84.1196 209.436 84.3542C209.671 84.6656 218.133 85.4422 228.143 86.1379C238.235 86.8377 248.25 87.6143 250.499 87.9257L254.536 88.3909V86.1379C254.536 83.2661 251.587 57.0276 251.276 56.7162C251.122 56.5625 244.056 56.0973 235.517 55.6282C226.979 55.163 217.971 54.5401 215.564 54.3096C211.993 53.9253 211.062 54.0022 210.986 54.8556Z" fill="black"/>
<path d="M75.9843 65.4124C74.7425 71.0791 69.8524 84.5887 65.8925 93.2809C64.1856 96.9293 62.7861 100.113 62.7861 100.266C62.7861 100.42 63.3281 100.578 64.0279 100.578C64.7276 100.578 75.596 103.065 88.1752 106.091C100.75 109.116 111.23 111.446 111.388 111.215C111.623 110.981 112.784 106.325 114.029 100.812C115.194 95.3761 117.059 87.4605 118.143 83.3469L120.084 75.8155L117.213 75.4272C115.66 75.1926 108.516 74.1086 101.22 73.0206C93.9997 71.9325 86.8566 70.9254 85.538 70.6908C82.8968 70.2257 82.5894 69.6796 82.8968 65.2546C83.0505 63.2363 82.6622 62.7711 80.4133 61.9177C79.0138 61.3757 77.6183 60.9874 77.3837 60.9874C77.226 60.9874 76.5303 63.0057 75.9843 65.4124Z" fill="black"/>
<path d="M309.885 71.9366C308.101 72.7901 305.072 74.8853 303.288 76.5153C298.786 80.552 299.563 81.64 308.72 84.5118C314.463 86.2187 316.017 87.0722 316.951 88.7022C317.881 90.6437 318.039 90.6437 318.504 89.2442C318.739 88.3139 321.376 86.5261 324.79 84.8192L330.691 81.9474L333.563 83.4238C335.428 84.3541 336.9 84.6655 337.6 84.2772C338.142 83.9658 339.772 83.8121 341.248 84.0426C342.724 84.2772 343.808 84.1195 343.808 83.7312C343.808 82.0243 340.548 78.9179 337.054 77.2879C332.629 75.1927 327.892 75.6578 324.402 78.5296L322.149 80.4711L318.735 78.5296C316.87 77.4416 314.621 76.5113 313.687 76.5113C311.669 76.5113 311.592 75.6578 313.145 72.6283C314.544 69.8374 314.156 69.7605 309.885 71.9366Z" fill="black"/>
<path d="M422.604 77.6804C421.362 78.7684 419.033 80.0102 417.556 80.4753C416.08 80.9405 414.608 81.6402 414.219 81.8708C413.754 82.3359 417.245 101.977 417.868 102.677C417.944 102.831 421.281 101.824 425.241 100.505C430.673 98.6404 432.303 97.787 431.996 96.9335C430.831 93.9849 426.095 77.7572 426.095 76.8269C426.099 75.2737 425.245 75.5043 422.604 77.6804Z" fill="black"/>
<path d="M291.719 78.6876C289.236 79.6179 288.924 80.0871 288.071 84.2775C287.529 86.761 286.594 89.2445 285.895 89.7905C283.642 91.6552 283.257 93.3621 284.111 97.3988C284.811 100.893 285.429 101.67 290.32 105.626C295.752 110.051 296.14 110.674 296.686 117.117C297.228 122.549 298.628 123.326 308.019 123.172C312.133 123.095 315.705 122.784 315.939 122.472C316.251 122.161 316.639 117.813 316.95 112.769C317.416 104.154 317.339 103.684 315.939 103.684C313.767 103.684 313.379 102.596 314.309 99.2594C315.009 96.9296 314.932 95.611 314.075 93.2043C313.063 90.2557 312.833 90.0979 306.078 88.0028C302.272 86.8379 298.704 85.2847 298.158 84.5081C297.616 83.7315 296.682 82.4897 296.14 81.79C295.521 81.0902 294.898 79.8485 294.745 79.0719C294.514 77.6805 294.283 77.6805 291.719 78.6876Z" fill="black"/>
<path d="M403.121 83.5008C400.561 84.508 395.513 94.1345 395.436 98.0175C395.359 102.985 392.876 105.237 387.516 105.237C385.187 105.237 382.161 105.779 380.608 106.402L377.89 107.49L379.055 110.285C380.143 112.846 380.143 113.08 378.201 115.333C374.864 119.37 376.029 119.993 383.945 118.44C387.67 117.663 394.425 116.421 398.85 115.645L406.923 114.249L409.718 117.432C411.66 119.685 413.367 120.846 415.308 121.158L418.103 121.7L417.015 115.18C416.473 111.685 415.62 107.96 415.15 107.029C414.685 106.176 414.451 105.088 414.685 104.699C414.92 104.311 414.374 99.2633 413.444 93.5197L411.66 83.1165L408.242 82.9628C406.304 82.882 403.975 83.1125 403.121 83.5008Z" fill="black"/>
<path d="M326.032 87.6951C320.907 90.8784 319.047 94.4499 320.753 97.4754C321.684 99.1055 321.765 101.358 321.142 110.904C320.365 122.703 320.6 126.509 322.307 128.839C323.937 131.011 325.724 129.538 326.497 125.425C327.12 122.399 326.962 120.223 325.72 114.633L324.09 107.648L326.885 100.428C328.904 95.0728 329.992 93.2082 330.999 93.2082C331.852 93.2082 332.783 92.1201 333.559 90.1827C334.647 87.3877 334.647 87.0763 333.325 86.146C331.314 84.6656 330.768 84.7424 326.032 87.6951Z" fill="black"/>
<path d="M335.658 91.9625C333.951 98.0944 333.098 99.8013 331.933 99.8013C331.391 99.8013 330.303 101.666 329.603 103.992C328.284 107.951 328.361 108.417 329.838 114.86C330.926 119.285 331.233 122.545 330.926 124.487C330.303 127.747 330.384 128.212 331.702 127.904C332.167 127.751 336.827 127.593 341.948 127.67H351.421L353.051 123.245C355.534 116.336 355.846 113.384 354.369 109.582C353.669 107.717 352.428 105.622 351.574 104.845C350.256 103.603 350.098 103.68 348.856 105.464C347.538 107.559 345.673 108.57 344.585 107.947C344.197 107.713 344.585 106.083 345.361 104.222C348.622 97.156 346.757 91.2587 340.548 88.9289L336.9 87.5334L335.658 91.9625Z" fill="black"/>
<path d="M208.499 97.1642C208.187 101.824 207.722 108.109 207.487 111.139L206.945 116.575L222.781 117.894C241.488 119.524 251.349 120.689 253.056 121.619C254.144 122.161 254.374 120.608 254.84 107.102C255.151 98.7943 255.228 91.7321 254.993 91.3438C254.759 91.0323 246.608 90.4903 236.905 90.2557C227.202 89.9443 216.875 89.4791 214.08 89.2445L208.956 88.7025L208.499 97.1642Z" fill="black"/>
<path d="M160.681 97.6292C159.204 104.772 155.168 131.941 155.479 132.253C156.256 133.029 163.476 134.117 178.692 135.901C187.777 136.989 196.469 138.073 198.099 138.308C200.582 138.773 200.971 138.619 200.971 137.377C200.971 136.524 201.67 127.751 202.601 117.813C203.531 107.875 204.077 99.5707 203.842 99.3361C203.531 99.0247 164.794 93.7462 161.999 93.5925C161.688 93.5925 161.146 95.4572 160.681 97.6292Z" fill="black"/>
<path d="M426.487 104.307C422.215 105.784 418.648 107.102 418.567 107.102C418.49 107.179 419.109 110.285 419.966 114.168C420.743 117.97 421.52 122.319 421.597 123.641C421.673 125.971 421.908 126.125 423.692 125.66C424.78 125.425 426.798 124.729 428.04 124.03C430.523 122.788 443.179 110.366 443.179 109.125C443.179 108.659 442.48 108.348 441.626 108.348C439.996 108.348 435.418 106.33 435.418 105.553C435.418 105.399 435.96 104.311 436.659 103.3C437.901 101.435 437.901 101.359 436.117 101.435C435.102 101.512 430.758 102.754 426.487 104.307Z" fill="black"/>
<path d="M62.0893 108.497C61.6241 110.75 60.3824 113.934 59.3712 115.56C57.6643 118.355 57.6643 118.589 58.7483 122.856C59.6017 126.351 59.6786 128.135 58.9829 131.706C58.2063 135.589 58.2831 136.597 59.2943 138.615C59.9941 140.01 60.4592 142.263 60.3824 143.663C60.2287 145.37 60.617 146.846 61.5473 147.853C62.7122 149.172 62.9468 150.183 62.5585 153.366C62.1702 156.703 62.3239 157.557 63.9539 159.498L65.8954 161.751L64.3422 163.693C62.789 165.634 62.789 165.711 64.2654 168.271C66.4374 171.843 68.2252 179.293 68.2252 184.495V188.843L71.8736 190.242C75.9103 191.796 81.5002 196.609 84.1374 200.723C85.1445 202.276 86.7786 205.924 87.8626 208.873L89.8041 214.305L97.8006 215.551C102.226 216.327 106.028 216.792 106.109 216.639C106.262 216.485 107.739 211.049 109.369 204.529L112.398 192.649L101.291 173.631C95.1594 163.151 88.5583 151.659 86.54 148.169L82.8916 141.725L87.1629 126.432C89.4927 118.047 91.3533 111.062 91.2764 110.985C91.0418 110.831 63.873 104.465 63.4079 104.465C63.1773 104.461 62.6313 106.325 62.0893 108.497Z" fill="black"/>
<path d="M93.4525 112.38C92.7528 114.399 86.8555 139.63 86.8555 140.637C86.8555 141.26 92.9105 151.894 100.284 164.315C112.783 185.352 113.636 186.594 114.101 184.187C114.724 180.381 115.42 179.609 117.903 180.151C119.998 180.616 120.075 180.462 120.621 177.279C121.244 173.319 122.793 164.781 127.688 139.549C129.629 129.146 131.101 120.454 130.794 120.219C130.559 119.985 122.721 118.047 113.482 115.948C104.167 113.93 95.936 111.988 95.1634 111.758C94.4597 111.527 93.6831 111.758 93.4525 112.38Z" fill="black"/>
<path d="M270.296 117.428L259.35 117.74L259.039 121.154C258.885 123.56 259.739 127.674 261.834 134.663L264.859 144.755L268.819 145.143C270.995 145.378 277.204 145.766 282.559 145.997C292.186 146.462 292.417 146.462 293.658 144.678C294.358 143.748 294.9 141.572 294.9 139.865C294.9 137.381 295.442 136.216 297.618 133.964L300.259 131.245L298.629 128.685C297.699 127.209 296.223 125.736 295.211 125.425C293.735 124.883 293.27 123.949 292.882 120.765L292.34 116.882L286.827 117.036C283.805 117.117 276.351 117.348 270.296 117.428Z" fill="black"/>
<path d="M395.825 120.066C390.47 121.231 383.561 122.707 380.532 123.249C375.253 124.102 374.788 124.102 373.7 122.626C372.304 120.761 372.304 120.919 373.7 131.63C375.641 145.523 374.476 144.051 383.092 144.051C388.059 144.051 391.012 143.663 392.176 142.963C393.107 142.34 397.224 141.098 401.338 140.168C406.928 139.003 409.258 138.073 410.653 136.597L412.36 134.732L410.73 132.948C408.788 130.853 408.635 129.53 409.953 125.263C410.807 122.468 410.73 122.157 408.635 119.985C407.393 118.666 406.228 117.655 405.993 117.732C405.759 117.736 401.18 118.824 395.825 120.066Z" fill="black"/>
<path d="M135.372 121.849C134.442 124.568 125.592 170.678 125.899 170.989C126.441 171.531 159.358 175.88 159.746 175.414C159.9 175.261 161.222 166.876 162.541 156.784C164.171 144.52 164.713 138.385 164.171 138.231C163.706 138.077 160.834 137.531 157.728 137.066C154.621 136.601 151.826 135.747 151.361 135.282C150.896 134.659 150.896 133.029 151.284 130.857C152.68 124.026 152.991 124.337 143.83 122.63C138.167 121.465 135.526 121.231 135.372 121.849Z" fill="black"/>
<path d="M206.095 124.337C205.86 126.432 205.472 130.469 205.164 133.264L204.699 138.465L210.366 139.007C219.139 139.784 218.828 139.549 218.828 145.216V150.11L230.703 150.652C237.146 150.887 247.008 151.429 252.593 151.817C258.106 152.205 262.762 152.44 262.839 152.282C262.916 152.205 261.132 146.227 258.879 139.007C253.989 123.479 253.677 123.091 244.827 123.091C239.626 123.091 223.633 122.084 212.146 121.073L206.556 120.607L206.095 124.337Z" fill="black"/>
<path d="M413.29 127.051C412.825 128.992 413.137 129.846 414.767 131.553C415.855 132.717 416.785 133.959 416.785 134.424C416.785 134.813 415.386 136.677 413.756 138.615C410.884 142.029 410.342 142.263 402.81 144.051L394.891 145.916L391.008 153.601C388.678 158.337 386.66 161.439 385.729 161.674C384.718 161.909 384.022 163.304 383.399 166.022C382.004 171.847 381.07 173.008 375.249 175.495C371.055 177.279 369.736 177.513 368.575 176.814C367.41 176.037 366.868 176.272 365.546 178.055L363.839 180.151L365.704 180.385C367.18 180.539 411.349 174.1 413.913 173.323C414.225 173.246 413.294 171.693 411.741 169.828C408.635 166.257 407.47 163.074 407.47 158.418C407.47 151.74 409.335 152.286 412.437 160.048C414.067 163.931 414.455 164.396 414.997 163.074C416.316 159.813 415.697 151.586 413.832 148.092C412.902 146.304 412.125 144.597 412.125 144.443C412.125 143.824 414.767 144.985 416.162 146.227C417.404 147.238 417.639 147.157 418.411 145.139C418.953 143.897 419.499 139.161 419.73 134.659C420.118 125.498 420.506 126.432 415.07 124.956C414.144 124.644 413.679 125.267 413.29 127.051Z" fill="black"/>
<path d="M310.042 126.355C302.822 127.366 302.203 127.597 303.287 128.685C304.917 130.315 304.298 132.799 301.503 135.517C299.25 137.689 298.785 138.542 299.25 140.33C299.562 141.883 299.097 143.59 297.697 146.074C296.609 148.092 295.679 150.422 295.679 151.275C295.679 152.205 298.008 155.235 301.111 158.495C304.14 161.525 306.547 164.396 306.547 164.785C306.547 165.096 306.236 166.492 305.847 167.891C305.224 170.144 305.382 170.451 308.489 172.704C310.272 174.019 312.214 176.114 312.756 177.437C313.298 178.679 313.998 179.767 314.309 179.767C315.704 179.767 319.664 173.477 320.829 169.363C322.071 165.092 322.071 163.774 320.906 149.18C319.976 137.147 319.276 132.645 318.034 129.462C317.104 127.29 316.174 125.502 315.939 125.579C315.708 125.579 313.067 125.967 310.042 126.355Z" fill="black"/>
<path d="M363.995 127.908C360.501 129.773 359.028 130.161 355.845 129.85C353.75 129.696 349.944 129.927 347.46 130.315L343.035 131.015L343.5 135.828C343.735 138.388 344.2 144.055 344.431 148.326L344.973 156.088L351.958 158.572C355.841 159.967 359.489 160.979 360.185 160.902C360.885 160.825 363.757 157.33 366.628 153.14L371.834 145.527L370.592 136.831C368.808 124.802 369.116 125.19 363.995 127.908Z" fill="black"/>
<path d="M330.538 132.41C328.519 132.722 326.113 133.418 325.182 133.964C323.552 134.817 323.475 135.282 323.941 140.407C325.494 159.349 325.417 164.627 323.706 169.906C322.776 172.7 321.222 175.961 320.369 177.049C318.974 178.832 319.75 178.602 327.201 174.796C335.27 170.759 335.816 170.371 338.611 165.792L341.483 160.979L340.318 147.004C339.695 139.396 339.153 132.799 339.153 132.334C339.153 131.557 335.658 131.557 330.538 132.41Z" fill="black"/>
<path d="M168.831 141.026C168.132 144.286 163.63 176.037 163.864 176.272C164.099 176.426 204.931 182.092 210.521 182.638L214.169 183.104V174.254C214.246 169.363 214.404 160.437 214.634 154.382L215.1 143.432L209.045 142.89C205.631 142.656 202.213 142.114 201.359 141.725C200.506 141.337 195.77 140.872 190.879 140.637C185.989 140.403 179.081 139.938 175.586 139.707C169.296 139.165 169.22 139.242 168.831 141.026Z" fill="black"/>
<path d="M379.52 147.392L372.923 148.092L368.498 156.012L364.073 164.008L365.78 167.503C368.264 172.7 369.975 173.4 374.63 171.147C378.279 169.282 378.355 169.206 379.597 163.693C381.15 157.096 381.615 156.242 383.403 156.707C384.41 156.942 385.345 155.854 387.209 152.048C388.528 149.33 389.616 146.923 389.616 146.769C389.612 146.304 387.982 146.381 379.52 147.392Z" fill="black"/>
<path d="M267.265 152.048C267.811 153.447 269.283 156.161 270.525 158.103C272.774 161.517 272.774 161.597 273.009 175.338L273.243 189.155L289.544 188.689C307.32 188.147 308.639 188.378 307.244 191.873C306.313 194.433 306.313 194.514 307.709 194.514C308.332 194.514 309.65 192.961 310.504 191.177C312.134 187.917 312.134 187.682 310.892 183.334C309.573 178.832 308.874 177.902 303.907 174.096C301.189 172.001 301.112 171.766 301.577 168.271L302.042 164.623L296.917 159.81C292.415 155.619 291.792 154.685 291.792 152.278V149.483H278.983H266.173L267.265 152.048Z" fill="black"/>
<path d="M218.437 155.312C217.972 156.788 216.419 181.55 216.807 181.862C216.961 182.015 224.957 182.485 234.507 182.873C243.976 183.261 255.855 183.803 260.745 184.115L269.672 184.58L269.442 174.254C269.207 165.015 268.976 163.539 267.346 160.744C263.698 154.612 265.87 155.077 241.031 154.766C226.045 154.535 218.595 154.766 218.437 155.312Z" fill="black"/>
<path d="M342.647 166.257C340.94 169.052 338.922 171.847 338.145 172.547C337.369 173.323 331.937 176.041 326.112 178.602C317.881 182.327 315.479 183.726 315.479 184.891C315.479 186.987 319.361 187.298 321.145 185.356C322.31 184.038 324.252 183.726 335.274 182.95C359.728 181.166 357.245 181.708 361.205 176.66L364.699 172.235L362.216 168.741C359.963 165.557 359.11 165.015 353.443 163.151C350.025 162.063 346.923 161.132 346.457 161.132C346.061 161.209 344.354 163.462 342.647 166.257Z" fill="black"/>
<path d="M124.581 176.114C124.428 176.579 123.882 178.597 123.34 180.462C122.486 183.645 122.329 183.799 119.845 183.492C117.438 183.18 117.127 183.415 116.662 185.51C116.427 186.752 116.197 189.235 116.197 190.942C116.274 195.056 110.53 217.804 109.211 218.657C108.046 219.434 107.504 219.045 117.054 225.412C128.076 232.785 139.102 237.522 149.036 239.075C151.831 239.54 151.831 239.54 152.296 236.668C153.926 225.877 159.282 180.462 158.893 180.155C158.659 179.92 151.908 178.913 143.835 177.825C135.761 176.818 128.153 175.73 126.988 175.495C125.67 175.261 124.735 175.495 124.581 176.114Z" fill="black"/>
<path d="M394.037 179.378L373.307 183.569L365.161 191.177C357.711 198.085 357.164 198.785 358.952 199.016C360.117 199.169 362.447 198.393 364.384 197.309C367.179 195.602 368.733 195.29 373.546 195.29C377.894 195.29 379.601 195.602 380.377 196.532C381.231 197.543 382.319 197.697 385.814 197.309L390.239 196.767L395.517 201.503C398.466 204.063 401.338 206.005 401.884 205.774C402.502 205.54 403.437 205.386 404.056 205.386C404.678 205.386 405.144 204.921 405.144 204.375C405.144 202.433 409.726 196.144 412.829 193.895C415.466 192.03 415.701 191.565 414.612 190.865C413.448 190.166 413.682 189.7 416.243 186.829C417.796 185.122 419.114 183.103 419.114 182.48C419.114 180.927 416.166 175.107 415.389 175.184C415.074 175.261 405.528 177.125 394.037 179.378Z" fill="black"/>
<path d="M162.93 181.085C162.93 181.473 160.989 194.283 158.659 209.653C156.329 225.024 154.388 238.068 154.388 238.533C154.388 239.156 155.476 239.54 157.106 239.54C158.736 239.54 159.824 239.152 159.824 238.533C159.901 236.05 160.912 235.815 166.579 236.745C172.092 237.757 172.169 237.757 172.634 235.892C173.176 233.72 173.022 233.797 189.092 235.038C195.612 235.504 201.125 235.815 201.279 235.58C201.821 235.038 205.004 186.675 204.539 186.129C204.074 185.741 167.355 180.616 164.326 180.539C163.553 180.539 162.93 180.774 162.93 181.085Z" fill="black"/>
<path d="M343.655 186.287C327.273 187.763 325.101 188.075 324.09 189.47C323.237 190.712 322.072 191.023 318.812 191.023H314.698L311.669 197.078C310.038 200.415 308.874 203.287 309.108 203.522C309.262 203.756 319.046 202.98 330.691 201.815L351.963 199.796L356.699 194.595C359.34 191.8 362.443 188.305 363.608 186.91L365.703 184.426L363.838 184.503C362.908 184.576 353.746 185.352 343.655 186.287Z" fill="black"/>
<path d="M208.732 186.206C208.732 187.524 210.051 187.682 224.26 188.847L231.634 189.47V199.796V210.042L240.949 214.39L250.264 218.738L258.88 218.196C265.092 217.808 268.041 217.961 269.36 218.584L271.067 219.515L270.601 209.577C270.29 204.064 270.059 196.69 270.059 193.195V186.829L242.345 186.517C227.051 186.283 213.234 185.894 211.681 185.587C209.274 185.122 208.732 185.276 208.732 186.206Z" fill="black"/>
<path d="M208.422 192.342C208.187 192.884 207.257 203.445 206.327 215.785C204.931 233.797 204.308 238.222 203.378 238.61C202.755 238.845 196.623 238.456 189.792 237.757C182.883 236.98 176.67 236.438 175.975 236.438C174.11 236.438 174.191 238.533 175.975 239.468C178.535 240.867 181.718 245.834 185.213 253.831C188.861 262.215 191.191 265.241 195.693 267.571C199.188 269.354 200.971 269.435 200.971 267.805C200.971 267.106 202.136 265.399 203.613 263.922C206.019 261.516 206.719 261.285 210.598 261.285C214.558 261.285 215.023 261.52 217.041 264.003C220.455 268.274 224.65 275.571 226.979 281.238C233.111 296.297 236.141 300.257 243.749 302.663C249.881 304.682 250.734 304.528 250.039 301.421C249.727 300.103 249.497 296.454 249.497 293.425C249.497 286.205 252.215 281.469 258.424 277.82C260.753 276.425 264.479 273.549 266.574 271.454C268.746 269.359 272.164 266.875 274.182 265.864C277.365 264.311 277.83 263.769 278.53 260.585C280.395 251.735 280.318 250.182 278.376 244.904C277.058 241.332 276.281 237.372 275.893 231.706L275.351 223.555L270.926 221.849C266.732 220.218 266.343 220.218 258.504 221.226C249.42 222.467 251.05 222.856 235.526 216.024L227.764 212.606L227.999 202.903L228.31 193.122L219.848 192.58C215.27 192.346 210.845 191.881 210.068 191.727C209.356 191.484 208.58 191.796 208.422 192.342Z" fill="black"/>
<path d="M283.492 192.73L273.942 193.042V206.163V219.28L276.114 220.291C277.668 221.068 278.291 221.998 278.444 223.863L278.679 226.346H286.206C290.32 226.346 295.056 226.581 296.763 226.888L299.712 227.354L299.17 223.394C298.705 219.822 299.016 218.58 302.976 208.8C305.382 202.899 307.324 197.855 307.324 197.543C307.324 197.232 306.547 196.844 305.617 196.69C304.222 196.536 303.833 195.99 303.833 194.283L303.91 192.188L298.397 192.342C295.444 192.419 288.694 192.649 283.492 192.73Z" fill="black"/>
<path d="M370.358 199.092C368.34 199.481 366.244 200.492 365.003 201.653L362.984 203.671L372.146 213.69C377.194 219.126 382.238 224.635 383.402 225.8L385.498 227.972L387.516 224.866C388.604 223.159 391.087 220.052 393.029 217.88C394.89 215.785 396.677 212.99 396.989 211.672C397.3 210.353 397.842 209.111 398.231 208.877C399.549 208.023 398.93 207.17 394.271 203.521L389.611 199.873L384.952 200.573C380.915 201.196 380.138 201.038 379.054 199.796C377.659 198.316 376.029 198.239 370.358 199.092Z" fill="black"/>
<path d="M351.029 203.752C348.857 204.064 346.758 204.529 346.45 204.763C346.062 205.229 347.538 213.844 352.817 241.094C353.67 245.519 353.747 245.519 368.498 244.277C380.532 243.189 381.85 242.958 381.85 241.64C381.85 240.863 382.392 238.068 383.092 235.431L384.257 230.541L371.447 217.808C364.385 210.819 358.56 204.606 358.56 204.064C358.56 202.976 357.63 202.976 351.029 203.752Z" fill="black"/>
<path d="M332.32 205.617L325.023 206.316L325.565 229.76C325.877 242.57 326.188 253.592 326.342 254.061C326.577 254.603 327.895 255.068 329.291 255.068H331.932L330.767 250.72C329.602 246.606 329.602 246.295 330.844 245.365C331.62 244.823 335.969 244.123 340.936 243.811C345.749 243.5 349.862 243.112 350.174 242.958C350.485 242.723 350.02 240.086 349.167 236.98C348.313 233.95 346.372 226.188 344.895 219.745C343.419 213.379 342.1 207.324 341.866 206.316C341.631 205.386 341.012 204.686 340.47 204.686C340.005 204.763 336.28 205.147 332.32 205.617Z" fill="black"/>
<path d="M314.309 207.478C306.624 208.254 306.935 208.02 304.294 214.54L301.887 220.518L302.975 227.738C304.063 234.881 304.063 235.188 302.199 240.548C301.187 243.577 300.334 246.368 300.334 246.833C300.334 247.375 302.587 247.61 306.854 247.456C314.151 247.145 314.462 247.302 315.47 252.969C316.092 256.076 316.4 256.229 320.748 254.988L323.778 254.211L323.312 250.563C322.536 244.584 321.294 221.841 321.294 214.075V206.936L319.199 207.089C317.957 207.089 315.785 207.324 314.309 207.478Z" fill="black"/>
<path d="M294.126 229.914C293.038 230.067 289.159 230.379 285.429 230.613L278.598 231.155V234.569C278.598 236.434 279.451 240.236 280.539 243.108C282.634 248.621 282.869 251.493 281.781 255.841C279.916 263.061 279.839 262.595 283.488 263.061C285.276 263.295 288.455 263.837 290.473 264.379C293.268 265.079 294.51 265.079 295.133 264.456C296.528 263.061 298.239 263.449 304.371 266.321C309.884 268.958 320.518 270.98 320.518 269.427C320.518 269.116 319.122 266.555 317.335 263.837C315.628 261.042 314.386 258.636 314.54 258.405C314.774 258.251 314.305 256.233 313.609 254.057L312.21 250.02L304.836 250.332C300.565 250.485 297.228 250.255 296.916 249.79C296.682 249.401 297.458 245.83 298.704 241.87C300.257 237.134 300.876 233.797 300.565 232.09C300.104 229.291 299.873 229.214 294.126 229.914Z" fill="black"/>
<path d="M367.176 247.379C354.677 249.551 353.589 249.632 352.271 248.386C351.106 247.379 349.787 247.222 343.575 247.687C339.538 247.998 335.889 248.463 335.424 248.775C335.036 249.009 334.801 250.174 335.036 251.416C335.424 253.434 335.659 253.511 339.849 253.511C343.498 253.511 345.051 253.976 348.542 256.072L352.813 258.632L356.231 256.072C359.026 254.053 360.191 253.588 362.051 253.976C365.623 254.676 368.96 257.006 371.989 260.962C374.396 264.068 374.784 265.156 375.249 270.435C376.026 279.984 377.268 282.391 386.041 291.318C391.631 297.061 394.733 299.626 396.832 300.245C398.385 300.71 399.939 300.867 400.327 300.556C400.638 300.245 400.869 296.208 400.869 291.629C400.869 283.479 400.792 283.167 398.228 279.054C388.136 263.061 385.499 258.171 383.557 251.804C382.392 248.079 381.304 245.049 381.074 245.049C380.843 245.13 374.63 246.138 367.176 247.379Z" fill="black"/>
</svg>
