<svg width="513" height="338" viewBox="0 0 513 338" fill="none" xmlns="http://www.w3.org/2000/svg">
<circle cx="50" cy="60" r="20" fill="#D0FF0D" stroke="black" stroke-width="2"/>
<circle cx="104" cy="60" r="20" fill="#76B474" stroke="black" stroke-width="2"/>
<circle cx="158" cy="60" r="20" fill="#ECF5EB" stroke="black" stroke-width="2"/>
<rect x="36.5" y="111.5" width="31" height="191" stroke="white" stroke-opacity="0.29"/>
<mask id="path-5-inside-1_124_6690" fill="white">
<path d="M68 111H100V303H68V111Z"/>
</mask>
<path d="M100 111H101V110H100V111ZM100 303V304H101V303H100ZM68 112H100V110H68V112ZM99 111V303H101V111H99ZM100 302H68V304H100V302Z" fill="white" fill-opacity="0.29" mask="url(#path-5-inside-1_124_6690)"/>
<mask id="path-7-inside-2_124_6690" fill="white">
<path d="M100 111H132V303H100V111Z"/>
</mask>
<path d="M132 111H133V110H132V111ZM132 303V304H133V303H132ZM100 112H132V110H100V112ZM131 111V303H133V111H131ZM132 302H100V304H132V302Z" fill="white" fill-opacity="0.29" mask="url(#path-7-inside-2_124_6690)"/>
<mask id="path-9-inside-3_124_6690" fill="white">
<path d="M132 111H164V303H132V111Z"/>
</mask>
<path d="M164 111H165V110H164V111ZM164 303V304H165V303H164ZM132 112H164V110H132V112ZM163 111V303H165V111H163ZM164 302H132V304H164V302Z" fill="white" fill-opacity="0.29" mask="url(#path-9-inside-3_124_6690)"/>
<mask id="path-11-inside-4_124_6690" fill="white">
<path d="M164 111H196V303H164V111Z"/>
</mask>
<path d="M196 111H197V110H196V111ZM196 303V304H197V303H196ZM164 112H196V110H164V112ZM195 111V303H197V111H195ZM196 302H164V304H196V302Z" fill="white" fill-opacity="0.29" mask="url(#path-11-inside-4_124_6690)"/>
<mask id="path-13-inside-5_124_6690" fill="white">
<path d="M196 111H228V303H196V111Z"/>
</mask>
<path d="M228 111H229V110H228V111ZM228 303V304H229V303H228ZM196 112H228V110H196V112ZM227 111V303H229V111H227ZM228 302H196V304H228V302Z" fill="white" fill-opacity="0.29" mask="url(#path-13-inside-5_124_6690)"/>
<mask id="path-15-inside-6_124_6690" fill="white">
<path d="M36 111H228V143H36V111Z"/>
</mask>
<path d="M228 142H36V144H228V142Z" fill="white" fill-opacity="0.29" mask="url(#path-15-inside-6_124_6690)"/>
<mask id="path-17-inside-7_124_6690" fill="white">
<path d="M36 143H228V175H36V143Z"/>
</mask>
<path d="M228 174H36V176H228V174Z" fill="white" fill-opacity="0.29" mask="url(#path-17-inside-7_124_6690)"/>
<mask id="path-19-inside-8_124_6690" fill="white">
<path d="M36 175H228V207H36V175Z"/>
</mask>
<path d="M228 206H36V208H228V206Z" fill="white" fill-opacity="0.29" mask="url(#path-19-inside-8_124_6690)"/>
<mask id="path-21-inside-9_124_6690" fill="white">
<path d="M36 207H228V239H36V207Z"/>
</mask>
<path d="M228 238H36V240H228V238Z" fill="white" fill-opacity="0.29" mask="url(#path-21-inside-9_124_6690)"/>
<mask id="path-23-inside-10_124_6690" fill="white">
<path d="M36 239H228V271H36V239Z"/>
</mask>
<path d="M228 270H36V272H228V270Z" fill="white" fill-opacity="0.29" mask="url(#path-23-inside-10_124_6690)"/>
<mask id="path-25-inside-11_124_6690" fill="white">
<path d="M36 271H228V303H36V271Z"/>
</mask>
<path d="M228 302H36V304H228V302Z" fill="white" fill-opacity="0.29" mask="url(#path-25-inside-11_124_6690)"/>
<path d="M45.2206 241.768C42.7625 240.741 42.7625 237.259 45.2206 236.232L132.975 199.573C133.721 199.261 134.561 199.264 135.305 199.58L221.52 236.239C223.954 237.275 223.954 240.725 221.52 241.761L135.305 278.42C134.561 278.736 133.721 278.739 132.975 278.427L45.2206 241.768Z" fill="white" fill-opacity="0.8" stroke="black" stroke-width="2"/>
<path d="M47.6492 209.268C45.1915 208.241 45.1915 204.759 47.6492 203.732L134.179 167.573C134.925 167.261 135.766 167.264 136.51 167.58L221.522 203.739C223.956 204.775 223.956 208.225 221.522 209.261L136.51 245.42C135.766 245.736 134.925 245.739 134.179 245.427L47.6492 209.268Z" fill="#6CAE69" fill-opacity="0.8" stroke="black" stroke-width="2"/>
<path d="M47.6523 176.768C45.1941 175.741 45.1941 172.259 47.6523 171.232L135.406 134.573C136.152 134.261 136.993 134.264 137.737 134.58L223.951 171.239C226.386 172.275 226.386 175.725 223.951 176.761L137.737 213.42C136.993 213.736 136.152 213.739 135.406 213.427L47.6523 176.768Z" fill="#D0FF0D" fill-opacity="0.8" stroke="black" stroke-width="2"/>
<rect x="281" y="112" width="132" height="34" rx="3" fill="#D0FF0D"/>
<path d="M314.88 125.14H311.92V132H312.9V129.14H314.88C316.06 129.14 316.93 128.29 316.93 127.17V127.11C316.93 125.98 316.05 125.14 314.88 125.14ZM314.79 126.03C315.41 126.03 315.95 126.51 315.95 127.14C315.95 127.77 315.4 128.25 314.79 128.25H312.9V126.03H314.79ZM320.37 126.79C319.57 126.79 319.09 127.24 318.88 127.65L318.74 126.89H318.07V132H319.01V128.95C319.01 128.09 319.39 127.54 320.08 127.54C320.72 127.54 321.02 127.91 321.02 128.55V128.77H321.85C321.87 128.64 321.88 128.52 321.88 128.39C321.88 127.51 321.36 126.79 320.37 126.79ZM323.933 124.8H322.953V125.67H323.933V124.8ZM322.973 126.89V132H323.913V126.89H322.973ZM327.99 126.79C327.31 126.79 326.77 127.07 326.38 127.64L326.25 126.89H325.57V132H326.51V128.96C326.51 128.16 327.06 127.54 327.71 127.54C328.32 127.54 328.63 127.94 328.63 128.73V132H329.57V128.96C329.57 128.16 330.12 127.54 330.77 127.54C331.38 127.54 331.69 127.94 331.69 128.73V132H332.63V128.56C332.63 127.42 332 126.79 330.96 126.79C330.44 126.79 329.88 126.95 329.39 127.64C329.13 127.07 328.66 126.79 327.99 126.79ZM336.252 126.79H336.162C334.972 126.79 334.062 127.42 334.062 128.13C334.062 128.28 334.072 128.39 334.082 128.46H335.002V128.34C335.002 127.83 335.422 127.54 336.142 127.54C336.852 127.54 337.312 127.75 337.312 128.46V128.93C334.742 128.93 333.892 129.37 333.892 130.58C333.892 131.65 334.462 132.1 335.562 132.1C336.352 132.1 336.942 131.79 337.352 131.18C337.382 131.71 337.622 132.1 338.222 132.1C338.512 132.1 338.772 132.03 338.992 131.9V131.21C338.842 131.3 338.692 131.35 338.532 131.35C338.382 131.35 338.252 131.25 338.252 131V128.35C338.252 127.35 337.612 126.79 336.252 126.79ZM337.312 129.66V129.86C337.312 130.78 336.622 131.35 335.882 131.35C335.182 131.35 334.832 131.12 334.832 130.66C334.832 129.98 335.162 129.66 337.312 129.66ZM342.392 126.79C341.592 126.79 341.112 127.24 340.902 127.65L340.762 126.89H340.092V132H341.032V128.95C341.032 128.09 341.412 127.54 342.102 127.54C342.742 127.54 343.042 127.91 343.042 128.55V128.77H343.872C343.892 128.64 343.902 128.52 343.902 128.39C343.902 127.51 343.382 126.79 342.392 126.79ZM345.284 126.89H344.284L346.274 131.95C346.034 132.72 345.694 133.09 345.134 133.09C345.004 133.09 344.844 133.04 344.634 132.95V133.72C344.844 133.81 345.074 133.86 345.334 133.86C346.094 133.86 346.564 133.51 347.254 131.8L349.164 126.89H348.244L346.794 130.66H346.754L345.284 126.89ZM355.683 125.14H352.643V132H355.743C356.713 132 357.643 131.27 357.643 130.13C357.643 129.17 357.033 128.59 356.283 128.47V128.42C357.103 128.19 357.483 127.61 357.483 126.82C357.483 125.88 356.673 125.14 355.683 125.14ZM355.483 128.06H353.623V126.03H355.483C356.043 126.03 356.503 126.49 356.503 127.05C356.503 127.64 355.993 128.06 355.483 128.06ZM355.583 131.11H353.623V128.95H355.583C356.183 128.95 356.663 129.43 356.663 130.03C356.663 130.63 356.183 131.11 355.583 131.11ZM359.908 126.89H358.968V130.33C358.968 131.52 359.748 132.1 360.728 132.1C361.478 132.1 362.048 131.77 362.398 131.26C362.418 131.73 362.608 132.1 363.388 132.1C363.608 132.1 363.818 132.03 364.018 131.9V131.21C363.868 131.3 363.718 131.35 363.568 131.35C363.418 131.35 363.288 131.25 363.288 131V126.89H362.348V129.93C362.348 130.73 361.698 131.35 360.988 131.35C360.348 131.35 359.908 131.03 359.908 130.16V126.89ZM365.66 125.26L365.34 126.89H364.75V127.64H365.31V130.64C365.31 131.68 365.74 132.1 366.51 132.1C366.89 132.1 367.2 132.04 367.44 131.92V131.22C367.2 131.32 366.99 131.37 366.82 131.37C366.44 131.37 366.25 131.18 366.25 130.69V127.64H367.44V126.89H366.25V125.26H365.66ZM369.117 125.26L368.797 126.89H368.207V127.64H368.767V130.64C368.767 131.68 369.197 132.1 369.967 132.1C370.347 132.1 370.657 132.04 370.897 131.92V131.22C370.657 131.32 370.447 131.37 370.277 131.37C369.897 131.37 369.707 131.18 369.707 130.69V127.64H370.897V126.89H369.707V125.26H369.117ZM374.084 132.1H374.134C375.544 132.1 376.454 131.15 376.454 129.63V129.26C376.454 127.72 375.544 126.79 374.124 126.79H374.074C372.664 126.79 371.754 127.71 371.754 129.26V129.63C371.754 131.16 372.664 132.1 374.084 132.1ZM374.104 131.35C373.194 131.35 372.694 130.69 372.694 129.54V129.35C372.694 128.15 373.224 127.54 374.104 127.54C375.014 127.54 375.514 128.2 375.514 129.35V129.54C375.514 130.74 374.974 131.35 374.104 131.35ZM380.327 126.79C379.617 126.79 379.047 127.07 378.617 127.64L378.487 126.89H377.807V132H378.747V128.96C378.747 128.17 379.387 127.54 380.107 127.54C380.747 127.54 381.187 127.86 381.187 128.73V132H382.127V128.56C382.127 127.38 381.417 126.79 380.327 126.79Z" fill="black"/>
<rect x="281" y="112" width="132" height="34" rx="3" stroke="black" stroke-width="2"/>
<rect x="281" y="248" width="231" height="22" rx="3" fill="#D0FF0D"/>
<rect x="281" y="248" width="231" height="22" rx="3" stroke="black" stroke-width="2"/>
<rect x="281" y="280" width="231" height="22" rx="3" fill="#76B474"/>
<rect x="281" y="280" width="231" height="22" rx="3" stroke="black" stroke-width="2"/>
<path d="M307.64 169.04C306.24 169.04 305.18 169.6 305.18 170.99C305.18 173.43 309.26 172.42 309.26 174.18C309.26 174.82 308.64 175.21 307.64 175.21C306.64 175.21 306 174.85 306 174.06C306 173.99 306 173.94 306.01 173.85H305.03C305.02 173.94 305.02 173.98 305.02 174.05C305.02 175.41 306.01 176.1 307.63 176.1C309.2 176.1 310.24 175.5 310.24 173.95C310.24 171.51 306.16 172.41 306.16 170.84C306.16 170.25 306.73 169.93 307.66 169.93C308.49 169.93 309.08 170.28 309.08 170.93V171.08H310.06V170.96C310.06 169.72 309.12 169.04 307.64 169.04ZM313.65 170.79H313.58C312.16 170.79 311.28 171.83 311.28 173.35V173.55C311.28 175.09 312.16 176.1 313.61 176.1H313.65C314.9 176.1 315.79 175.31 315.79 174.1H314.9C314.9 174.7 314.58 175.35 313.67 175.35C312.71 175.35 312.25 174.72 312.22 173.66H315.79V172.95C315.79 171.63 314.91 170.79 313.65 170.79ZM313.6 171.54C314.36 171.54 314.86 172 314.86 172.93H312.24C312.35 172 312.85 171.54 313.6 171.54ZM319.156 170.79H319.076C317.736 170.79 316.836 171.8 316.836 173.33V173.57C316.836 175.09 317.706 176.1 319.086 176.1H319.166C320.436 176.1 321.276 175.29 321.276 174H320.376C320.376 174.79 319.996 175.35 319.156 175.35C318.306 175.35 317.776 174.82 317.776 173.63V173.09C317.776 172.12 318.306 171.54 319.126 171.54C319.936 171.54 320.346 172.1 320.346 172.9H321.276C321.276 171.63 320.386 170.79 319.156 170.79ZM324.616 176.1H324.666C326.076 176.1 326.986 175.15 326.986 173.63V173.26C326.986 171.72 326.076 170.79 324.656 170.79H324.606C323.196 170.79 322.286 171.71 322.286 173.26V173.63C322.286 175.16 323.196 176.1 324.616 176.1ZM324.636 175.35C323.726 175.35 323.226 174.69 323.226 173.54V173.35C323.226 172.15 323.756 171.54 324.636 171.54C325.546 171.54 326.046 172.2 326.046 173.35V173.54C326.046 174.74 325.506 175.35 324.636 175.35ZM330.858 170.79C330.148 170.79 329.578 171.07 329.148 171.64L329.018 170.89H328.338V176H329.278V172.96C329.278 172.17 329.918 171.54 330.638 171.54C331.278 171.54 331.718 171.86 331.718 172.73V176H332.658V172.56C332.658 171.38 331.948 170.79 330.858 170.79ZM336.026 170.79C334.706 170.79 333.956 171.79 333.956 173.33V173.44C333.956 175.1 334.746 176.1 336.026 176.1C336.696 176.1 337.226 175.83 337.606 175.3L337.736 176H338.436V168.8H337.496V171.54C337.146 171.04 336.656 170.79 336.026 170.79ZM336.196 171.54C337.046 171.54 337.506 172.13 337.506 173.41V173.46C337.506 174.72 337.066 175.35 336.196 175.35C335.326 175.35 334.896 174.76 334.896 173.46V173.4C334.896 172.16 335.316 171.54 336.196 171.54ZM342.106 170.79H342.016C340.826 170.79 339.916 171.42 339.916 172.13C339.916 172.28 339.926 172.39 339.936 172.46H340.856V172.34C340.856 171.83 341.276 171.54 341.996 171.54C342.706 171.54 343.166 171.75 343.166 172.46V172.93C340.596 172.93 339.746 173.37 339.746 174.58C339.746 175.65 340.316 176.1 341.416 176.1C342.206 176.1 342.796 175.79 343.206 175.18C343.236 175.71 343.476 176.1 344.076 176.1C344.366 176.1 344.626 176.03 344.846 175.9V175.21C344.696 175.3 344.546 175.35 344.386 175.35C344.236 175.35 344.106 175.25 344.106 175V172.35C344.106 171.35 343.466 170.79 342.106 170.79ZM343.166 173.66V173.86C343.166 174.78 342.476 175.35 341.736 175.35C341.036 175.35 340.686 175.12 340.686 174.66C340.686 173.98 341.016 173.66 343.166 173.66ZM348.245 170.79C347.445 170.79 346.965 171.24 346.755 171.65L346.615 170.89H345.945V176H346.885V172.95C346.885 172.09 347.265 171.54 347.955 171.54C348.595 171.54 348.895 171.91 348.895 172.55V172.77H349.725C349.745 172.64 349.755 172.52 349.755 172.39C349.755 171.51 349.235 170.79 348.245 170.79ZM351.138 170.89H350.138L352.128 175.95C351.888 176.72 351.548 177.09 350.988 177.09C350.858 177.09 350.698 177.04 350.488 176.95V177.72C350.698 177.81 350.928 177.86 351.188 177.86C351.948 177.86 352.418 177.51 353.108 175.8L355.018 170.89H354.098L352.648 174.66H352.608L351.138 170.89ZM361.536 169.14H358.496V176H361.596C362.566 176 363.496 175.27 363.496 174.13C363.496 173.17 362.886 172.59 362.136 172.47V172.42C362.956 172.19 363.336 171.61 363.336 170.82C363.336 169.88 362.526 169.14 361.536 169.14ZM361.336 172.06H359.476V170.03H361.336C361.896 170.03 362.356 170.49 362.356 171.05C362.356 171.64 361.846 172.06 361.336 172.06ZM361.436 175.11H359.476V172.95H361.436C362.036 172.95 362.516 173.43 362.516 174.03C362.516 174.63 362.036 175.11 361.436 175.11ZM365.761 170.89H364.821V174.33C364.821 175.52 365.601 176.1 366.581 176.1C367.331 176.1 367.901 175.77 368.251 175.26C368.271 175.73 368.461 176.1 369.241 176.1C369.461 176.1 369.671 176.03 369.871 175.9V175.21C369.721 175.3 369.571 175.35 369.421 175.35C369.271 175.35 369.141 175.25 369.141 175V170.89H368.201V173.93C368.201 174.73 367.551 175.35 366.841 175.35C366.201 175.35 365.761 175.03 365.761 174.16V170.89ZM371.514 169.26L371.194 170.89H370.604V171.64H371.164V174.64C371.164 175.68 371.594 176.1 372.364 176.1C372.744 176.1 373.054 176.04 373.294 175.92V175.22C373.054 175.32 372.844 175.37 372.674 175.37C372.294 175.37 372.104 175.18 372.104 174.69V171.64H373.294V170.89H372.104V169.26H371.514ZM374.971 169.26L374.651 170.89H374.061V171.64H374.621V174.64C374.621 175.68 375.051 176.1 375.821 176.1C376.201 176.1 376.511 176.04 376.751 175.92V175.22C376.511 175.32 376.301 175.37 376.131 175.37C375.751 175.37 375.561 175.18 375.561 174.69V171.64H376.751V170.89H375.561V169.26H374.971ZM379.938 176.1H379.988C381.398 176.1 382.308 175.15 382.308 173.63V173.26C382.308 171.72 381.398 170.79 379.978 170.79H379.928C378.518 170.79 377.608 171.71 377.608 173.26V173.63C377.608 175.16 378.518 176.1 379.938 176.1ZM379.958 175.35C379.048 175.35 378.548 174.69 378.548 173.54V173.35C378.548 172.15 379.078 171.54 379.958 171.54C380.868 171.54 381.368 172.2 381.368 173.35V173.54C381.368 174.74 380.828 175.35 379.958 175.35ZM386.18 170.79C385.47 170.79 384.9 171.07 384.47 171.64L384.34 170.89H383.66V176H384.6V172.96C384.6 172.17 385.24 171.54 385.96 171.54C386.6 171.54 387.04 171.86 387.04 172.73V176H387.98V172.56C387.98 171.38 387.27 170.79 386.18 170.79Z" fill="black"/>
<rect x="281" y="156" width="132" height="34" rx="3" stroke="black" stroke-width="2"/>
<circle cx="348" cy="60" r="21" fill="#6CAE69"/>
<path d="M354.645 53.3555C353.873 52.5926 352.627 52.5926 351.929 53.3555L348.074 57.2191L344.145 53.3555C343.373 52.5926 342.127 52.5926 341.429 53.3555C340.593 54.1266 340.593 55.3734 341.429 56.0707L345.219 59.9262L341.429 63.8555C340.593 64.6266 340.593 65.8734 341.429 66.5707C342.127 67.4074 343.373 67.4074 344.145 66.5707L348.074 62.7809L351.929 66.5707C352.627 67.4074 353.873 67.4074 354.645 66.5707C355.407 65.8734 355.407 64.6266 354.645 63.8555L350.781 59.9262L354.645 56.0707C355.407 55.3734 355.407 54.1266 354.645 53.3555ZM327 60C327 71.5992 336.401 81 348 81C359.599 81 369 71.5992 369 60C369 48.4008 359.599 39 348 39C336.401 39 327 48.4008 327 60ZM348 42.9375C357.425 42.9375 365.062 50.5746 365.062 60C365.062 69.4254 357.425 77.0625 348 77.0625C338.575 77.0625 330.938 69.4254 330.938 60C330.938 50.5746 338.575 42.9375 348 42.9375Z" fill="black"/>
<circle cx="402" cy="60" r="21" fill="white"/>
<path d="M400.031 48.8438C400.031 47.7527 400.909 46.875 402 46.875C403.091 46.875 403.969 47.7527 403.969 48.8438V58.95L410.966 63.6094C411.868 64.2164 412.114 65.4387 411.442 66.341C410.909 67.2434 409.686 67.4895 408.784 66.8168L400.909 61.5668C400.359 61.2715 400.031 60.6562 400.031 59.9262V48.8438ZM402 39C413.599 39 423 48.4008 423 60C423 71.5992 413.599 81 402 81C390.401 81 381 71.5992 381 60C381 48.4008 390.401 39 402 39ZM384.938 60C384.938 69.4254 392.575 77.0625 402 77.0625C411.425 77.0625 419.062 69.4254 419.062 60C419.062 50.5746 411.425 42.9375 402 42.9375C392.575 42.9375 384.938 50.5746 384.938 60Z" fill="black"/>
<path d="M311.25 213.14V214.03H313.4V220H314.38V214.03H316.53V213.14H311.25ZM318.88 214.79H318.81C317.39 214.79 316.51 215.83 316.51 217.35V217.55C316.51 219.09 317.39 220.1 318.84 220.1H318.88C320.13 220.1 321.02 219.31 321.02 218.1H320.13C320.13 218.7 319.81 219.35 318.9 219.35C317.94 219.35 317.48 218.72 317.45 217.66H321.02V216.95C321.02 215.63 320.14 214.79 318.88 214.79ZM318.83 215.54C319.59 215.54 320.09 216 320.09 216.93H317.47C317.58 216 318.08 215.54 318.83 215.54ZM324.687 214.79C323.887 214.79 323.407 215.24 323.197 215.65L323.057 214.89H322.387V220H323.327V216.95C323.327 216.09 323.707 215.54 324.397 215.54C325.037 215.54 325.337 215.91 325.337 216.55V216.77H326.167C326.187 216.64 326.197 216.52 326.197 216.39C326.197 215.51 325.677 214.79 324.687 214.79ZM327.799 213.26L327.479 214.89H326.889V215.64H327.449V218.64C327.449 219.68 327.879 220.1 328.649 220.1C329.029 220.1 329.339 220.04 329.579 219.92V219.22C329.339 219.32 329.129 219.37 328.959 219.37C328.579 219.37 328.389 219.18 328.389 218.69V215.64H329.579V214.89H328.389V213.26H327.799ZM331.706 212.8H330.726V213.67H331.706V212.8ZM330.746 214.89V220H331.686V214.89H330.746ZM335.354 214.79H335.264C334.074 214.79 333.164 215.42 333.164 216.13C333.164 216.28 333.174 216.39 333.184 216.46H334.104V216.34C334.104 215.83 334.524 215.54 335.244 215.54C335.954 215.54 336.414 215.75 336.414 216.46V216.93C333.844 216.93 332.994 217.37 332.994 218.58C332.994 219.65 333.564 220.1 334.664 220.1C335.454 220.1 336.044 219.79 336.454 219.18C336.484 219.71 336.724 220.1 337.324 220.1C337.614 220.1 337.874 220.03 338.094 219.9V219.21C337.944 219.3 337.794 219.35 337.634 219.35C337.484 219.35 337.354 219.25 337.354 219V216.35C337.354 215.35 336.714 214.79 335.354 214.79ZM336.414 217.66V217.86C336.414 218.78 335.724 219.35 334.984 219.35C334.284 219.35 333.934 219.12 333.934 218.66C333.934 217.98 334.264 217.66 336.414 217.66ZM341.493 214.79C340.693 214.79 340.213 215.24 340.003 215.65L339.863 214.89H339.193V220H340.133V216.95C340.133 216.09 340.513 215.54 341.203 215.54C341.843 215.54 342.143 215.91 342.143 216.55V216.77H342.973C342.993 216.64 343.003 216.52 343.003 216.39C343.003 215.51 342.483 214.79 341.493 214.79ZM344.386 214.89H343.386L345.376 219.95C345.136 220.72 344.796 221.09 344.236 221.09C344.106 221.09 343.946 221.04 343.736 220.95V221.72C343.946 221.81 344.176 221.86 344.436 221.86C345.196 221.86 345.666 221.51 346.356 219.8L348.266 214.89H347.346L345.896 218.66H345.856L344.386 214.89ZM354.784 213.14H351.744V220H354.844C355.814 220 356.744 219.27 356.744 218.13C356.744 217.17 356.134 216.59 355.384 216.47V216.42C356.204 216.19 356.584 215.61 356.584 214.82C356.584 213.88 355.774 213.14 354.784 213.14ZM354.584 216.06H352.724V214.03H354.584C355.144 214.03 355.604 214.49 355.604 215.05C355.604 215.64 355.094 216.06 354.584 216.06ZM354.684 219.11H352.724V216.95H354.684C355.284 216.95 355.764 217.43 355.764 218.03C355.764 218.63 355.284 219.11 354.684 219.11ZM359.009 214.89H358.069V218.33C358.069 219.52 358.849 220.1 359.829 220.1C360.579 220.1 361.149 219.77 361.499 219.26C361.519 219.73 361.709 220.1 362.489 220.1C362.709 220.1 362.919 220.03 363.119 219.9V219.21C362.969 219.3 362.819 219.35 362.669 219.35C362.519 219.35 362.389 219.25 362.389 219V214.89H361.449V217.93C361.449 218.73 360.799 219.35 360.089 219.35C359.449 219.35 359.009 219.03 359.009 218.16V214.89ZM364.762 213.26L364.442 214.89H363.852V215.64H364.412V218.64C364.412 219.68 364.842 220.1 365.612 220.1C365.992 220.1 366.302 220.04 366.542 219.92V219.22C366.302 219.32 366.092 219.37 365.922 219.37C365.542 219.37 365.352 219.18 365.352 218.69V215.64H366.542V214.89H365.352V213.26H364.762ZM368.219 213.26L367.899 214.89H367.309V215.64H367.869V218.64C367.869 219.68 368.299 220.1 369.069 220.1C369.449 220.1 369.759 220.04 369.999 219.92V219.22C369.759 219.32 369.549 219.37 369.379 219.37C368.999 219.37 368.809 219.18 368.809 218.69V215.64H369.999V214.89H368.809V213.26H368.219ZM373.186 220.1H373.236C374.646 220.1 375.556 219.15 375.556 217.63V217.26C375.556 215.72 374.646 214.79 373.226 214.79H373.176C371.766 214.79 370.856 215.71 370.856 217.26V217.63C370.856 219.16 371.766 220.1 373.186 220.1ZM373.206 219.35C372.296 219.35 371.796 218.69 371.796 217.54V217.35C371.796 216.15 372.326 215.54 373.206 215.54C374.116 215.54 374.616 216.2 374.616 217.35V217.54C374.616 218.74 374.076 219.35 373.206 219.35ZM379.428 214.79C378.718 214.79 378.148 215.07 377.718 215.64L377.588 214.89H376.908V220H377.848V216.96C377.848 216.17 378.488 215.54 379.208 215.54C379.848 215.54 380.288 215.86 380.288 216.73V220H381.228V216.56C381.228 215.38 380.518 214.79 379.428 214.79Z" fill="black"/>
<rect x="280.5" y="199.5" width="133" height="35" rx="3.5" stroke="white"/>
<circle cx="294" cy="60" r="19" fill="#D0FF0D" stroke="black" stroke-width="4"/>
<path d="M293.438 52.9374L293.958 53.4999L294.52 52.9384C296.091 51.4079 298.266 50.7114 300.403 51.0671C303.633 51.6053 306 54.3999 306 57.6765V57.9484C306 59.8937 305.194 61.7546 303.769 63.0812L295.298 70.989C294.947 71.3171 294.483 71.4999 294 71.4999C293.517 71.4999 293.053 71.3171 292.702 70.989L284.231 63.0812C282.808 61.7546 282 59.8937 282 57.9484V57.6765C282 54.3999 284.368 51.6053 287.597 51.0671C289.692 50.7114 291.909 51.4079 293.438 52.9374C293.395 52.9374 293.438 52.9379 293.438 52.9374ZM293.958 56.6828L291.848 54.489C290.831 53.5131 289.388 53.0499 287.967 53.2862C285.823 53.6439 284.25 55.5015 284.25 57.6765V57.9484C284.25 59.2703 284.799 60.5359 285.766 61.4359L294 69.1234L302.236 61.4359C303.202 60.5359 303.75 59.2703 303.75 57.9484V57.6765C303.75 55.5015 302.175 53.6439 300.033 53.2862C298.613 53.0499 297.169 53.5131 296.152 54.489L293.958 56.6828Z" fill="black"/>
</svg>
