<svg width="513" height="339" viewBox="0 0 513 339" fill="none" xmlns="http://www.w3.org/2000/svg">
<g clip-path="url(#clip0_147_905)">
<rect x="68" y="12" width="377" height="326" fill="#393E46"/>
<path fill-rule="evenodd" clip-rule="evenodd" d="M350.544 12C348.271 12 346.428 13.8505 346.428 16.1335V21.1923C346.428 31.0949 338.433 38.6205 328.572 38.6205H324.277H187.223H182.928C173.067 38.6205 165.072 31.0949 165.072 21.1923V16.1335C165.072 13.8505 163.229 12 160.956 12H105.392C84.3929 12 68 28.9832 68 50.5525V784.945C68 806.515 85.4126 824 106.893 824H404.107C425.587 824 443 806.515 443 784.945V51.0548C443 29.4855 429.037 12 406.872 12C384.707 12 350.544 12 350.544 12Z" fill="white"/>
<mask id="mask0_147_905" style="mask-type:alpha" maskUnits="userSpaceOnUse" x="68" y="12" width="375" height="812">
<path fill-rule="evenodd" clip-rule="evenodd" d="M350.544 12C348.271 12 346.428 13.8505 346.428 16.1335V21.1923C346.428 31.0949 338.433 38.6205 328.572 38.6205H324.277H187.223H182.928C173.067 38.6205 165.072 31.0949 165.072 21.1923V16.1335C165.072 13.8505 163.229 12 160.956 12H105.392C84.3929 12 68 28.9832 68 50.5525V784.945C68 806.515 85.4126 824 106.893 824H404.107C425.587 824 443 806.515 443 784.945V51.0548C443 29.4855 429.037 12 406.872 12C384.707 12 350.544 12 350.544 12Z" fill="white"/>
</mask>
<g mask="url(#mask0_147_905)">
<path fill-rule="evenodd" clip-rule="evenodd" d="M68 19V38.9885H442.785V19H68Z" fill="black" fill-opacity="0.01"/>
<rect opacity="0.5" x="395.812" y="23.997" width="22.9868" height="10.494" rx="1.49914" stroke="black" stroke-width="0.999426"/>
<path d="M397.312 25.9958C397.312 25.7198 397.535 25.4961 397.811 25.4961H413.302V32.9918H397.811C397.535 32.9918 397.312 32.7681 397.312 32.4921V25.9958Z" fill="black"/>
<path opacity="0.5" d="M420.298 27.4951V27.4951C421.126 27.4951 421.797 28.1663 421.797 28.9943V29.494C421.797 30.3219 421.126 30.9931 420.298 30.9931V30.9931V27.4951Z" fill="black"/>
<g clip-path="url(#clip1_147_905)">
<path d="M89.7685 32.3854H89.8856C90.4244 32.3854 90.8733 32.3151 91.2325 32.1746C91.5956 32.0301 91.8845 31.831 92.0992 31.5773C92.3139 31.3235 92.4681 31.0249 92.5618 30.6813C92.6555 30.3378 92.7024 29.9649 92.7024 29.5628V28.0929C92.7024 27.7455 92.6653 27.441 92.5911 27.1794C92.5208 26.9139 92.4193 26.6934 92.2866 26.5177C92.1578 26.3381 92.0075 26.2034 91.8357 26.1136C91.6678 26.0238 91.4863 25.9789 91.2911 25.9789C91.0764 25.9789 90.8831 26.0277 90.7113 26.1253C90.5435 26.219 90.401 26.3498 90.2838 26.5177C90.1706 26.6816 90.0828 26.8749 90.0203 27.0974C89.9618 27.316 89.9325 27.5503 89.9325 27.8001C89.9325 28.0344 89.9598 28.2608 90.0145 28.4794C90.073 28.6942 90.1589 28.8855 90.2721 29.0533C90.3853 29.2212 90.5278 29.3539 90.6996 29.4515C90.8714 29.5491 91.0724 29.5979 91.3028 29.5979C91.5214 29.5979 91.7225 29.5569 91.906 29.475C92.0894 29.3891 92.2495 29.2739 92.3861 29.1295C92.5228 28.985 92.6301 28.823 92.7082 28.6434C92.7863 28.4638 92.8293 28.2803 92.8371 28.0929L93.3758 28.2569C93.3758 28.5536 93.3134 28.8464 93.1884 29.1353C93.0674 29.4203 92.8976 29.6819 92.6789 29.92C92.4642 30.1543 92.2124 30.3417 91.9235 30.4822C91.6385 30.6227 91.3282 30.693 90.9924 30.693C90.5864 30.693 90.2272 30.6169 89.9149 30.4646C89.6065 30.3085 89.3488 30.0977 89.1419 29.8322C88.9389 29.5667 88.7867 29.2622 88.6851 28.9186C88.5836 28.5751 88.5329 28.214 88.5329 27.8353C88.5329 27.4254 88.5954 27.0408 88.7203 26.6816C88.8452 26.3225 89.0267 26.0063 89.2649 25.733C89.503 25.4558 89.7919 25.2411 90.1316 25.0888C90.4751 24.9326 90.8636 24.8546 91.2969 24.8546C91.7576 24.8546 92.1617 24.9444 92.5091 25.1239C92.8566 25.3035 93.1494 25.5514 93.3875 25.8677C93.6257 26.1839 93.8053 26.5509 93.9263 26.9686C94.0473 27.3863 94.1078 27.8353 94.1078 28.3155V28.8132C94.1078 29.3169 94.0629 29.8029 93.9731 30.2714C93.8833 30.736 93.7369 31.1674 93.5339 31.5656C93.3348 31.9599 93.0713 32.3073 92.7434 32.6079C92.4193 32.9046 92.0211 33.1369 91.5487 33.3048C91.0803 33.4688 90.5298 33.5508 89.8973 33.5508H89.7685V32.3854ZM95.5484 32.7953C95.5484 32.5767 95.6226 32.3932 95.7709 32.2449C95.9193 32.0926 96.1203 32.0165 96.3741 32.0165C96.6318 32.0165 96.8328 32.0926 96.9773 32.2449C97.1256 32.3932 97.1998 32.5767 97.1998 32.7953C97.1998 33.0139 97.1256 33.1974 96.9773 33.3458C96.8328 33.4941 96.6318 33.5683 96.3741 33.5683C96.1203 33.5683 95.9193 33.4941 95.7709 33.3458C95.6226 33.1974 95.5484 33.0139 95.5484 32.7953ZM95.5543 27.806C95.5543 27.5874 95.6284 27.4039 95.7768 27.2555C95.9251 27.1033 96.1262 27.0272 96.38 27.0272C96.6376 27.0272 96.8387 27.1033 96.9831 27.2555C97.1315 27.4039 97.2056 27.5874 97.2056 27.806C97.2056 28.0246 97.1315 28.2081 96.9831 28.3565C96.8387 28.5048 96.6376 28.579 96.38 28.579C96.1262 28.579 95.9251 28.5048 95.7768 28.3565C95.6284 28.2081 95.5543 28.0246 95.5543 27.806ZM104.485 30.4588V31.5831H98.3359L98.289 30.734L101.967 24.9717H103.097L101.873 27.0681L99.7589 30.4588H104.485ZM103.419 24.9717V33.498H102.008V24.9717H103.419ZM109.281 24.9424V33.498H107.869V26.6172L105.779 27.3258V26.1605L109.111 24.9424H109.281ZM118.773 26.1078L116.226 33.498H114.686L117.895 24.9717H118.879L118.773 26.1078ZM120.905 33.498L118.352 26.1078L118.24 24.9717H119.23L122.451 33.498H120.905ZM120.782 30.3358V31.5011H116.144V30.3358H120.782ZM124.003 24.9717H125.315L127.78 31.548L130.239 24.9717H131.551L128.295 33.498H127.253L124.003 24.9717ZM123.405 24.9717H124.653L124.869 30.6637V33.498H123.405V24.9717ZM130.901 24.9717H132.154V33.498H130.684V30.6637L130.901 24.9717Z" fill="black"/>
</g>
<path fill-rule="evenodd" clip-rule="evenodd" d="M386.412 31.2611C385.858 30.8075 385.144 30.4934 384.365 30.4934C383.586 30.4934 382.874 30.807 382.32 31.2586L384.365 33.4917L386.412 31.2611V31.2611ZM384.353 29.0141C385.515 29.0141 386.577 29.436 387.395 30.131L388.39 29.0319C387.307 28.1023 385.899 27.4951 384.353 27.4951C382.811 27.4951 381.403 28.1008 380.321 29.0274L381.315 30.128C382.133 29.4345 383.193 29.0141 384.353 29.0141V29.0141ZM384.315 26.0168C386.253 26.0168 388.02 26.731 389.375 27.9021L390.315 26.8636C388.711 25.4707 386.615 24.4968 384.315 24.4968C382.017 24.4968 379.925 25.4678 378.322 26.8562L379.261 27.8961C380.615 26.7285 382.378 26.0168 384.315 26.0168V26.0168Z" fill="black"/>
<path fill-rule="evenodd" clip-rule="evenodd" d="M370.826 23.9971C370.55 23.9971 370.326 24.2208 370.326 24.4968V33.4916C370.326 33.7676 370.55 33.9913 370.826 33.9913H372.825C373.101 33.9913 373.325 33.7676 373.325 33.4916V24.4968C373.325 24.2208 373.101 23.9971 372.825 23.9971H370.826ZM366.329 25.9959C366.053 25.9959 365.829 26.2197 365.829 26.4956V33.4916C365.829 33.7676 366.053 33.9913 366.329 33.9913H368.327C368.603 33.9913 368.827 33.7676 368.827 33.4916V26.4956C368.827 26.2197 368.603 25.9959 368.327 25.9959H366.329ZM361.331 28.4945C361.331 28.2185 361.555 27.9948 361.831 27.9948H363.83C364.106 27.9948 364.33 28.2185 364.33 28.4945V33.4916C364.33 33.7676 364.106 33.9913 363.83 33.9913H361.831C361.555 33.9913 361.331 33.7676 361.331 33.4916V28.4945ZM357.334 29.4939C357.058 29.4939 356.834 29.7176 356.834 29.9936V33.4916C356.834 33.7676 357.058 33.9913 357.334 33.9913H359.333C359.609 33.9913 359.832 33.7676 359.832 33.4916V29.9936C359.832 29.7176 359.609 29.4939 359.333 29.4939H357.334Z" fill="black"/>
<path d="M218.641 113.75H211.125L209.812 118H203.953L212.297 95.25H217.453L225.859 118H219.969L218.641 113.75ZM212.438 109.516H217.328L214.875 101.625L212.438 109.516ZM231.375 101.094L231.547 103.078C232.714 101.547 234.323 100.781 236.375 100.781C238.135 100.781 239.448 101.307 240.312 102.359C241.188 103.411 241.641 104.995 241.672 107.109V118H236.391V107.328C236.391 106.474 236.219 105.849 235.875 105.453C235.531 105.047 234.906 104.844 234 104.844C232.969 104.844 232.203 105.25 231.703 106.062V118H226.438V101.094H231.375ZM243.984 109.422C243.984 107.714 244.266 106.203 244.828 104.891C245.391 103.578 246.198 102.568 247.25 101.859C248.302 101.141 249.526 100.781 250.922 100.781C252.682 100.781 254.057 101.375 255.047 102.562L255.234 101.094H260.016V117.359C260.016 118.849 259.667 120.141 258.969 121.234C258.281 122.339 257.281 123.182 255.969 123.766C254.656 124.359 253.135 124.656 251.406 124.656C250.167 124.656 248.964 124.422 247.797 123.953C246.641 123.484 245.755 122.875 245.141 122.125L247.344 119.031C248.323 120.188 249.615 120.766 251.219 120.766C253.552 120.766 254.719 119.568 254.719 117.172V116.641C253.708 117.755 252.432 118.312 250.891 118.312C248.828 118.312 247.161 117.526 245.891 115.953C244.62 114.37 243.984 112.255 243.984 109.609V109.422ZM249.266 109.75C249.266 111.135 249.526 112.234 250.047 113.047C250.568 113.849 251.297 114.25 252.234 114.25C253.37 114.25 254.198 113.87 254.719 113.109V106C254.208 105.229 253.391 104.844 252.266 104.844C251.328 104.844 250.594 105.266 250.062 106.109C249.531 106.943 249.266 108.156 249.266 109.75ZM271.188 118.312C268.594 118.312 266.495 117.542 264.891 116C263.286 114.448 262.484 112.432 262.484 109.953V109.516C262.484 107.786 262.802 106.26 263.438 104.938C264.083 103.615 265.021 102.594 266.25 101.875C267.479 101.146 268.938 100.781 270.625 100.781C273 100.781 274.875 101.521 276.25 103C277.625 104.469 278.312 106.521 278.312 109.156V111.203H267.844C268.031 112.151 268.443 112.896 269.078 113.438C269.714 113.979 270.536 114.25 271.547 114.25C273.214 114.25 274.516 113.667 275.453 112.5L277.859 115.344C277.203 116.25 276.271 116.974 275.062 117.516C273.865 118.047 272.573 118.312 271.188 118.312ZM270.594 104.844C269.052 104.844 268.135 105.865 267.844 107.906H273.156V107.5C273.177 106.656 272.964 106.005 272.516 105.547C272.068 105.078 271.427 104.844 270.594 104.844ZM286 118H280.719V94H286V118ZM298.781 118C298.594 117.656 298.427 117.151 298.281 116.484C297.312 117.703 295.958 118.312 294.219 118.312C292.625 118.312 291.271 117.833 290.156 116.875C289.042 115.906 288.484 114.693 288.484 113.234C288.484 111.401 289.161 110.016 290.516 109.078C291.87 108.141 293.839 107.672 296.422 107.672H298.047V106.781C298.047 105.229 297.375 104.453 296.031 104.453C294.781 104.453 294.156 105.068 294.156 106.297H288.891C288.891 104.661 289.583 103.333 290.969 102.312C292.365 101.292 294.141 100.781 296.297 100.781C298.453 100.781 300.156 101.307 301.406 102.359C302.656 103.411 303.297 104.854 303.328 106.688V114.172C303.349 115.724 303.589 116.911 304.047 117.734V118H298.781ZM295.484 114.562C296.141 114.562 296.682 114.422 297.109 114.141C297.547 113.859 297.859 113.542 298.047 113.188V110.484H296.516C294.682 110.484 293.766 111.307 293.766 112.953C293.766 113.432 293.927 113.823 294.25 114.125C294.573 114.417 294.984 114.562 295.484 114.562Z" fill="#393E46"/>
<path d="M151.531 156.016L154.148 150.625H156.336L152.523 157.812V162H150.539V157.812L146.719 150.625H148.914L151.531 156.016ZM156.516 157.695C156.516 156.867 156.68 156.122 157.008 155.461C157.336 154.794 157.797 154.284 158.391 153.93C158.984 153.57 159.667 153.391 160.438 153.391C161.578 153.391 162.503 153.758 163.211 154.492C163.924 155.227 164.31 156.201 164.367 157.414L164.375 157.859C164.375 158.693 164.214 159.438 163.891 160.094C163.573 160.75 163.115 161.258 162.516 161.617C161.922 161.977 161.234 162.156 160.453 162.156C159.26 162.156 158.305 161.76 157.586 160.969C156.872 160.172 156.516 159.112 156.516 157.789V157.695ZM158.414 157.859C158.414 158.729 158.594 159.411 158.953 159.906C159.312 160.396 159.812 160.641 160.453 160.641C161.094 160.641 161.591 160.391 161.945 159.891C162.305 159.391 162.484 158.659 162.484 157.695C162.484 156.841 162.299 156.164 161.93 155.664C161.565 155.164 161.068 154.914 160.438 154.914C159.818 154.914 159.326 155.161 158.961 155.656C158.596 156.146 158.414 156.88 158.414 157.859ZM171.102 161.172C170.544 161.828 169.753 162.156 168.727 162.156C167.81 162.156 167.115 161.888 166.641 161.352C166.172 160.815 165.938 160.039 165.938 159.023V153.547H167.836V159C167.836 160.073 168.281 160.609 169.172 160.609C170.094 160.609 170.716 160.279 171.039 159.617V153.547H172.938V162H171.148L171.102 161.172ZM179.297 155.281C179.047 155.24 178.789 155.219 178.523 155.219C177.654 155.219 177.068 155.552 176.766 156.219V162H174.867V153.547H176.68L176.727 154.492C177.185 153.758 177.82 153.391 178.633 153.391C178.904 153.391 179.128 153.427 179.305 153.5L179.297 155.281ZM187.93 157.086L186.641 158.453V162H184.664V150.625H186.641V155.961L187.734 154.609L191.062 150.625H193.453L189.227 155.664L193.695 162H191.352L187.93 157.086ZM198.094 162.156C196.891 162.156 195.914 161.779 195.164 161.023C194.419 160.263 194.047 159.253 194.047 157.992V157.758C194.047 156.914 194.208 156.161 194.531 155.5C194.859 154.833 195.318 154.315 195.906 153.945C196.495 153.576 197.151 153.391 197.875 153.391C199.026 153.391 199.914 153.758 200.539 154.492C201.169 155.227 201.484 156.266 201.484 157.609V158.375H195.961C196.018 159.073 196.25 159.625 196.656 160.031C197.068 160.438 197.583 160.641 198.203 160.641C199.073 160.641 199.781 160.289 200.328 159.586L201.352 160.562C201.013 161.068 200.56 161.461 199.992 161.742C199.43 162.018 198.797 162.156 198.094 162.156ZM197.867 154.914C197.346 154.914 196.924 155.096 196.602 155.461C196.284 155.826 196.081 156.333 195.992 156.984H199.609V156.844C199.568 156.208 199.398 155.729 199.102 155.406C198.805 155.078 198.393 154.914 197.867 154.914ZM205.344 151.492V153.547H206.836V154.953H205.344V159.672C205.344 159.995 205.406 160.229 205.531 160.375C205.661 160.516 205.891 160.586 206.219 160.586C206.438 160.586 206.659 160.56 206.883 160.508V161.977C206.451 162.096 206.034 162.156 205.633 162.156C204.174 162.156 203.445 161.352 203.445 159.742V154.953H202.055V153.547H203.445V151.492H205.344ZM207.703 157.695C207.703 156.867 207.867 156.122 208.195 155.461C208.523 154.794 208.984 154.284 209.578 153.93C210.172 153.57 210.854 153.391 211.625 153.391C212.766 153.391 213.69 153.758 214.398 154.492C215.112 155.227 215.497 156.201 215.555 157.414L215.562 157.859C215.562 158.693 215.401 159.438 215.078 160.094C214.76 160.75 214.302 161.258 213.703 161.617C213.109 161.977 212.422 162.156 211.641 162.156C210.448 162.156 209.492 161.76 208.773 160.969C208.06 160.172 207.703 159.112 207.703 157.789V157.695ZM209.602 157.859C209.602 158.729 209.781 159.411 210.141 159.906C210.5 160.396 211 160.641 211.641 160.641C212.281 160.641 212.779 160.391 213.133 159.891C213.492 159.391 213.672 158.659 213.672 157.695C213.672 156.841 213.487 156.164 213.117 155.664C212.753 155.164 212.255 154.914 211.625 154.914C211.005 154.914 210.513 155.161 210.148 155.656C209.784 156.146 209.602 156.88 209.602 157.859ZM216.836 157.711C216.836 156.398 217.143 155.352 217.758 154.57C218.378 153.784 219.198 153.391 220.219 153.391C221.182 153.391 221.94 153.727 222.492 154.398L222.578 153.547H224.289V161.742C224.289 162.852 223.943 163.727 223.25 164.367C222.562 165.008 221.633 165.328 220.461 165.328C219.841 165.328 219.234 165.198 218.641 164.938C218.052 164.682 217.604 164.346 217.297 163.93L218.195 162.789C218.779 163.482 219.497 163.828 220.352 163.828C220.982 163.828 221.479 163.656 221.844 163.312C222.208 162.974 222.391 162.474 222.391 161.812V161.242C221.844 161.852 221.115 162.156 220.203 162.156C219.214 162.156 218.404 161.763 217.773 160.977C217.148 160.19 216.836 159.102 216.836 157.711ZM218.727 157.875C218.727 158.724 218.898 159.393 219.242 159.883C219.591 160.367 220.073 160.609 220.688 160.609C221.453 160.609 222.021 160.281 222.391 159.625V155.906C222.031 155.266 221.469 154.945 220.703 154.945C220.078 154.945 219.591 155.193 219.242 155.688C218.898 156.182 218.727 156.911 218.727 157.875ZM229.969 162.156C228.766 162.156 227.789 161.779 227.039 161.023C226.294 160.263 225.922 159.253 225.922 157.992V157.758C225.922 156.914 226.083 156.161 226.406 155.5C226.734 154.833 227.193 154.315 227.781 153.945C228.37 153.576 229.026 153.391 229.75 153.391C230.901 153.391 231.789 153.758 232.414 154.492C233.044 155.227 233.359 156.266 233.359 157.609V158.375H227.836C227.893 159.073 228.125 159.625 228.531 160.031C228.943 160.438 229.458 160.641 230.078 160.641C230.948 160.641 231.656 160.289 232.203 159.586L233.227 160.562C232.888 161.068 232.435 161.461 231.867 161.742C231.305 162.018 230.672 162.156 229.969 162.156ZM229.742 154.914C229.221 154.914 228.799 155.096 228.477 155.461C228.159 155.826 227.956 156.333 227.867 156.984H231.484V156.844C231.443 156.208 231.273 155.729 230.977 155.406C230.68 155.078 230.268 154.914 229.742 154.914ZM236.602 153.547L236.656 154.523C237.281 153.768 238.102 153.391 239.117 153.391C240.878 153.391 241.773 154.398 241.805 156.414V162H239.906V156.523C239.906 155.987 239.789 155.591 239.555 155.336C239.326 155.076 238.948 154.945 238.422 154.945C237.656 154.945 237.086 155.292 236.711 155.984V162H234.812V153.547H236.602ZM245.766 162H243.867V153.547H245.766V162ZM243.75 151.352C243.75 151.06 243.841 150.818 244.023 150.625C244.211 150.432 244.477 150.336 244.82 150.336C245.164 150.336 245.43 150.432 245.617 150.625C245.805 150.818 245.898 151.06 245.898 151.352C245.898 151.638 245.805 151.878 245.617 152.07C245.43 152.258 245.164 152.352 244.82 152.352C244.477 152.352 244.211 152.258 244.023 152.07C243.841 151.878 243.75 151.638 243.75 151.352ZM251.312 160.641C251.786 160.641 252.18 160.503 252.492 160.227C252.805 159.951 252.971 159.609 252.992 159.203H254.781C254.76 159.729 254.596 160.221 254.289 160.68C253.982 161.133 253.565 161.492 253.039 161.758C252.513 162.023 251.945 162.156 251.336 162.156C250.154 162.156 249.216 161.773 248.523 161.008C247.831 160.242 247.484 159.185 247.484 157.836V157.641C247.484 156.354 247.828 155.326 248.516 154.555C249.203 153.779 250.141 153.391 251.328 153.391C252.333 153.391 253.151 153.685 253.781 154.273C254.417 154.857 254.75 155.625 254.781 156.578H252.992C252.971 156.094 252.805 155.695 252.492 155.383C252.185 155.07 251.792 154.914 251.312 154.914C250.698 154.914 250.224 155.138 249.891 155.586C249.557 156.029 249.388 156.703 249.383 157.609V157.914C249.383 158.831 249.547 159.516 249.875 159.969C250.208 160.417 250.688 160.641 251.312 160.641ZM262.945 150.625L266.227 159.344L269.5 150.625H272.055V162H270.086V158.25L270.281 153.234L266.922 162H265.508L262.156 153.242L262.352 158.25V162H260.383V150.625H262.945ZM277.938 162.156C276.734 162.156 275.758 161.779 275.008 161.023C274.263 160.263 273.891 159.253 273.891 157.992V157.758C273.891 156.914 274.052 156.161 274.375 155.5C274.703 154.833 275.161 154.315 275.75 153.945C276.339 153.576 276.995 153.391 277.719 153.391C278.87 153.391 279.758 153.758 280.383 154.492C281.013 155.227 281.328 156.266 281.328 157.609V158.375H275.805C275.862 159.073 276.094 159.625 276.5 160.031C276.911 160.438 277.427 160.641 278.047 160.641C278.917 160.641 279.625 160.289 280.172 159.586L281.195 160.562C280.857 161.068 280.404 161.461 279.836 161.742C279.273 162.018 278.641 162.156 277.938 162.156ZM277.711 154.914C277.19 154.914 276.768 155.096 276.445 155.461C276.128 155.826 275.924 156.333 275.836 156.984H279.453V156.844C279.411 156.208 279.242 155.729 278.945 155.406C278.648 155.078 278.237 154.914 277.711 154.914ZM287.859 162C287.776 161.839 287.703 161.576 287.641 161.211C287.036 161.841 286.297 162.156 285.422 162.156C284.573 162.156 283.88 161.914 283.344 161.43C282.807 160.945 282.539 160.346 282.539 159.633C282.539 158.732 282.872 158.042 283.539 157.562C284.211 157.078 285.169 156.836 286.414 156.836H287.578V156.281C287.578 155.844 287.456 155.495 287.211 155.234C286.966 154.969 286.594 154.836 286.094 154.836C285.661 154.836 285.307 154.945 285.031 155.164C284.755 155.378 284.617 155.651 284.617 155.984H282.719C282.719 155.521 282.872 155.089 283.18 154.688C283.487 154.281 283.904 153.964 284.43 153.734C284.961 153.505 285.552 153.391 286.203 153.391C287.193 153.391 287.982 153.641 288.57 154.141C289.159 154.635 289.461 155.333 289.477 156.234V160.047C289.477 160.807 289.583 161.414 289.797 161.867V162H287.859ZM285.773 160.633C286.148 160.633 286.5 160.542 286.828 160.359C287.161 160.177 287.411 159.932 287.578 159.625V158.031H286.555C285.852 158.031 285.323 158.154 284.969 158.398C284.615 158.643 284.438 158.99 284.438 159.438C284.438 159.802 284.557 160.094 284.797 160.312C285.042 160.526 285.367 160.633 285.773 160.633ZM293.484 162H291.586V150H293.484V162ZM306.094 159.352H301.688L300.766 162H298.711L303.008 150.625H304.781L309.086 162H307.023L306.094 159.352ZM302.242 157.758H305.539L303.891 153.039L302.242 157.758ZM314.938 159.703C314.938 159.365 314.797 159.107 314.516 158.93C314.24 158.753 313.779 158.596 313.133 158.461C312.487 158.326 311.948 158.154 311.516 157.945C310.568 157.487 310.094 156.823 310.094 155.953C310.094 155.224 310.401 154.615 311.016 154.125C311.63 153.635 312.411 153.391 313.359 153.391C314.37 153.391 315.185 153.641 315.805 154.141C316.43 154.641 316.742 155.289 316.742 156.086H314.844C314.844 155.721 314.708 155.419 314.438 155.18C314.167 154.935 313.807 154.812 313.359 154.812C312.943 154.812 312.602 154.909 312.336 155.102C312.076 155.294 311.945 155.552 311.945 155.875C311.945 156.167 312.068 156.393 312.312 156.555C312.557 156.716 313.052 156.88 313.797 157.047C314.542 157.208 315.125 157.404 315.547 157.633C315.974 157.857 316.289 158.128 316.492 158.445C316.701 158.763 316.805 159.148 316.805 159.602C316.805 160.362 316.49 160.979 315.859 161.453C315.229 161.922 314.404 162.156 313.383 162.156C312.69 162.156 312.073 162.031 311.531 161.781C310.99 161.531 310.568 161.188 310.266 160.75C309.964 160.312 309.812 159.841 309.812 159.336H311.656C311.682 159.784 311.852 160.13 312.164 160.375C312.477 160.615 312.891 160.734 313.406 160.734C313.906 160.734 314.286 160.641 314.547 160.453C314.807 160.26 314.938 160.01 314.938 159.703ZM323.203 159.703C323.203 159.365 323.062 159.107 322.781 158.93C322.505 158.753 322.044 158.596 321.398 158.461C320.753 158.326 320.214 158.154 319.781 157.945C318.833 157.487 318.359 156.823 318.359 155.953C318.359 155.224 318.667 154.615 319.281 154.125C319.896 153.635 320.677 153.391 321.625 153.391C322.635 153.391 323.451 153.641 324.07 154.141C324.695 154.641 325.008 155.289 325.008 156.086H323.109C323.109 155.721 322.974 155.419 322.703 155.18C322.432 154.935 322.073 154.812 321.625 154.812C321.208 154.812 320.867 154.909 320.602 155.102C320.341 155.294 320.211 155.552 320.211 155.875C320.211 156.167 320.333 156.393 320.578 156.555C320.823 156.716 321.318 156.88 322.062 157.047C322.807 157.208 323.391 157.404 323.812 157.633C324.24 157.857 324.555 158.128 324.758 158.445C324.966 158.763 325.07 159.148 325.07 159.602C325.07 160.362 324.755 160.979 324.125 161.453C323.495 161.922 322.669 162.156 321.648 162.156C320.956 162.156 320.339 162.031 319.797 161.781C319.255 161.531 318.833 161.188 318.531 160.75C318.229 160.312 318.078 159.841 318.078 159.336H319.922C319.948 159.784 320.117 160.13 320.43 160.375C320.742 160.615 321.156 160.734 321.672 160.734C322.172 160.734 322.552 160.641 322.812 160.453C323.073 160.26 323.203 160.01 323.203 159.703ZM328.75 162H326.852V153.547H328.75V162ZM326.734 151.352C326.734 151.06 326.826 150.818 327.008 150.625C327.195 150.432 327.461 150.336 327.805 150.336C328.148 150.336 328.414 150.432 328.602 150.625C328.789 150.818 328.883 151.06 328.883 151.352C328.883 151.638 328.789 151.878 328.602 152.07C328.414 152.258 328.148 152.352 327.805 152.352C327.461 152.352 327.195 152.258 327.008 152.07C326.826 151.878 326.734 151.638 326.734 151.352ZM335.562 159.703C335.562 159.365 335.422 159.107 335.141 158.93C334.865 158.753 334.404 158.596 333.758 158.461C333.112 158.326 332.573 158.154 332.141 157.945C331.193 157.487 330.719 156.823 330.719 155.953C330.719 155.224 331.026 154.615 331.641 154.125C332.255 153.635 333.036 153.391 333.984 153.391C334.995 153.391 335.81 153.641 336.43 154.141C337.055 154.641 337.367 155.289 337.367 156.086H335.469C335.469 155.721 335.333 155.419 335.062 155.18C334.792 154.935 334.432 154.812 333.984 154.812C333.568 154.812 333.227 154.909 332.961 155.102C332.701 155.294 332.57 155.552 332.57 155.875C332.57 156.167 332.693 156.393 332.938 156.555C333.182 156.716 333.677 156.88 334.422 157.047C335.167 157.208 335.75 157.404 336.172 157.633C336.599 157.857 336.914 158.128 337.117 158.445C337.326 158.763 337.43 159.148 337.43 159.602C337.43 160.362 337.115 160.979 336.484 161.453C335.854 161.922 335.029 162.156 334.008 162.156C333.315 162.156 332.698 162.031 332.156 161.781C331.615 161.531 331.193 161.188 330.891 160.75C330.589 160.312 330.438 159.841 330.438 159.336H332.281C332.307 159.784 332.477 160.13 332.789 160.375C333.102 160.615 333.516 160.734 334.031 160.734C334.531 160.734 334.911 160.641 335.172 160.453C335.432 160.26 335.562 160.01 335.562 159.703ZM341.469 151.492V153.547H342.961V154.953H341.469V159.672C341.469 159.995 341.531 160.229 341.656 160.375C341.786 160.516 342.016 160.586 342.344 160.586C342.562 160.586 342.784 160.56 343.008 160.508V161.977C342.576 162.096 342.159 162.156 341.758 162.156C340.299 162.156 339.57 161.352 339.57 159.742V154.953H338.18V153.547H339.57V151.492H341.469ZM349.469 162C349.385 161.839 349.312 161.576 349.25 161.211C348.646 161.841 347.906 162.156 347.031 162.156C346.182 162.156 345.49 161.914 344.953 161.43C344.417 160.945 344.148 160.346 344.148 159.633C344.148 158.732 344.482 158.042 345.148 157.562C345.82 157.078 346.779 156.836 348.023 156.836H349.188V156.281C349.188 155.844 349.065 155.495 348.82 155.234C348.576 154.969 348.203 154.836 347.703 154.836C347.271 154.836 346.917 154.945 346.641 155.164C346.365 155.378 346.227 155.651 346.227 155.984H344.328C344.328 155.521 344.482 155.089 344.789 154.688C345.096 154.281 345.513 153.964 346.039 153.734C346.57 153.505 347.161 153.391 347.812 153.391C348.802 153.391 349.591 153.641 350.18 154.141C350.768 154.635 351.07 155.333 351.086 156.234V160.047C351.086 160.807 351.193 161.414 351.406 161.867V162H349.469ZM347.383 160.633C347.758 160.633 348.109 160.542 348.438 160.359C348.771 160.177 349.021 159.932 349.188 159.625V158.031H348.164C347.461 158.031 346.932 158.154 346.578 158.398C346.224 158.643 346.047 158.99 346.047 159.438C346.047 159.802 346.167 160.094 346.406 160.312C346.651 160.526 346.977 160.633 347.383 160.633ZM354.836 153.547L354.891 154.523C355.516 153.768 356.336 153.391 357.352 153.391C359.112 153.391 360.008 154.398 360.039 156.414V162H358.141V156.523C358.141 155.987 358.023 155.591 357.789 155.336C357.56 155.076 357.182 154.945 356.656 154.945C355.891 154.945 355.32 155.292 354.945 155.984V162H353.047V153.547H354.836ZM364.359 151.492V153.547H365.852V154.953H364.359V159.672C364.359 159.995 364.422 160.229 364.547 160.375C364.677 160.516 364.906 160.586 365.234 160.586C365.453 160.586 365.674 160.56 365.898 160.508V161.977C365.466 162.096 365.049 162.156 364.648 162.156C363.19 162.156 362.461 161.352 362.461 159.742V154.953H361.07V153.547H362.461V151.492H364.359Z" fill="#393E46"/>
</g>
<g clip-path="url(#clip2_147_905)">
<g filter="url(#filter0_d_147_905)">
<path fill-rule="evenodd" clip-rule="evenodd" d="M263 209H397C405.837 209 413 216.163 413 225V469H263V209Z" fill="#F99A6E"/>
</g>
<mask id="mask1_147_905" style="mask-type:alpha" maskUnits="userSpaceOnUse" x="263" y="209" width="150" height="260">
<path fill-rule="evenodd" clip-rule="evenodd" d="M263 209H397C405.837 209 413 216.163 413 225V469H263V209Z" fill="white"/>
</mask>
<g mask="url(#mask1_147_905)">
<path d="M313.829 342.032C313.829 341.505 313.641 341.095 313.265 340.801C312.896 340.507 312.243 340.203 311.306 339.889C310.37 339.574 309.604 339.27 309.009 338.976C307.075 338.026 306.107 336.72 306.107 335.059C306.107 334.232 306.347 333.504 306.825 332.875C307.311 332.239 307.994 331.747 308.876 331.398C309.758 331.043 310.749 330.865 311.85 330.865C312.923 330.865 313.883 331.057 314.731 331.439C315.585 331.822 316.249 332.369 316.72 333.08C317.192 333.784 317.428 334.591 317.428 335.5H313.839C313.839 334.892 313.651 334.42 313.275 334.085C312.906 333.75 312.403 333.583 311.768 333.583C311.125 333.583 310.616 333.726 310.24 334.013C309.871 334.293 309.686 334.652 309.686 335.09C309.686 335.473 309.891 335.821 310.301 336.136C310.711 336.443 311.433 336.765 312.465 337.1C313.497 337.428 314.345 337.783 315.008 338.166C316.621 339.096 317.428 340.377 317.428 342.011C317.428 343.317 316.936 344.342 315.951 345.087C314.967 345.833 313.617 346.205 311.901 346.205C310.691 346.205 309.594 345.99 308.609 345.559C307.632 345.122 306.894 344.527 306.395 343.775C305.902 343.016 305.656 342.145 305.656 341.16H309.266C309.266 341.96 309.471 342.551 309.881 342.934C310.298 343.31 310.971 343.498 311.901 343.498C312.496 343.498 312.964 343.372 313.306 343.119C313.654 342.859 313.829 342.497 313.829 342.032ZM325.364 346C325.241 345.774 325.132 345.443 325.036 345.005C324.4 345.805 323.512 346.205 322.37 346.205C321.324 346.205 320.436 345.891 319.704 345.262C318.973 344.626 318.607 343.83 318.607 342.873C318.607 341.669 319.051 340.76 319.94 340.145C320.829 339.53 322.121 339.222 323.816 339.222H324.882V338.638C324.882 337.619 324.441 337.11 323.56 337.11C322.739 337.11 322.329 337.513 322.329 338.32H318.874C318.874 337.247 319.328 336.375 320.237 335.705C321.153 335.035 322.319 334.7 323.734 334.7C325.149 334.7 326.267 335.045 327.087 335.736C327.907 336.426 328.328 337.373 328.348 338.576V343.488C328.362 344.506 328.519 345.286 328.82 345.826V346H325.364ZM323.201 343.744C323.631 343.744 323.987 343.652 324.267 343.467C324.554 343.283 324.759 343.074 324.882 342.842V341.068H323.877C322.674 341.068 322.073 341.608 322.073 342.688C322.073 343.002 322.179 343.259 322.391 343.457C322.603 343.648 322.873 343.744 323.201 343.744ZM334.531 341.888L336.285 334.905H339.925L336.305 346H332.778L329.158 334.905H332.809L334.531 341.888ZM346.18 346.205C344.478 346.205 343.1 345.699 342.047 344.688C340.995 343.669 340.468 342.346 340.468 340.719V340.432C340.468 339.297 340.677 338.296 341.094 337.428C341.518 336.56 342.133 335.89 342.939 335.418C343.746 334.939 344.703 334.7 345.811 334.7C347.369 334.7 348.6 335.186 349.502 336.156C350.404 337.12 350.855 338.467 350.855 340.196V341.54H343.985C344.108 342.162 344.378 342.65 344.795 343.006C345.212 343.361 345.752 343.539 346.416 343.539C347.509 343.539 348.364 343.156 348.979 342.391L350.558 344.257C350.127 344.852 349.516 345.327 348.723 345.682C347.937 346.031 347.089 346.205 346.18 346.205ZM345.79 337.366C344.778 337.366 344.177 338.036 343.985 339.376H347.472V339.109C347.485 338.556 347.345 338.128 347.051 337.828C346.757 337.52 346.337 337.366 345.79 337.366ZM351.819 340.371C351.819 338.614 352.199 337.229 352.958 336.218C353.716 335.206 354.776 334.7 356.136 334.7C357.127 334.7 357.961 335.09 358.638 335.869V330.25H362.104V346H358.997L358.823 344.811C358.112 345.74 357.209 346.205 356.116 346.205C354.796 346.205 353.75 345.699 352.978 344.688C352.206 343.676 351.819 342.237 351.819 340.371ZM355.275 340.586C355.275 342.555 355.849 343.539 356.998 343.539C357.763 343.539 358.31 343.218 358.638 342.575V338.351C358.324 337.694 357.784 337.366 357.018 337.366C355.952 337.366 355.374 338.228 355.285 339.95L355.275 340.586Z" fill="white"/>
<mask id="mask2_147_905" style="mask-type:alpha" maskUnits="userSpaceOnUse" x="278" y="209" width="135" height="120">
<path d="M413 329H278V209H397C405.837 209 413 216.163 413 225V329Z" fill="white"/>
</mask>
<g mask="url(#mask2_147_905)">
<mask id="mask3_147_905" style="mask-type:alpha" maskUnits="userSpaceOnUse" x="278" y="-3" width="325" height="350">
<path fill-rule="evenodd" clip-rule="evenodd" d="M440.5 -2.07147C350.754 -2.07147 278 75.879 278 172.036C278 268.192 350.754 346.143 440.5 346.143C530.246 346.143 603 268.192 603 172.036C603 75.879 530.246 -2.07147 440.5 -2.07147Z" fill="white"/>
</mask>
<g mask="url(#mask3_147_905)">
<path fill-rule="evenodd" clip-rule="evenodd" d="M440 10.7858C357.157 10.7858 290 82.74 290 171.5C290 260.26 357.157 332.214 440 332.214C522.843 332.214 590 260.26 590 171.5C590 82.74 522.843 10.7858 440 10.7858Z" fill="white" stroke="#F99A6E" stroke-width="5"/>
<path fill-rule="evenodd" clip-rule="evenodd" d="M439.5 23.6428C363.561 23.6428 302 89.6008 302 170.964C302 252.328 363.561 318.286 439.5 318.286C515.439 318.286 577 252.328 577 170.964C577 89.6008 515.439 23.6428 439.5 23.6428Z" fill="white" stroke="#F99A6E" stroke-width="5"/>
<path fill-rule="evenodd" clip-rule="evenodd" d="M439 37.5713C369.964 37.5713 314 97.5332 314 171.5C314 245.467 369.964 305.428 439 305.428C508.036 305.428 564 245.467 564 171.5C564 97.5332 508.036 37.5713 439 37.5713Z" stroke="#F99A6E" stroke-width="5"/>
<path fill-rule="evenodd" clip-rule="evenodd" d="M437.5 50.4286C375.368 50.4286 325 104.394 325 170.964C325 237.534 375.368 291.5 437.5 291.5C499.632 291.5 550 237.534 550 170.964C550 104.394 499.632 50.4286 437.5 50.4286Z" stroke="#F99A6E" stroke-width="5"/>
<path fill-rule="evenodd" clip-rule="evenodd" d="M437.5 50.4286C375.368 50.4286 325 104.394 325 170.964C325 237.534 375.368 291.5 437.5 291.5C499.632 291.5 550 237.534 550 170.964C550 104.394 499.632 50.4286 437.5 50.4286Z" stroke="#F99A6E" stroke-width="5"/>
<path fill-rule="evenodd" clip-rule="evenodd" d="M437 64.3571C381.772 64.3571 337 112.327 337 171.5C337 230.673 381.772 278.643 437 278.643C492.228 278.643 537 230.673 537 171.5C537 112.327 492.228 64.3571 437 64.3571Z" stroke="#F99A6E" stroke-width="5"/>
<path fill-rule="evenodd" clip-rule="evenodd" d="M437.5 77.2144C389.175 77.2144 350 119.188 350 170.964C350 222.741 389.175 264.714 437.5 264.714C485.825 264.714 525 222.741 525 170.964C525 119.188 485.825 77.2144 437.5 77.2144Z" stroke="#F99A6E" stroke-width="5"/>
<path fill-rule="evenodd" clip-rule="evenodd" d="M437 91.1429C395.579 91.1429 362 127.12 362 171.5C362 215.88 395.579 251.857 437 251.857C478.421 251.857 512 215.88 512 171.5C512 127.12 478.421 91.1429 437 91.1429Z" stroke="#F99A6E" stroke-width="5"/>
<path fill-rule="evenodd" clip-rule="evenodd" d="M437.5 104C402.982 104 375 133.981 375 170.964C375 207.948 402.982 237.928 437.5 237.928C472.018 237.928 500 207.948 500 170.964C500 133.981 472.018 104 437.5 104Z" stroke="#F99A6E" stroke-width="5"/>
<path fill-rule="evenodd" clip-rule="evenodd" d="M437 117.928C409.386 117.928 387 141.913 387 171.5C387 201.087 409.386 225.071 437 225.071C464.614 225.071 487 201.087 487 171.5C487 141.913 464.614 117.928 437 117.928Z" stroke="#F99A6E" stroke-width="5"/>
<path fill-rule="evenodd" clip-rule="evenodd" d="M437.5 131.857C416.789 131.857 400 149.846 400 172.036C400 194.226 416.789 212.214 437.5 212.214C458.211 212.214 475 194.226 475 172.036C475 149.846 458.211 131.857 437.5 131.857Z" stroke="#F99A6E" stroke-width="5"/>
</g>
</g>
</g>
</g>
<g clip-path="url(#clip3_147_905)">
<g filter="url(#filter1_d_147_905)">
<path fill-rule="evenodd" clip-rule="evenodd" d="M101 225C101 216.163 108.163 209 117 209H251V469H101V225Z" fill="#2B3C94"/>
</g>
<mask id="mask4_147_905" style="mask-type:alpha" maskUnits="userSpaceOnUse" x="101" y="209" width="150" height="260">
<path fill-rule="evenodd" clip-rule="evenodd" d="M101 225C101 216.163 108.163 209 117 209H251V469H101V225Z" fill="white"/>
</mask>
<g mask="url(#mask4_147_905)">
<path fill-rule="evenodd" clip-rule="evenodd" d="M187.5 338C188.881 338 190 336.881 190 335.5C190 334.119 188.881 333 187.5 333C186.119 333 185 334.119 185 335.5C185 336.881 186.119 338 187.5 338Z" fill="white"/>
<path fill-rule="evenodd" clip-rule="evenodd" d="M178.5 338C179.881 338 181 336.881 181 335.5C181 334.119 179.881 333 178.5 333C177.119 333 176 334.119 176 335.5C176 336.881 177.119 338 178.5 338Z" fill="white"/>
<path fill-rule="evenodd" clip-rule="evenodd" d="M169.5 338C170.881 338 172 336.881 172 335.5C172 334.119 170.881 333 169.5 333C168.119 333 167 334.119 167 335.5C167 336.881 168.119 338 169.5 338Z" fill="white"/>
<path fill-rule="evenodd" clip-rule="evenodd" d="M160.5 338C161.881 338 163 336.881 163 335.5C163 334.119 161.881 333 160.5 333C159.119 333 158 334.119 158 335.5C158 336.881 159.119 338 160.5 338Z" fill="white"/>
<path fill-rule="evenodd" clip-rule="evenodd" d="M151.5 338C152.881 338 154 336.881 154 335.5C154 334.119 152.881 333 151.5 333C150.119 333 149 334.119 149 335.5C149 336.881 150.119 338 151.5 338Z" fill="white"/>
<path fill-rule="evenodd" clip-rule="evenodd" d="M142.5 338C143.881 338 145 336.881 145 335.5C145 334.119 143.881 333 142.5 333C141.119 333 140 334.119 140 335.5C140 336.881 141.119 338 142.5 338Z" fill="white"/>
<path fill-rule="evenodd" clip-rule="evenodd" d="M133.5 338C134.881 338 136 336.881 136 335.5C136 334.119 134.881 333 133.5 333C132.119 333 131 334.119 131 335.5C131 336.881 132.119 338 133.5 338Z" fill="white"/>
<path fill-rule="evenodd" clip-rule="evenodd" d="M124.5 338C125.881 338 127 336.881 127 335.5C127 334.119 125.881 333 124.5 333C123.119 333 122 334.119 122 335.5C122 336.881 123.119 338 124.5 338Z" fill="white"/>
<path fill-rule="evenodd" clip-rule="evenodd" d="M115.5 338C116.881 338 118 336.881 118 335.5C118 334.119 116.881 333 115.5 333C114.119 333 113 334.119 113 335.5C113 336.881 114.119 338 115.5 338Z" fill="white"/>
<path fill-rule="evenodd" clip-rule="evenodd" d="M187.5 328C188.881 328 190 326.881 190 325.5C190 324.119 188.881 323 187.5 323C186.119 323 185 324.119 185 325.5C185 326.881 186.119 328 187.5 328Z" fill="white"/>
<path fill-rule="evenodd" clip-rule="evenodd" d="M178.5 328C179.881 328 181 326.881 181 325.5C181 324.119 179.881 323 178.5 323C177.119 323 176 324.119 176 325.5C176 326.881 177.119 328 178.5 328Z" fill="white"/>
<path fill-rule="evenodd" clip-rule="evenodd" d="M169.5 328C170.881 328 172 326.881 172 325.5C172 324.119 170.881 323 169.5 323C168.119 323 167 324.119 167 325.5C167 326.881 168.119 328 169.5 328Z" fill="white"/>
<path fill-rule="evenodd" clip-rule="evenodd" d="M160.5 328C161.881 328 163 326.881 163 325.5C163 324.119 161.881 323 160.5 323C159.119 323 158 324.119 158 325.5C158 326.881 159.119 328 160.5 328Z" fill="white"/>
<path fill-rule="evenodd" clip-rule="evenodd" d="M151.5 328C152.881 328 154 326.881 154 325.5C154 324.119 152.881 323 151.5 323C150.119 323 149 324.119 149 325.5C149 326.881 150.119 328 151.5 328Z" fill="white"/>
<path fill-rule="evenodd" clip-rule="evenodd" d="M142.5 328C143.881 328 145 326.881 145 325.5C145 324.119 143.881 323 142.5 323C141.119 323 140 324.119 140 325.5C140 326.881 141.119 328 142.5 328Z" fill="white"/>
<path fill-rule="evenodd" clip-rule="evenodd" d="M133.5 328C134.881 328 136 326.881 136 325.5C136 324.119 134.881 323 133.5 323C132.119 323 131 324.119 131 325.5C131 326.881 132.119 328 133.5 328Z" fill="white"/>
<path fill-rule="evenodd" clip-rule="evenodd" d="M124.5 328C125.881 328 127 326.881 127 325.5C127 324.119 125.881 323 124.5 323C123.119 323 122 324.119 122 325.5C122 326.881 123.119 328 124.5 328Z" fill="white"/>
<path fill-rule="evenodd" clip-rule="evenodd" d="M115.5 328C116.881 328 118 326.881 118 325.5C118 324.119 116.881 323 115.5 323C114.119 323 113 324.119 113 325.5C113 326.881 114.119 328 115.5 328Z" fill="white"/>
<path fill-rule="evenodd" clip-rule="evenodd" d="M187.5 319C188.881 319 190 317.881 190 316.5C190 315.119 188.881 314 187.5 314C186.119 314 185 315.119 185 316.5C185 317.881 186.119 319 187.5 319Z" fill="white"/>
<path fill-rule="evenodd" clip-rule="evenodd" d="M178.5 319C179.881 319 181 317.881 181 316.5C181 315.119 179.881 314 178.5 314C177.119 314 176 315.119 176 316.5C176 317.881 177.119 319 178.5 319Z" fill="white"/>
<path fill-rule="evenodd" clip-rule="evenodd" d="M169.5 319C170.881 319 172 317.881 172 316.5C172 315.119 170.881 314 169.5 314C168.119 314 167 315.119 167 316.5C167 317.881 168.119 319 169.5 319Z" fill="white"/>
<path fill-rule="evenodd" clip-rule="evenodd" d="M160.5 319C161.881 319 163 317.881 163 316.5C163 315.119 161.881 314 160.5 314C159.119 314 158 315.119 158 316.5C158 317.881 159.119 319 160.5 319Z" fill="white"/>
<path fill-rule="evenodd" clip-rule="evenodd" d="M151.5 319C152.881 319 154 317.881 154 316.5C154 315.119 152.881 314 151.5 314C150.119 314 149 315.119 149 316.5C149 317.881 150.119 319 151.5 319Z" fill="white"/>
<path fill-rule="evenodd" clip-rule="evenodd" d="M142.5 319C143.881 319 145 317.881 145 316.5C145 315.119 143.881 314 142.5 314C141.119 314 140 315.119 140 316.5C140 317.881 141.119 319 142.5 319Z" fill="white"/>
<path fill-rule="evenodd" clip-rule="evenodd" d="M133.5 319C134.881 319 136 317.881 136 316.5C136 315.119 134.881 314 133.5 314C132.119 314 131 315.119 131 316.5C131 317.881 132.119 319 133.5 319Z" fill="white"/>
<path fill-rule="evenodd" clip-rule="evenodd" d="M124.5 319C125.881 319 127 317.881 127 316.5C127 315.119 125.881 314 124.5 314C123.119 314 122 315.119 122 316.5C122 317.881 123.119 319 124.5 319Z" fill="white"/>
<path fill-rule="evenodd" clip-rule="evenodd" d="M115.5 319C116.881 319 118 317.881 118 316.5C118 315.119 116.881 314 115.5 314C114.119 314 113 315.119 113 316.5C113 317.881 114.119 319 115.5 319Z" fill="white"/>
<path fill-rule="evenodd" clip-rule="evenodd" d="M187.5 309C188.881 309 190 307.881 190 306.5C190 305.119 188.881 304 187.5 304C186.119 304 185 305.119 185 306.5C185 307.881 186.119 309 187.5 309Z" fill="white"/>
<path fill-rule="evenodd" clip-rule="evenodd" d="M178.5 309C179.881 309 181 307.881 181 306.5C181 305.119 179.881 304 178.5 304C177.119 304 176 305.119 176 306.5C176 307.881 177.119 309 178.5 309Z" fill="white"/>
<path fill-rule="evenodd" clip-rule="evenodd" d="M169.5 309C170.881 309 172 307.881 172 306.5C172 305.119 170.881 304 169.5 304C168.119 304 167 305.119 167 306.5C167 307.881 168.119 309 169.5 309Z" fill="white"/>
<path fill-rule="evenodd" clip-rule="evenodd" d="M160.5 309C161.881 309 163 307.881 163 306.5C163 305.119 161.881 304 160.5 304C159.119 304 158 305.119 158 306.5C158 307.881 159.119 309 160.5 309Z" fill="white"/>
<path fill-rule="evenodd" clip-rule="evenodd" d="M151.5 309C152.881 309 154 307.881 154 306.5C154 305.119 152.881 304 151.5 304C150.119 304 149 305.119 149 306.5C149 307.881 150.119 309 151.5 309Z" fill="white"/>
<path fill-rule="evenodd" clip-rule="evenodd" d="M142.5 309C143.881 309 145 307.881 145 306.5C145 305.119 143.881 304 142.5 304C141.119 304 140 305.119 140 306.5C140 307.881 141.119 309 142.5 309Z" fill="white"/>
<path fill-rule="evenodd" clip-rule="evenodd" d="M133.5 309C134.881 309 136 307.881 136 306.5C136 305.119 134.881 304 133.5 304C132.119 304 131 305.119 131 306.5C131 307.881 132.119 309 133.5 309Z" fill="white"/>
<path fill-rule="evenodd" clip-rule="evenodd" d="M124.5 309C125.881 309 127 307.881 127 306.5C127 305.119 125.881 304 124.5 304C123.119 304 122 305.119 122 306.5C122 307.881 123.119 309 124.5 309Z" fill="white"/>
<path fill-rule="evenodd" clip-rule="evenodd" d="M115.5 309C116.881 309 118 307.881 118 306.5C118 305.119 116.881 304 115.5 304C114.119 304 113 305.119 113 306.5C113 307.881 114.119 309 115.5 309Z" fill="white"/>
<path fill-rule="evenodd" clip-rule="evenodd" d="M187.5 300C188.881 300 190 298.881 190 297.5C190 296.119 188.881 295 187.5 295C186.119 295 185 296.119 185 297.5C185 298.881 186.119 300 187.5 300Z" fill="white"/>
<path fill-rule="evenodd" clip-rule="evenodd" d="M178.5 300C179.881 300 181 298.881 181 297.5C181 296.119 179.881 295 178.5 295C177.119 295 176 296.119 176 297.5C176 298.881 177.119 300 178.5 300Z" fill="white"/>
<path fill-rule="evenodd" clip-rule="evenodd" d="M169.5 300C170.881 300 172 298.881 172 297.5C172 296.119 170.881 295 169.5 295C168.119 295 167 296.119 167 297.5C167 298.881 168.119 300 169.5 300Z" fill="white"/>
<path fill-rule="evenodd" clip-rule="evenodd" d="M160.5 300C161.881 300 163 298.881 163 297.5C163 296.119 161.881 295 160.5 295C159.119 295 158 296.119 158 297.5C158 298.881 159.119 300 160.5 300Z" fill="white"/>
<path fill-rule="evenodd" clip-rule="evenodd" d="M151.5 300C152.881 300 154 298.881 154 297.5C154 296.119 152.881 295 151.5 295C150.119 295 149 296.119 149 297.5C149 298.881 150.119 300 151.5 300Z" fill="white"/>
<path fill-rule="evenodd" clip-rule="evenodd" d="M142.5 300C143.881 300 145 298.881 145 297.5C145 296.119 143.881 295 142.5 295C141.119 295 140 296.119 140 297.5C140 298.881 141.119 300 142.5 300Z" fill="white"/>
<path fill-rule="evenodd" clip-rule="evenodd" d="M133.5 300C134.881 300 136 298.881 136 297.5C136 296.119 134.881 295 133.5 295C132.119 295 131 296.119 131 297.5C131 298.881 132.119 300 133.5 300Z" fill="white"/>
<path fill-rule="evenodd" clip-rule="evenodd" d="M124.5 300C125.881 300 127 298.881 127 297.5C127 296.119 125.881 295 124.5 295C123.119 295 122 296.119 122 297.5C122 298.881 123.119 300 124.5 300Z" fill="white"/>
<path fill-rule="evenodd" clip-rule="evenodd" d="M115.5 300C116.881 300 118 298.881 118 297.5C118 296.119 116.881 295 115.5 295C114.119 295 113 296.119 113 297.5C113 298.881 114.119 300 115.5 300Z" fill="white"/>
<path fill-rule="evenodd" clip-rule="evenodd" d="M187.5 290C188.881 290 190 288.881 190 287.5C190 286.119 188.881 285 187.5 285C186.119 285 185 286.119 185 287.5C185 288.881 186.119 290 187.5 290Z" fill="white"/>
<path fill-rule="evenodd" clip-rule="evenodd" d="M178.5 290C179.881 290 181 288.881 181 287.5C181 286.119 179.881 285 178.5 285C177.119 285 176 286.119 176 287.5C176 288.881 177.119 290 178.5 290Z" fill="white"/>
<path fill-rule="evenodd" clip-rule="evenodd" d="M169.5 290C170.881 290 172 288.881 172 287.5C172 286.119 170.881 285 169.5 285C168.119 285 167 286.119 167 287.5C167 288.881 168.119 290 169.5 290Z" fill="white"/>
<path fill-rule="evenodd" clip-rule="evenodd" d="M160.5 290C161.881 290 163 288.881 163 287.5C163 286.119 161.881 285 160.5 285C159.119 285 158 286.119 158 287.5C158 288.881 159.119 290 160.5 290Z" fill="white"/>
<path fill-rule="evenodd" clip-rule="evenodd" d="M151.5 290C152.881 290 154 288.881 154 287.5C154 286.119 152.881 285 151.5 285C150.119 285 149 286.119 149 287.5C149 288.881 150.119 290 151.5 290Z" fill="white"/>
<path fill-rule="evenodd" clip-rule="evenodd" d="M142.5 290C143.881 290 145 288.881 145 287.5C145 286.119 143.881 285 142.5 285C141.119 285 140 286.119 140 287.5C140 288.881 141.119 290 142.5 290Z" fill="white"/>
<path fill-rule="evenodd" clip-rule="evenodd" d="M133.5 290C134.881 290 136 288.881 136 287.5C136 286.119 134.881 285 133.5 285C132.119 285 131 286.119 131 287.5C131 288.881 132.119 290 133.5 290Z" fill="white"/>
<path fill-rule="evenodd" clip-rule="evenodd" d="M124.5 290C125.881 290 127 288.881 127 287.5C127 286.119 125.881 285 124.5 285C123.119 285 122 286.119 122 287.5C122 288.881 123.119 290 124.5 290Z" fill="white"/>
<path fill-rule="evenodd" clip-rule="evenodd" d="M115.5 290C116.881 290 118 288.881 118 287.5C118 286.119 116.881 285 115.5 285C114.119 285 113 286.119 113 287.5C113 288.881 114.119 290 115.5 290Z" fill="white"/>
<path fill-rule="evenodd" clip-rule="evenodd" d="M187.5 280C188.881 280 190 278.881 190 277.5C190 276.119 188.881 275 187.5 275C186.119 275 185 276.119 185 277.5C185 278.881 186.119 280 187.5 280Z" fill="white"/>
<path fill-rule="evenodd" clip-rule="evenodd" d="M178.5 280C179.881 280 181 278.881 181 277.5C181 276.119 179.881 275 178.5 275C177.119 275 176 276.119 176 277.5C176 278.881 177.119 280 178.5 280Z" fill="white"/>
<path fill-rule="evenodd" clip-rule="evenodd" d="M169.5 280C170.881 280 172 278.881 172 277.5C172 276.119 170.881 275 169.5 275C168.119 275 167 276.119 167 277.5C167 278.881 168.119 280 169.5 280Z" fill="white"/>
<path fill-rule="evenodd" clip-rule="evenodd" d="M160.5 280C161.881 280 163 278.881 163 277.5C163 276.119 161.881 275 160.5 275C159.119 275 158 276.119 158 277.5C158 278.881 159.119 280 160.5 280Z" fill="white"/>
<path fill-rule="evenodd" clip-rule="evenodd" d="M151.5 280C152.881 280 154 278.881 154 277.5C154 276.119 152.881 275 151.5 275C150.119 275 149 276.119 149 277.5C149 278.881 150.119 280 151.5 280Z" fill="white"/>
<path fill-rule="evenodd" clip-rule="evenodd" d="M142.5 280C143.881 280 145 278.881 145 277.5C145 276.119 143.881 275 142.5 275C141.119 275 140 276.119 140 277.5C140 278.881 141.119 280 142.5 280Z" fill="white"/>
<path fill-rule="evenodd" clip-rule="evenodd" d="M133.5 280C134.881 280 136 278.881 136 277.5C136 276.119 134.881 275 133.5 275C132.119 275 131 276.119 131 277.5C131 278.881 132.119 280 133.5 280Z" fill="white"/>
<path fill-rule="evenodd" clip-rule="evenodd" d="M124.5 280C125.881 280 127 278.881 127 277.5C127 276.119 125.881 275 124.5 275C123.119 275 122 276.119 122 277.5C122 278.881 123.119 280 124.5 280Z" fill="white"/>
<path fill-rule="evenodd" clip-rule="evenodd" d="M115.5 280C116.881 280 118 278.881 118 277.5C118 276.119 116.881 275 115.5 275C114.119 275 113 276.119 113 277.5C113 278.881 114.119 280 115.5 280Z" fill="white"/>
<path fill-rule="evenodd" clip-rule="evenodd" d="M187.5 271C188.881 271 190 269.881 190 268.5C190 267.119 188.881 266 187.5 266C186.119 266 185 267.119 185 268.5C185 269.881 186.119 271 187.5 271Z" fill="white"/>
<path fill-rule="evenodd" clip-rule="evenodd" d="M178.5 271C179.881 271 181 269.881 181 268.5C181 267.119 179.881 266 178.5 266C177.119 266 176 267.119 176 268.5C176 269.881 177.119 271 178.5 271Z" fill="white"/>
<path fill-rule="evenodd" clip-rule="evenodd" d="M169.5 271C170.881 271 172 269.881 172 268.5C172 267.119 170.881 266 169.5 266C168.119 266 167 267.119 167 268.5C167 269.881 168.119 271 169.5 271Z" fill="white"/>
<path fill-rule="evenodd" clip-rule="evenodd" d="M160.5 271C161.881 271 163 269.881 163 268.5C163 267.119 161.881 266 160.5 266C159.119 266 158 267.119 158 268.5C158 269.881 159.119 271 160.5 271Z" fill="white"/>
<path fill-rule="evenodd" clip-rule="evenodd" d="M151.5 271C152.881 271 154 269.881 154 268.5C154 267.119 152.881 266 151.5 266C150.119 266 149 267.119 149 268.5C149 269.881 150.119 271 151.5 271Z" fill="white"/>
<path fill-rule="evenodd" clip-rule="evenodd" d="M142.5 271C143.881 271 145 269.881 145 268.5C145 267.119 143.881 266 142.5 266C141.119 266 140 267.119 140 268.5C140 269.881 141.119 271 142.5 271Z" fill="white"/>
<path fill-rule="evenodd" clip-rule="evenodd" d="M133.5 271C134.881 271 136 269.881 136 268.5C136 267.119 134.881 266 133.5 266C132.119 266 131 267.119 131 268.5C131 269.881 132.119 271 133.5 271Z" fill="white"/>
<path fill-rule="evenodd" clip-rule="evenodd" d="M124.5 271C125.881 271 127 269.881 127 268.5C127 267.119 125.881 266 124.5 266C123.119 266 122 267.119 122 268.5C122 269.881 123.119 271 124.5 271Z" fill="white"/>
<path fill-rule="evenodd" clip-rule="evenodd" d="M115.5 271C116.881 271 118 269.881 118 268.5C118 267.119 116.881 266 115.5 266C114.119 266 113 267.119 113 268.5C113 269.881 114.119 271 115.5 271Z" fill="white"/>
<path fill-rule="evenodd" clip-rule="evenodd" d="M187.5 261C188.881 261 190 259.881 190 258.5C190 257.119 188.881 256 187.5 256C186.119 256 185 257.119 185 258.5C185 259.881 186.119 261 187.5 261Z" fill="white"/>
<path fill-rule="evenodd" clip-rule="evenodd" d="M178.5 261C179.881 261 181 259.881 181 258.5C181 257.119 179.881 256 178.5 256C177.119 256 176 257.119 176 258.5C176 259.881 177.119 261 178.5 261Z" fill="white"/>
<path fill-rule="evenodd" clip-rule="evenodd" d="M169.5 261C170.881 261 172 259.881 172 258.5C172 257.119 170.881 256 169.5 256C168.119 256 167 257.119 167 258.5C167 259.881 168.119 261 169.5 261Z" fill="white"/>
<path fill-rule="evenodd" clip-rule="evenodd" d="M160.5 261C161.881 261 163 259.881 163 258.5C163 257.119 161.881 256 160.5 256C159.119 256 158 257.119 158 258.5C158 259.881 159.119 261 160.5 261Z" fill="white"/>
<path fill-rule="evenodd" clip-rule="evenodd" d="M151.5 261C152.881 261 154 259.881 154 258.5C154 257.119 152.881 256 151.5 256C150.119 256 149 257.119 149 258.5C149 259.881 150.119 261 151.5 261Z" fill="white"/>
<path fill-rule="evenodd" clip-rule="evenodd" d="M142.5 261C143.881 261 145 259.881 145 258.5C145 257.119 143.881 256 142.5 256C141.119 256 140 257.119 140 258.5C140 259.881 141.119 261 142.5 261Z" fill="white"/>
<path fill-rule="evenodd" clip-rule="evenodd" d="M133.5 261C134.881 261 136 259.881 136 258.5C136 257.119 134.881 256 133.5 256C132.119 256 131 257.119 131 258.5C131 259.881 132.119 261 133.5 261Z" fill="white"/>
<path fill-rule="evenodd" clip-rule="evenodd" d="M124.5 261C125.881 261 127 259.881 127 258.5C127 257.119 125.881 256 124.5 256C123.119 256 122 257.119 122 258.5C122 259.881 123.119 261 124.5 261Z" fill="white"/>
<path fill-rule="evenodd" clip-rule="evenodd" d="M115.5 261C116.881 261 118 259.881 118 258.5C118 257.119 116.881 256 115.5 256C114.119 256 113 257.119 113 258.5C113 259.881 114.119 261 115.5 261Z" fill="white"/>
<path fill-rule="evenodd" clip-rule="evenodd" d="M187.5 251C188.881 251 190 249.881 190 248.5C190 247.119 188.881 246 187.5 246C186.119 246 185 247.119 185 248.5C185 249.881 186.119 251 187.5 251Z" fill="white"/>
<path fill-rule="evenodd" clip-rule="evenodd" d="M178.5 251C179.881 251 181 249.881 181 248.5C181 247.119 179.881 246 178.5 246C177.119 246 176 247.119 176 248.5C176 249.881 177.119 251 178.5 251Z" fill="white"/>
<path fill-rule="evenodd" clip-rule="evenodd" d="M169.5 251C170.881 251 172 249.881 172 248.5C172 247.119 170.881 246 169.5 246C168.119 246 167 247.119 167 248.5C167 249.881 168.119 251 169.5 251Z" fill="white"/>
<path fill-rule="evenodd" clip-rule="evenodd" d="M160.5 251C161.881 251 163 249.881 163 248.5C163 247.119 161.881 246 160.5 246C159.119 246 158 247.119 158 248.5C158 249.881 159.119 251 160.5 251Z" fill="white"/>
<path fill-rule="evenodd" clip-rule="evenodd" d="M151.5 251C152.881 251 154 249.881 154 248.5C154 247.119 152.881 246 151.5 246C150.119 246 149 247.119 149 248.5C149 249.881 150.119 251 151.5 251Z" fill="white"/>
<path fill-rule="evenodd" clip-rule="evenodd" d="M142.5 251C143.881 251 145 249.881 145 248.5C145 247.119 143.881 246 142.5 246C141.119 246 140 247.119 140 248.5C140 249.881 141.119 251 142.5 251Z" fill="white"/>
<path fill-rule="evenodd" clip-rule="evenodd" d="M133.5 251C134.881 251 136 249.881 136 248.5C136 247.119 134.881 246 133.5 246C132.119 246 131 247.119 131 248.5C131 249.881 132.119 251 133.5 251Z" fill="white"/>
<path fill-rule="evenodd" clip-rule="evenodd" d="M124.5 251C125.881 251 127 249.881 127 248.5C127 247.119 125.881 246 124.5 246C123.119 246 122 247.119 122 248.5C122 249.881 123.119 251 124.5 251Z" fill="white"/>
<path fill-rule="evenodd" clip-rule="evenodd" d="M115.5 251C116.881 251 118 249.881 118 248.5C118 247.119 116.881 246 115.5 246C114.119 246 113 247.119 113 248.5C113 249.881 114.119 251 115.5 251Z" fill="white"/>
<path fill-rule="evenodd" clip-rule="evenodd" d="M187.5 242C188.881 242 190 240.881 190 239.5C190 238.119 188.881 237 187.5 237C186.119 237 185 238.119 185 239.5C185 240.881 186.119 242 187.5 242Z" fill="white"/>
<path fill-rule="evenodd" clip-rule="evenodd" d="M178.5 242C179.881 242 181 240.881 181 239.5C181 238.119 179.881 237 178.5 237C177.119 237 176 238.119 176 239.5C176 240.881 177.119 242 178.5 242Z" fill="white"/>
<path fill-rule="evenodd" clip-rule="evenodd" d="M169.5 242C170.881 242 172 240.881 172 239.5C172 238.119 170.881 237 169.5 237C168.119 237 167 238.119 167 239.5C167 240.881 168.119 242 169.5 242Z" fill="white"/>
<path fill-rule="evenodd" clip-rule="evenodd" d="M160.5 242C161.881 242 163 240.881 163 239.5C163 238.119 161.881 237 160.5 237C159.119 237 158 238.119 158 239.5C158 240.881 159.119 242 160.5 242Z" fill="white"/>
<path fill-rule="evenodd" clip-rule="evenodd" d="M151.5 242C152.881 242 154 240.881 154 239.5C154 238.119 152.881 237 151.5 237C150.119 237 149 238.119 149 239.5C149 240.881 150.119 242 151.5 242Z" fill="white"/>
<path fill-rule="evenodd" clip-rule="evenodd" d="M142.5 242C143.881 242 145 240.881 145 239.5C145 238.119 143.881 237 142.5 237C141.119 237 140 238.119 140 239.5C140 240.881 141.119 242 142.5 242Z" fill="white"/>
<path fill-rule="evenodd" clip-rule="evenodd" d="M133.5 242C134.881 242 136 240.881 136 239.5C136 238.119 134.881 237 133.5 237C132.119 237 131 238.119 131 239.5C131 240.881 132.119 242 133.5 242Z" fill="white"/>
<path fill-rule="evenodd" clip-rule="evenodd" d="M124.5 242C125.881 242 127 240.881 127 239.5C127 238.119 125.881 237 124.5 237C123.119 237 122 238.119 122 239.5C122 240.881 123.119 242 124.5 242Z" fill="white"/>
<path fill-rule="evenodd" clip-rule="evenodd" d="M115.5 242C116.881 242 118 240.881 118 239.5C118 238.119 116.881 237 115.5 237C114.119 237 113 238.119 113 239.5C113 240.881 114.119 242 115.5 242Z" fill="white"/>
<path fill-rule="evenodd" clip-rule="evenodd" d="M187.5 232C188.881 232 190 230.881 190 229.5C190 228.119 188.881 227 187.5 227C186.119 227 185 228.119 185 229.5C185 230.881 186.119 232 187.5 232Z" fill="white"/>
<path fill-rule="evenodd" clip-rule="evenodd" d="M195.5 319C196.881 319 198 317.881 198 316.5C198 315.119 196.881 314 195.5 314C194.119 314 193 315.119 193 316.5C193 317.881 194.119 319 195.5 319Z" fill="white"/>
<path fill-rule="evenodd" clip-rule="evenodd" d="M195.5 309C196.881 309 198 307.881 198 306.5C198 305.119 196.881 304 195.5 304C194.119 304 193 305.119 193 306.5C193 307.881 194.119 309 195.5 309Z" fill="white"/>
<path fill-rule="evenodd" clip-rule="evenodd" d="M195.5 300C196.881 300 198 298.881 198 297.5C198 296.119 196.881 295 195.5 295C194.119 295 193 296.119 193 297.5C193 298.881 194.119 300 195.5 300Z" fill="white"/>
<path fill-rule="evenodd" clip-rule="evenodd" d="M195.5 290C196.881 290 198 288.881 198 287.5C198 286.119 196.881 285 195.5 285C194.119 285 193 286.119 193 287.5C193 288.881 194.119 290 195.5 290Z" fill="white"/>
<path fill-rule="evenodd" clip-rule="evenodd" d="M195.5 280C196.881 280 198 278.881 198 277.5C198 276.119 196.881 275 195.5 275C194.119 275 193 276.119 193 277.5C193 278.881 194.119 280 195.5 280Z" fill="white"/>
<path fill-rule="evenodd" clip-rule="evenodd" d="M195.5 271C196.881 271 198 269.881 198 268.5C198 267.119 196.881 266 195.5 266C194.119 266 193 267.119 193 268.5C193 269.881 194.119 271 195.5 271Z" fill="white"/>
<path fill-rule="evenodd" clip-rule="evenodd" d="M195.5 261C196.881 261 198 259.881 198 258.5C198 257.119 196.881 256 195.5 256C194.119 256 193 257.119 193 258.5C193 259.881 194.119 261 195.5 261Z" fill="white"/>
<path fill-rule="evenodd" clip-rule="evenodd" d="M195.5 251C196.881 251 198 249.881 198 248.5C198 247.119 196.881 246 195.5 246C194.119 246 193 247.119 193 248.5C193 249.881 194.119 251 195.5 251Z" fill="white"/>
<path fill-rule="evenodd" clip-rule="evenodd" d="M195.5 242C196.881 242 198 240.881 198 239.5C198 238.119 196.881 237 195.5 237C194.119 237 193 238.119 193 239.5C193 240.881 194.119 242 195.5 242Z" fill="white"/>
<path fill-rule="evenodd" clip-rule="evenodd" d="M195.5 232C196.881 232 198 230.881 198 229.5C198 228.119 196.881 227 195.5 227C194.119 227 193 228.119 193 229.5C193 230.881 194.119 232 195.5 232Z" fill="white"/>
<path fill-rule="evenodd" clip-rule="evenodd" d="M178.5 232C179.881 232 181 230.881 181 229.5C181 228.119 179.881 227 178.5 227C177.119 227 176 228.119 176 229.5C176 230.881 177.119 232 178.5 232Z" fill="white"/>
<path fill-rule="evenodd" clip-rule="evenodd" d="M169.5 232C170.881 232 172 230.881 172 229.5C172 228.119 170.881 227 169.5 227C168.119 227 167 228.119 167 229.5C167 230.881 168.119 232 169.5 232Z" fill="white"/>
<path fill-rule="evenodd" clip-rule="evenodd" d="M160.5 232C161.881 232 163 230.881 163 229.5C163 228.119 161.881 227 160.5 227C159.119 227 158 228.119 158 229.5C158 230.881 159.119 232 160.5 232Z" fill="white"/>
<path fill-rule="evenodd" clip-rule="evenodd" d="M151.5 232C152.881 232 154 230.881 154 229.5C154 228.119 152.881 227 151.5 227C150.119 227 149 228.119 149 229.5C149 230.881 150.119 232 151.5 232Z" fill="white"/>
<path fill-rule="evenodd" clip-rule="evenodd" d="M142.5 232C143.881 232 145 230.881 145 229.5C145 228.119 143.881 227 142.5 227C141.119 227 140 228.119 140 229.5C140 230.881 141.119 232 142.5 232Z" fill="white"/>
<path fill-rule="evenodd" clip-rule="evenodd" d="M133.5 232C134.881 232 136 230.881 136 229.5C136 228.119 134.881 227 133.5 227C132.119 227 131 228.119 131 229.5C131 230.881 132.119 232 133.5 232Z" fill="white"/>
<path fill-rule="evenodd" clip-rule="evenodd" d="M124.5 232C125.881 232 127 230.881 127 229.5C127 228.119 125.881 227 124.5 227C123.119 227 122 228.119 122 229.5C122 230.881 123.119 232 124.5 232Z" fill="white"/>
<path fill-rule="evenodd" clip-rule="evenodd" d="M115.5 232C116.881 232 118 230.881 118 229.5C118 228.119 116.881 227 115.5 227C114.119 227 113 228.119 113 229.5C113 230.881 114.119 232 115.5 232Z" fill="white"/>
<rect x="139" y="323" width="60" height="36" fill="#2B3C94"/>
<path d="M167.597 346H164.018L158.727 336.71V346H155.128V331.07H158.727L164.008 340.36V331.07H167.597V346ZM175.082 346.205C173.38 346.205 172.002 345.699 170.95 344.688C169.897 343.669 169.371 342.346 169.371 340.719V340.432C169.371 339.297 169.579 338.296 169.996 337.428C170.42 336.56 171.035 335.89 171.842 335.418C172.648 334.939 173.605 334.7 174.713 334.7C176.271 334.7 177.502 335.186 178.404 336.156C179.307 337.12 179.758 338.467 179.758 340.196V341.54H172.888C173.011 342.162 173.281 342.65 173.698 343.006C174.115 343.361 174.655 343.539 175.318 343.539C176.412 343.539 177.266 343.156 177.881 342.391L179.46 344.257C179.03 344.852 178.418 345.327 177.625 345.682C176.839 346.031 175.991 346.205 175.082 346.205ZM174.692 337.366C173.681 337.366 173.079 338.036 172.888 339.376H176.374V339.109C176.388 338.556 176.248 338.128 175.954 337.828C175.66 337.52 175.239 337.366 174.692 337.366ZM190.74 341.447L191.857 334.905H195.169L192.555 346H189.632L187.797 339.417L185.951 346H183.029L180.414 334.905H183.726L184.823 341.601L186.587 334.905H188.997L190.74 341.447Z" fill="white"/>
</g>
</g>
</g>
<rect x="68" y="12" width="377" height="326" stroke="black" stroke-miterlimit="0" stroke-linejoin="bevel"/>
<defs>
<filter id="filter0_d_147_905" x="257" y="203" width="162" height="272" filterUnits="userSpaceOnUse" color-interpolation-filters="sRGB">
<feFlood flood-opacity="0" result="BackgroundImageFix"/>
<feColorMatrix in="SourceAlpha" type="matrix" values="0 0 0 0 0 0 0 0 0 0 0 0 0 0 0 0 0 0 127 0" result="hardAlpha"/>
<feOffset/>
<feGaussianBlur stdDeviation="3"/>
<feColorMatrix type="matrix" values="0 0 0 0 0 0 0 0 0 0 0 0 0 0 0 0 0 0 0.2 0"/>
<feBlend mode="normal" in2="BackgroundImageFix" result="effect1_dropShadow_147_905"/>
<feBlend mode="normal" in="SourceGraphic" in2="effect1_dropShadow_147_905" result="shape"/>
</filter>
<filter id="filter1_d_147_905" x="95" y="203" width="162" height="272" filterUnits="userSpaceOnUse" color-interpolation-filters="sRGB">
<feFlood flood-opacity="0" result="BackgroundImageFix"/>
<feColorMatrix in="SourceAlpha" type="matrix" values="0 0 0 0 0 0 0 0 0 0 0 0 0 0 0 0 0 0 127 0" result="hardAlpha"/>
<feOffset/>
<feGaussianBlur stdDeviation="3"/>
<feColorMatrix type="matrix" values="0 0 0 0 0 0 0 0 0 0 0 0 0 0 0 0 0 0 0.2 0"/>
<feBlend mode="normal" in2="BackgroundImageFix" result="effect1_dropShadow_147_905"/>
<feBlend mode="normal" in="SourceGraphic" in2="effect1_dropShadow_147_905" result="shape"/>
</filter>
<clipPath id="clip0_147_905">
<rect x="68" y="12" width="377" height="326" fill="white"/>
</clipPath>
<clipPath id="clip1_147_905">
<rect width="49" height="14" fill="white" transform="translate(87.9883 22.498)"/>
</clipPath>
<clipPath id="clip2_147_905">
<rect width="150" height="260" fill="white" transform="translate(263 209)"/>
</clipPath>
<clipPath id="clip3_147_905">
<rect width="150" height="260" fill="white" transform="translate(101 209)"/>
</clipPath>
</defs>
</svg>
