<svg width="513" height="338" viewBox="0 0 513 338" fill="none" xmlns="http://www.w3.org/2000/svg">
<rect x="42" y="251" width="4" height="52" fill="black"/>
<path d="M1 214C1 210.134 4.13401 207 8 207H75.7678C78.1425 207 80.3553 208.204 81.6451 210.198L91.2857 225.1C92.8108 227.457 92.7798 230.498 91.2067 232.824L81.6716 246.922C80.3696 248.847 78.1972 250 75.8733 250H7.99999C4.134 250 1 246.866 1 243V214Z" fill="#D0FF0D" stroke="black" stroke-width="2"/>
<path d="M16.976 229.232C16.976 232.096 18.56 233.872 20.88 234.128C21.088 235.232 21.68 236.32 23.984 236.32C24.624 236.32 25.264 236.144 25.888 235.792V234.672C25.072 234.992 24.512 235.12 24.016 235.12C23.312 235.12 22.656 234.864 22.432 234.096C24.608 233.744 26.064 231.968 26.064 229.232V227.792C26.064 224.72 24.224 222.864 21.584 222.864H21.424C18.816 222.864 16.976 224.704 16.976 227.792V229.232ZM18.544 229.232V227.792C18.544 225.472 19.664 224.288 21.52 224.288C23.472 224.288 24.496 225.52 24.496 227.792V229.232C24.496 231.584 23.344 232.736 21.52 232.736C19.568 232.736 18.544 231.504 18.544 229.232ZM29.7989 225.824H28.2949V231.328C28.2949 233.232 29.5429 234.16 31.1109 234.16C32.3109 234.16 33.2229 233.632 33.7829 232.816C33.8149 233.568 34.1189 234.16 35.3669 234.16C35.7189 234.16 36.0549 234.048 36.3749 233.84V232.736C36.1349 232.88 35.8949 232.96 35.6549 232.96C35.4149 232.96 35.2069 232.8 35.2069 232.4V225.824H33.7029V230.688C33.7029 231.968 32.6629 232.96 31.5269 232.96C30.5029 232.96 29.7989 232.448 29.7989 231.056V225.824ZM41.4975 234.16H41.5775C43.8335 234.16 45.2895 232.64 45.2895 230.208V229.616C45.2895 227.152 43.8335 225.664 41.5615 225.664H41.4815C39.2255 225.664 37.7695 227.136 37.7695 229.616V230.208C37.7695 232.656 39.2255 234.16 41.4975 234.16ZM41.5295 232.96C40.0735 232.96 39.2735 231.904 39.2735 230.064V229.76C39.2735 227.84 40.1215 226.864 41.5295 226.864C42.9855 226.864 43.7855 227.92 43.7855 229.76V230.064C43.7855 231.984 42.9215 232.96 41.5295 232.96ZM51.133 225.664C49.853 225.664 49.085 226.384 48.749 227.04L48.525 225.824H47.453V234H48.957V229.12C48.957 227.744 49.565 226.864 50.669 226.864C51.693 226.864 52.173 227.456 52.173 228.48V228.832H53.501C53.533 228.624 53.549 228.432 53.549 228.224C53.549 226.816 52.717 225.664 51.133 225.664ZM56.7208 225.824H55.2168V231.328C55.2168 233.232 56.4648 234.16 58.0328 234.16C59.2328 234.16 60.1448 233.632 60.7048 232.816C60.7368 233.568 61.0408 234.16 62.2888 234.16C62.6408 234.16 62.9768 234.048 63.2968 233.84V232.736C63.0568 232.88 62.8168 232.96 62.5768 232.96C62.3368 232.96 62.1288 232.8 62.1288 232.4V225.824H60.6248V230.688C60.6248 231.968 59.5848 232.96 58.4488 232.96C57.4248 232.96 56.7208 232.448 56.7208 231.056V225.824ZM69.0594 225.664C67.9714 225.664 67.1074 226.112 66.4834 227.024L66.2754 225.824H65.1874V234H66.6914V229.136C66.6914 227.856 67.5714 226.864 68.6114 226.864C69.5874 226.864 70.0834 227.504 70.0834 228.768V234H71.5874V229.136C71.5874 227.856 72.4674 226.864 73.5074 226.864C74.4834 226.864 74.9794 227.504 74.9794 228.768V234H76.4834V228.496C76.4834 226.672 75.4754 225.664 73.8114 225.664C72.9794 225.664 72.0834 225.92 71.2994 227.024C70.8834 226.112 70.1314 225.664 69.0594 225.664Z" fill="black"/>
<rect x="283" y="62" width="4" height="28" fill="black"/>
<path d="M207 28C207 24.134 210.134 21 214 21H342.969C344.678 21 346.328 21.6249 347.607 22.757L348.27 22.008L347.607 22.757L364.412 37.6226C367.608 40.4495 367.553 45.4533 364.296 48.2093L347.591 62.3437C346.327 63.4132 344.725 64 343.07 64H214C210.134 64 207 60.866 207 57V28Z" fill="#D0FF0D" stroke="black" stroke-width="2"/>
<path d="M227.024 36.864C224.784 36.864 223.088 37.76 223.088 39.984C223.088 43.888 229.616 42.272 229.616 45.088C229.616 46.112 228.624 46.736 227.024 46.736C225.424 46.736 224.4 46.16 224.4 44.896C224.4 44.784 224.4 44.704 224.416 44.56H222.848C222.832 44.704 222.832 44.768 222.832 44.88C222.832 47.056 224.416 48.16 227.008 48.16C229.52 48.16 231.184 47.2 231.184 44.72C231.184 40.816 224.656 42.256 224.656 39.744C224.656 38.8 225.568 38.288 227.056 38.288C228.384 38.288 229.328 38.848 229.328 39.888V40.128H230.896V39.936C230.896 37.952 229.392 36.864 227.024 36.864ZM236.639 39.664H236.527C234.255 39.664 232.847 41.328 232.847 43.76V44.08C232.847 46.544 234.255 48.16 236.575 48.16H236.639C238.639 48.16 240.063 46.896 240.063 44.96H238.639C238.639 45.92 238.127 46.96 236.671 46.96C235.135 46.96 234.399 45.952 234.351 44.256H240.063V43.12C240.063 41.008 238.655 39.664 236.639 39.664ZM236.559 40.864C237.775 40.864 238.575 41.6 238.575 43.088H234.383C234.559 41.6 235.359 40.864 236.559 40.864ZM245.45 39.664H245.322C243.178 39.664 241.738 41.28 241.738 43.728V44.112C241.738 46.544 243.13 48.16 245.338 48.16H245.466C247.498 48.16 248.842 46.864 248.842 44.8H247.402C247.402 46.064 246.794 46.96 245.45 46.96C244.09 46.96 243.242 46.112 243.242 44.208V43.344C243.242 41.792 244.09 40.864 245.402 40.864C246.698 40.864 247.354 41.76 247.354 43.04H248.842C248.842 41.008 247.418 39.664 245.45 39.664ZM252.377 39.824H250.873V45.328C250.873 47.232 252.121 48.16 253.689 48.16C254.889 48.16 255.801 47.632 256.361 46.816C256.393 47.568 256.697 48.16 257.945 48.16C258.297 48.16 258.633 48.048 258.953 47.84V46.736C258.713 46.88 258.473 46.96 258.233 46.96C257.993 46.96 257.785 46.8 257.785 46.4V39.824H256.281V44.688C256.281 45.968 255.241 46.96 254.105 46.96C253.081 46.96 252.377 46.448 252.377 45.056V39.824ZM264.524 39.664C263.244 39.664 262.476 40.384 262.14 41.04L261.916 39.824H260.844V48H262.348V43.12C262.348 41.744 262.956 40.864 264.06 40.864C265.084 40.864 265.564 41.456 265.564 42.48V42.832H266.892C266.924 42.624 266.94 42.432 266.94 42.224C266.94 40.816 266.108 39.664 264.524 39.664ZM270.223 36.48H268.655V37.872H270.223V36.48ZM268.687 39.824V48H270.191V39.824H268.687ZM273.66 37.216L273.148 39.824H272.204V41.024H273.1V45.824C273.1 47.488 273.788 48.16 275.02 48.16C275.628 48.16 276.124 48.064 276.508 47.872V46.752C276.124 46.912 275.788 46.992 275.516 46.992C274.908 46.992 274.604 46.688 274.604 45.904V41.024H276.508V39.824H274.604V37.216H273.66ZM278.839 39.824H277.239L280.423 47.92C280.039 49.152 279.495 49.744 278.599 49.744C278.391 49.744 278.135 49.664 277.799 49.52V50.752C278.135 50.896 278.503 50.976 278.919 50.976C280.135 50.976 280.887 50.416 281.991 47.68L285.047 39.824H283.575L281.255 45.856H281.191L278.839 39.824ZM297.813 48H299.509L295.221 37.024H293.493L289.205 48H290.725L291.637 45.616H296.885L297.813 48ZM296.341 44.192H292.197L294.229 38.912H294.325L296.341 44.192ZM303.722 39.664C301.61 39.664 300.41 41.264 300.41 43.728V43.904C300.41 46.56 301.674 48.16 303.722 48.16C304.794 48.16 305.642 47.728 306.25 46.88L306.458 48H307.578V36.48H306.074V40.864C305.514 40.064 304.73 39.664 303.722 39.664ZM303.994 40.864C305.354 40.864 306.09 41.808 306.09 43.856V43.936C306.09 45.952 305.386 46.96 303.994 46.96C302.602 46.96 301.914 46.016 301.914 43.936V43.84C301.914 41.856 302.586 40.864 303.994 40.864ZM310.698 39.824H309.098L312.202 48H313.802L316.906 39.824H315.434L313.098 46.08H313.034L310.698 39.824ZM319.958 36.48H318.39V37.872H319.958V36.48ZM318.422 39.824V48H319.926V39.824H318.422ZM325.698 39.664H325.554C323.49 39.664 322.21 40.576 322.21 42.096C322.21 45.36 327.506 43.712 327.506 45.824C327.506 46.576 326.562 46.96 325.762 46.96C324.226 46.96 323.474 46.512 323.474 45.6C323.474 45.552 323.474 45.52 323.49 45.44H322.002C321.986 45.584 321.986 45.68 321.986 45.792C321.97 47.136 323.234 48.16 325.298 48.16H325.538C327.746 48.16 329.01 47.312 329.01 45.536C329.01 42.448 323.714 43.664 323.714 41.936C323.714 41.232 324.306 40.864 325.506 40.864C326.706 40.864 327.314 41.248 327.314 42.032V42.176H328.802C328.818 42.048 328.818 41.984 328.818 41.888C328.818 40.624 327.554 39.664 325.698 39.664ZM334.357 48.16H334.437C336.693 48.16 338.149 46.64 338.149 44.208V43.616C338.149 41.152 336.693 39.664 334.421 39.664H334.341C332.085 39.664 330.629 41.136 330.629 43.616V44.208C330.629 46.656 332.085 48.16 334.357 48.16ZM334.389 46.96C332.933 46.96 332.133 45.904 332.133 44.064V43.76C332.133 41.84 332.981 40.864 334.389 40.864C335.845 40.864 336.645 41.92 336.645 43.76V44.064C336.645 45.984 335.781 46.96 334.389 46.96ZM343.992 39.664C342.712 39.664 341.944 40.384 341.608 41.04L341.384 39.824H340.312V48H341.816V43.12C341.816 41.744 342.424 40.864 343.528 40.864C344.552 40.864 345.032 41.456 345.032 42.48V42.832H346.36C346.392 42.624 346.408 42.432 346.408 42.224C346.408 40.816 345.576 39.664 343.992 39.664Z" fill="black"/>
<rect x="469" y="178" width="4" height="28" fill="black"/>
<path d="M452 141C452 137.134 455.134 134 459 134H481.272C484.38 134 487.116 136.05 487.99 139.033L492.367 153.982C492.751 155.294 492.743 156.69 492.343 157.998L488.041 172.049C487.14 174.991 484.424 177 481.348 177H459C455.134 177 452 173.866 452 170V141Z" fill="#D0FF0D" stroke="black" stroke-width="2"/>
<path d="M468.72 154.224H467.104V156H468.72V154.224ZM472.548 154.224H470.932V156H472.548V154.224ZM476.376 154.224H474.76V156H476.376V154.224Z" fill="black"/>
<rect x="179" y="150" width="4" height="69" fill="black"/>
<path d="M150 113C150 109.134 153.134 106 157 106H203.861C206.546 106 208.995 107.536 210.164 109.953L217.378 124.874C218.327 126.838 218.307 129.132 217.323 131.079L210.207 145.158C209.015 147.514 206.6 149 203.959 149H157C153.134 149 150 145.866 150 142V113Z" fill="#D0FF0D" stroke="black" stroke-width="2"/>
<path d="M168.936 122.024H166.472V133H167.896V123.864H167.976L171.752 133H173.08L176.872 123.864H176.968V133H178.536V122.024H176.088L172.536 130.664H172.472L168.936 122.024ZM181.488 122.024V133H183.056V128.216H187.536V126.792H183.056V123.448H188.192L188.4 122.024H181.488ZM196.328 133H198.024L193.736 122.024H192.008L187.72 133H189.24L190.152 130.616H195.4L196.328 133ZM194.856 129.192H190.712L192.744 123.912H192.84L194.856 129.192Z" fill="black"/>
<path d="M15.1133 287.498C15.1133 287.498 74.3358 302.127 105.541 287.498C141.753 270.522 119.045 220.725 156.705 206.427C181.044 197.185 198.192 207.475 223.336 200.11C272.275 185.775 227.191 118.555 276.879 106.404C353.24 87.7301 271.328 261.056 344.7 287.498C418.072 313.94 373.956 220.505 411.331 206.427C439.549 195.797 497 206.427 497 206.427" stroke="#6CAE69" stroke-width="32"/>
<path d="M13 287.498C13 287.498 72.2225 302.127 103.428 287.498C139.64 270.522 116.932 220.725 154.591 206.427C178.931 197.185 196.079 207.475 221.223 200.11C270.161 185.775 225.078 118.555 274.765 106.404C351.126 87.7301 269.215 261.056 342.587 287.498C415.958 313.94 371.843 220.505 409.218 206.427C437.435 195.797 494.886 206.427 494.886 206.427" stroke="black" stroke-width="2" stroke-dasharray="8 8"/>
<rect x="360" y="248" width="4" height="28" fill="black"/>
<path d="M300 214C300 210.134 303.134 207 307 207H411.065C413.006 207 414.859 207.806 416.183 209.225L430.063 224.102C432.613 226.835 432.565 231.089 429.956 233.765L416.181 247.888C414.864 249.238 413.057 250 411.17 250H307C303.134 250 300 246.866 300 243V214Z" fill="#D0FF0D" stroke="black" stroke-width="2"/>
<path d="M321.208 223.024H316.472V234H318.04V229.424H321.208C323.096 229.424 324.488 228.064 324.488 226.272V226.176C324.488 224.368 323.08 223.024 321.208 223.024ZM321.064 224.448C322.056 224.448 322.92 225.216 322.92 226.224C322.92 227.232 322.04 228 321.064 228H318.04V224.448H321.064ZM329.467 225.664H329.355C327.083 225.664 325.675 227.328 325.675 229.76V230.08C325.675 232.544 327.083 234.16 329.403 234.16H329.467C331.467 234.16 332.891 232.896 332.891 230.96H331.467C331.467 231.92 330.955 232.96 329.499 232.96C327.963 232.96 327.227 231.952 327.179 230.256H332.891V229.12C332.891 227.008 331.483 225.664 329.467 225.664ZM329.387 226.864C330.603 226.864 331.403 227.6 331.403 229.088H327.211C327.387 227.6 328.187 226.864 329.387 226.864ZM338.758 225.664C337.478 225.664 336.71 226.384 336.374 227.04L336.15 225.824H335.078V234H336.582V229.12C336.582 227.744 337.19 226.864 338.294 226.864C339.318 226.864 339.798 227.456 339.798 228.48V228.832H341.126C341.158 228.624 341.174 228.432 341.174 228.224C341.174 226.816 340.342 225.664 338.758 225.664ZM345.146 222.352C343.882 222.352 343.242 223.136 343.242 224.72V225.824H342.346V227.024H343.242V234H344.746V227.024H346.65V225.824H344.746V224.56C344.746 223.856 344.954 223.552 345.834 223.552C346.042 223.552 346.314 223.616 346.65 223.76V222.656C346.25 222.448 345.738 222.352 345.146 222.352ZM351.482 234.16H351.562C353.818 234.16 355.274 232.64 355.274 230.208V229.616C355.274 227.152 353.818 225.664 351.546 225.664H351.466C349.21 225.664 347.754 227.136 347.754 229.616V230.208C347.754 232.656 349.21 234.16 351.482 234.16ZM351.514 232.96C350.058 232.96 349.258 231.904 349.258 230.064V229.76C349.258 227.84 350.106 226.864 351.514 226.864C352.97 226.864 353.77 227.92 353.77 229.76V230.064C353.77 231.984 352.906 232.96 351.514 232.96ZM361.117 225.664C359.837 225.664 359.069 226.384 358.733 227.04L358.509 225.824H357.437V234H358.941V229.12C358.941 227.744 359.549 226.864 360.653 226.864C361.677 226.864 362.157 227.456 362.157 228.48V228.832H363.485C363.517 228.624 363.533 228.432 363.533 228.224C363.533 226.816 362.701 225.664 361.117 225.664ZM369.153 225.664C368.065 225.664 367.201 226.112 366.577 227.024L366.369 225.824H365.281V234H366.785V229.136C366.785 227.856 367.665 226.864 368.705 226.864C369.681 226.864 370.177 227.504 370.177 228.768V234H371.681V229.136C371.681 227.856 372.561 226.864 373.601 226.864C374.577 226.864 375.073 227.504 375.073 228.768V234H376.577V228.496C376.577 226.672 375.569 225.664 373.905 225.664C373.073 225.664 372.177 225.92 371.393 227.024C370.977 226.112 370.225 225.664 369.153 225.664ZM382.372 225.664H382.228C380.324 225.664 378.868 226.672 378.868 227.808C378.868 228.048 378.884 228.224 378.9 228.336H380.372V228.144C380.372 227.328 381.044 226.864 382.196 226.864C383.332 226.864 384.068 227.2 384.068 228.336V229.088C379.956 229.088 378.596 229.792 378.596 231.728C378.596 233.44 379.508 234.16 381.268 234.16C382.532 234.16 383.476 233.664 384.132 232.688C384.18 233.536 384.564 234.16 385.524 234.16C385.988 234.16 386.404 234.048 386.756 233.84V232.736C386.516 232.88 386.276 232.96 386.02 232.96C385.78 232.96 385.572 232.8 385.572 232.4V228.16C385.572 226.56 384.548 225.664 382.372 225.664ZM384.068 230.256V230.576C384.068 232.048 382.964 232.96 381.78 232.96C380.66 232.96 380.1 232.592 380.1 231.856C380.1 230.768 380.628 230.256 384.068 230.256ZM392.548 225.664C391.411 225.664 390.5 226.112 389.812 227.024L389.604 225.824H388.516V234H390.02V229.136C390.02 227.872 391.044 226.864 392.196 226.864C393.22 226.864 393.924 227.376 393.924 228.768V234H395.428V228.496C395.428 226.608 394.292 225.664 392.548 225.664ZM401.2 225.664H401.072C398.928 225.664 397.488 227.28 397.488 229.728V230.112C397.488 232.544 398.88 234.16 401.088 234.16H401.216C403.248 234.16 404.592 232.864 404.592 230.8H403.152C403.152 232.064 402.544 232.96 401.2 232.96C399.84 232.96 398.992 232.112 398.992 230.208V229.344C398.992 227.792 399.84 226.864 401.152 226.864C402.448 226.864 403.104 227.76 403.104 229.04H404.592C404.592 227.008 403.168 225.664 401.2 225.664ZM409.983 225.664H409.871C407.599 225.664 406.191 227.328 406.191 229.76V230.08C406.191 232.544 407.599 234.16 409.919 234.16H409.983C411.983 234.16 413.407 232.896 413.407 230.96H411.983C411.983 231.92 411.471 232.96 410.015 232.96C408.479 232.96 407.743 231.952 407.695 230.256H413.407V229.12C413.407 227.008 411.999 225.664 409.983 225.664ZM409.903 226.864C411.119 226.864 411.919 227.6 411.919 229.088H407.727C407.903 227.6 408.703 226.864 409.903 226.864Z" fill="black"/>
</svg>
