<svg width="513" height="346" viewBox="0 0 513 346" fill="none" xmlns="http://www.w3.org/2000/svg">
<g filter="url(#filter0_d_124_6267)">
<path d="M228 21C228 16.5817 231.582 13 236 13H479C483.418 13 487 16.5817 487 21V338H228V21Z" fill="white"/>
<path d="M228.5 21C228.5 16.8579 231.858 13.5 236 13.5H479C483.142 13.5 486.5 16.8579 486.5 21V337.5H228.5V21Z" stroke="black"/>
</g>
<path d="M249.848 32.024H248.472V43H249.896V34.936L249.944 34.92L250.456 35.736L255.304 43H256.632V32.024H255.208V39.992L255.16 40.008L254.52 39L249.848 32.024ZM262.653 34.664H262.509C260.605 34.664 259.149 35.672 259.149 36.808C259.149 37.048 259.165 37.224 259.181 37.336H260.653V37.144C260.653 36.328 261.325 35.864 262.477 35.864C263.613 35.864 264.349 36.2 264.349 37.336V38.088C260.237 38.088 258.877 38.792 258.877 40.728C258.877 42.44 259.789 43.16 261.549 43.16C262.813 43.16 263.757 42.664 264.413 41.688C264.461 42.536 264.845 43.16 265.805 43.16C266.269 43.16 266.685 43.048 267.037 42.84V41.736C266.797 41.88 266.557 41.96 266.301 41.96C266.061 41.96 265.853 41.8 265.853 41.4V37.16C265.853 35.56 264.829 34.664 262.653 34.664ZM264.349 39.256V39.576C264.349 41.048 263.245 41.96 262.061 41.96C260.941 41.96 260.381 41.592 260.381 40.856C260.381 39.768 260.909 39.256 264.349 39.256ZM272.669 34.664C271.581 34.664 270.717 35.112 270.093 36.024L269.885 34.824H268.797V43H270.301V38.136C270.301 36.856 271.181 35.864 272.221 35.864C273.197 35.864 273.693 36.504 273.693 37.768V43H275.197V38.136C275.197 36.856 276.077 35.864 277.117 35.864C278.093 35.864 278.589 36.504 278.589 37.768V43H280.093V37.496C280.093 35.672 279.085 34.664 277.421 34.664C276.589 34.664 275.693 34.92 274.909 36.024C274.493 35.112 273.741 34.664 272.669 34.664ZM285.952 34.664H285.84C283.568 34.664 282.16 36.328 282.16 38.76V39.08C282.16 41.544 283.568 43.16 285.888 43.16H285.952C287.952 43.16 289.376 41.896 289.376 39.96H287.952C287.952 40.92 287.44 41.96 285.984 41.96C284.448 41.96 283.712 40.952 283.664 39.256H289.376V38.12C289.376 36.008 287.968 34.664 285.952 34.664ZM285.872 35.864C287.088 35.864 287.888 36.6 287.888 38.088H283.696C283.872 36.6 284.672 35.864 285.872 35.864Z" fill="black"/>
<circle cx="252" cy="64" r="4.5" fill="#C4C4C4" stroke="black"/>
<mask id="path-5-inside-1_124_6267" fill="white">
<path d="M252 59C251.101 59 250.218 59.2425 249.445 59.7018C248.673 60.1612 248.038 60.8205 247.608 61.6103C247.178 62.4 246.97 63.2911 247.004 64.1896C247.038 65.0881 247.313 65.9607 247.802 66.7157C248.29 67.4706 248.973 68.0799 249.779 68.4794C250.584 68.8789 251.482 69.0538 252.379 68.9856C253.275 68.9175 254.137 68.6089 254.873 68.0922C255.609 67.5756 256.192 66.8701 256.56 66.0501L252 64V59Z"/>
</mask>
<path d="M252 59C251.101 59 250.218 59.2425 249.445 59.7018C248.673 60.1612 248.038 60.8205 247.608 61.6103C247.178 62.4 246.97 63.2911 247.004 64.1896C247.038 65.0881 247.313 65.9607 247.802 66.7157C248.29 67.4706 248.973 68.0799 249.779 68.4794C250.584 68.8789 251.482 69.0538 252.379 68.9856C253.275 68.9175 254.137 68.6089 254.873 68.0922C255.609 67.5756 256.192 66.8701 256.56 66.0501L252 64V59Z" fill="#D7FF74" stroke="black" stroke-width="2" mask="url(#path-5-inside-1_124_6267)"/>
<path d="M262.18 60.04H262.14C260.39 60.04 259.7 61.24 259.7 62.33C259.7 62.42 259.7 62.45 259.71 62.51H260.69C260.68 62.49 260.68 62.44 260.68 62.25C260.68 61.53 261.25 60.93 262.11 60.93C262.96 60.93 263.4 61.52 263.4 62.09C263.4 62.61 263.2 63.03 262.62 63.49L260.63 64.99C260.04 65.43 259.7 66.08 259.7 66.76V67H264.41V66.11H260.77C260.77 66.04 260.92 65.87 261.25 65.64L263.16 64.18C263.93 63.59 264.38 63.08 264.38 62.05C264.38 61.08 263.68 60.04 262.18 60.04ZM270.242 60.14H266.382L266.102 63.93L266.982 64.06C267.272 63.6 267.702 63.37 268.272 63.37C269.022 63.37 269.622 63.94 269.622 64.75C269.622 65.65 269.052 66.21 268.232 66.21C267.452 66.21 266.862 65.63 266.842 64.86H265.862C265.882 66.15 266.862 67.1 268.232 67.1C269.662 67.1 270.602 66.15 270.602 64.78C270.602 63.55 269.972 62.53 268.352 62.53C267.912 62.53 267.482 62.7 267.052 63.04L267.202 61.03H270.242V60.14ZM274.816 67H275.516L279.676 60.14H278.996L274.816 67ZM275.256 63.64H275.326C276.016 63.64 276.536 63.12 276.536 62.43V61.36C276.536 60.67 276.036 60.15 275.326 60.15H275.256C274.546 60.15 274.046 60.67 274.046 61.36V62.43C274.046 63.12 274.566 63.64 275.256 63.64ZM275.296 63.09C274.906 63.09 274.686 62.83 274.686 62.5V61.29C274.686 60.96 274.906 60.7 275.296 60.7C275.686 60.7 275.896 60.96 275.896 61.29V62.5C275.896 62.83 275.686 63.09 275.296 63.09ZM279.156 67.01H279.226C279.936 67.01 280.436 66.49 280.436 65.8V64.73C280.436 64.04 279.916 63.52 279.226 63.52H279.156C278.466 63.52 277.946 64.04 277.946 64.73V65.8C277.946 66.49 278.446 67.01 279.156 67.01ZM279.196 66.46C278.806 66.46 278.586 66.2 278.586 65.87V64.66C278.586 64.33 278.806 64.07 279.196 64.07C279.586 64.07 279.796 64.33 279.796 64.66V65.87C279.796 66.2 279.586 66.46 279.196 66.46Z" fill="black"/>
<path d="M249.328 71.884H247.552V76H248.14V74.284H249.328C250.036 74.284 250.558 73.774 250.558 73.102V73.066C250.558 72.388 250.03 71.884 249.328 71.884ZM249.274 72.418C249.646 72.418 249.97 72.706 249.97 73.084C249.97 73.462 249.64 73.75 249.274 73.75H248.14V72.418H249.274ZM252.622 72.874C252.142 72.874 251.854 73.144 251.728 73.39L251.644 72.934H251.242V76H251.806V74.17C251.806 73.654 252.034 73.324 252.448 73.324C252.832 73.324 253.012 73.546 253.012 73.93V74.062H253.51C253.522 73.984 253.528 73.912 253.528 73.834C253.528 73.306 253.216 72.874 252.622 72.874ZM255.396 76.06H255.426C256.272 76.06 256.818 75.49 256.818 74.578V74.356C256.818 73.432 256.272 72.874 255.42 72.874H255.39C254.544 72.874 253.998 73.426 253.998 74.356V74.578C253.998 75.496 254.544 76.06 255.396 76.06ZM255.408 75.61C254.862 75.61 254.562 75.214 254.562 74.524V74.41C254.562 73.69 254.88 73.324 255.408 73.324C255.954 73.324 256.254 73.72 256.254 74.41V74.524C256.254 75.244 255.93 75.61 255.408 75.61ZM257.911 71.956L257.719 72.934H257.365V73.384H257.701V75.184C257.701 75.808 257.959 76.06 258.421 76.06C258.649 76.06 258.835 76.024 258.979 75.952V75.532C258.835 75.592 258.709 75.622 258.607 75.622C258.379 75.622 258.265 75.508 258.265 75.214V73.384H258.979V72.934H258.265V71.956H257.911ZM260.91 72.874H260.868C260.016 72.874 259.488 73.498 259.488 74.41V74.53C259.488 75.454 260.016 76.06 260.886 76.06H260.91C261.66 76.06 262.194 75.586 262.194 74.86H261.66C261.66 75.22 261.468 75.61 260.922 75.61C260.346 75.61 260.07 75.232 260.052 74.596H262.194V74.17C262.194 73.378 261.666 72.874 260.91 72.874ZM260.88 73.324C261.336 73.324 261.636 73.6 261.636 74.158H260.064C260.13 73.6 260.43 73.324 260.88 73.324ZM264.214 72.874H264.166C263.362 72.874 262.822 73.48 262.822 74.398V74.542C262.822 75.454 263.344 76.06 264.172 76.06H264.22C264.982 76.06 265.486 75.574 265.486 74.8H264.946C264.946 75.274 264.718 75.61 264.214 75.61C263.704 75.61 263.386 75.292 263.386 74.578V74.254C263.386 73.672 263.704 73.324 264.196 73.324C264.682 73.324 264.928 73.66 264.928 74.14H265.486C265.486 73.378 264.952 72.874 264.214 72.874ZM266.583 71.956L266.391 72.934H266.037V73.384H266.373V75.184C266.373 75.808 266.631 76.06 267.093 76.06C267.321 76.06 267.507 76.024 267.651 75.952V75.532C267.507 75.592 267.381 75.622 267.279 75.622C267.051 75.622 266.937 75.508 266.937 75.214V73.384H267.651V72.934H266.937V71.956H266.583ZM269.582 72.874H269.54C268.688 72.874 268.16 73.498 268.16 74.41V74.53C268.16 75.454 268.688 76.06 269.558 76.06H269.582C270.332 76.06 270.866 75.586 270.866 74.86H270.332C270.332 75.22 270.14 75.61 269.594 75.61C269.018 75.61 268.742 75.232 268.724 74.596H270.866V74.17C270.866 73.378 270.338 72.874 269.582 72.874ZM269.552 73.324C270.008 73.324 270.308 73.6 270.308 74.158H268.736C268.802 73.6 269.102 73.324 269.552 73.324ZM272.742 72.874C271.95 72.874 271.5 73.474 271.5 74.398V74.464C271.5 75.46 271.974 76.06 272.742 76.06C273.144 76.06 273.462 75.898 273.69 75.58L273.768 76H274.188V71.68H273.624V73.324C273.414 73.024 273.12 72.874 272.742 72.874ZM272.844 73.324C273.354 73.324 273.63 73.678 273.63 74.446V74.476C273.63 75.232 273.366 75.61 272.844 75.61C272.322 75.61 272.064 75.256 272.064 74.476V74.44C272.064 73.696 272.316 73.324 272.844 73.324ZM278.196 76.06H278.256C279.234 76.06 279.924 75.364 279.924 74.212V73.672C279.924 72.52 279.234 71.824 278.244 71.824H278.184C277.206 71.824 276.516 72.514 276.516 73.672V74.212C276.516 75.37 277.206 76.06 278.196 76.06ZM278.22 75.526C277.488 75.526 277.104 75.064 277.104 74.212V73.672C277.104 72.802 277.524 72.358 278.22 72.358C278.952 72.358 279.336 72.82 279.336 73.672V74.212C279.336 75.094 278.904 75.526 278.22 75.526ZM282.243 72.874C281.859 72.874 281.529 73.078 281.355 73.324V71.68H280.791V76H281.007L281.205 75.514C281.439 75.88 281.781 76.06 282.237 76.06C283.005 76.06 283.479 75.46 283.479 74.464V74.398C283.479 73.48 283.035 72.874 282.243 72.874ZM282.129 73.324C282.633 73.324 282.915 73.684 282.915 74.428V74.482C282.915 75.232 282.651 75.61 282.129 75.61C281.607 75.61 281.349 75.256 281.349 74.482V74.452C281.349 73.69 281.601 73.324 282.129 73.324ZM284.865 71.68H284.277V72.202H284.865V71.68ZM284.853 72.934H284.289V76.264C284.289 76.558 284.199 76.672 283.899 76.672C283.821 76.672 283.719 76.642 283.587 76.582V77.002C283.725 77.08 283.893 77.116 284.103 77.116C284.661 77.116 284.853 76.804 284.853 76.09V72.934ZM287.078 72.874H287.036C286.184 72.874 285.656 73.498 285.656 74.41V74.53C285.656 75.454 286.184 76.06 287.054 76.06H287.078C287.828 76.06 288.362 75.586 288.362 74.86H287.828C287.828 75.22 287.636 75.61 287.09 75.61C286.514 75.61 286.238 75.232 286.22 74.596H288.362V74.17C288.362 73.378 287.834 72.874 287.078 72.874ZM287.048 73.324C287.504 73.324 287.804 73.6 287.804 74.158H286.232C286.298 73.6 286.598 73.324 287.048 73.324ZM290.382 72.874H290.334C289.53 72.874 288.99 73.48 288.99 74.398V74.542C288.99 75.454 289.512 76.06 290.34 76.06H290.388C291.15 76.06 291.654 75.574 291.654 74.8H291.114C291.114 75.274 290.886 75.61 290.382 75.61C289.872 75.61 289.554 75.292 289.554 74.578V74.254C289.554 73.672 289.872 73.324 290.364 73.324C290.85 73.324 291.096 73.66 291.096 74.14H291.654C291.654 73.378 291.12 72.874 290.382 72.874ZM292.751 71.956L292.559 72.934H292.205V73.384H292.541V75.184C292.541 75.808 292.799 76.06 293.261 76.06C293.489 76.06 293.675 76.024 293.819 75.952V75.532C293.675 75.592 293.549 75.622 293.447 75.622C293.219 75.622 293.105 75.508 293.105 75.214V73.384H293.819V72.934H293.105V71.956H292.751ZM295.689 72.874H295.635C294.861 72.874 294.381 73.216 294.381 73.786C294.381 75.01 296.367 74.392 296.367 75.184C296.367 75.466 296.013 75.61 295.713 75.61C295.137 75.61 294.855 75.442 294.855 75.1C294.855 75.082 294.855 75.07 294.861 75.04H294.303C294.297 75.094 294.297 75.13 294.297 75.172C294.291 75.676 294.765 76.06 295.539 76.06H295.629C296.457 76.06 296.931 75.742 296.931 75.076C296.931 73.918 294.945 74.374 294.945 73.726C294.945 73.462 295.167 73.324 295.617 73.324C296.067 73.324 296.295 73.468 296.295 73.762V73.816H296.853C296.859 73.768 296.859 73.744 296.859 73.708C296.859 73.234 296.385 72.874 295.689 72.874ZM299.333 76H299.753L302.249 71.884H301.841L299.333 76ZM299.597 73.984H299.639C300.053 73.984 300.365 73.672 300.365 73.258V72.616C300.365 72.202 300.065 71.89 299.639 71.89H299.597C299.171 71.89 298.871 72.202 298.871 72.616V73.258C298.871 73.672 299.183 73.984 299.597 73.984ZM299.621 73.654C299.387 73.654 299.255 73.498 299.255 73.3V72.574C299.255 72.376 299.387 72.22 299.621 72.22C299.855 72.22 299.981 72.376 299.981 72.574V73.3C299.981 73.498 299.855 73.654 299.621 73.654ZM301.937 76.006H301.979C302.405 76.006 302.705 75.694 302.705 75.28V74.638C302.705 74.224 302.393 73.912 301.979 73.912H301.937C301.523 73.912 301.211 74.224 301.211 74.638V75.28C301.211 75.694 301.511 76.006 301.937 76.006ZM301.961 75.676C301.727 75.676 301.595 75.52 301.595 75.322V74.596C301.595 74.398 301.727 74.242 301.961 74.242C302.195 74.242 302.321 74.398 302.321 74.596V75.322C302.321 75.52 302.195 75.676 301.961 75.676Z" fill="black"/>
<path d="M324.09 60.14H320.23L319.95 63.93L320.83 64.06C321.12 63.6 321.55 63.37 322.12 63.37C322.87 63.37 323.47 63.94 323.47 64.75C323.47 65.65 322.9 66.21 322.08 66.21C321.3 66.21 320.71 65.63 320.69 64.86H319.71C319.73 66.15 320.71 67.1 322.08 67.1C323.51 67.1 324.45 66.15 324.45 64.78C324.45 63.55 323.82 62.53 322.2 62.53C321.76 62.53 321.33 62.7 320.9 63.04L321.05 61.03H324.09V60.14ZM328.282 60.04H328.152C326.872 60.04 325.862 61 325.862 62.36V64.79C325.862 66.08 326.802 67.1 328.152 67.1H328.282C329.612 67.1 330.582 66.1 330.582 64.79V62.36C330.582 61 329.542 60.04 328.282 60.04ZM328.222 60.93C329.022 60.93 329.602 61.52 329.602 62.28V64.86C329.602 65.62 329.022 66.21 328.222 66.21C327.462 66.21 326.842 65.65 326.842 64.86V62.28C326.842 61.49 327.462 60.93 328.222 60.93Z" fill="black"/>
<path d="M321.328 71.884H319.552V76H320.14V74.284H321.328C322.036 74.284 322.558 73.774 322.558 73.102V73.066C322.558 72.388 322.03 71.884 321.328 71.884ZM321.274 72.418C321.646 72.418 321.97 72.706 321.97 73.084C321.97 73.462 321.64 73.75 321.274 73.75H320.14V72.418H321.274ZM324.622 72.874C324.142 72.874 323.854 73.144 323.728 73.39L323.644 72.934H323.242V76H323.806V74.17C323.806 73.654 324.034 73.324 324.448 73.324C324.832 73.324 325.012 73.546 325.012 73.93V74.062H325.51C325.522 73.984 325.528 73.912 325.528 73.834C325.528 73.306 325.216 72.874 324.622 72.874ZM327.396 76.06H327.426C328.272 76.06 328.818 75.49 328.818 74.578V74.356C328.818 73.432 328.272 72.874 327.42 72.874H327.39C326.544 72.874 325.998 73.426 325.998 74.356V74.578C325.998 75.496 326.544 76.06 327.396 76.06ZM327.408 75.61C326.862 75.61 326.562 75.214 326.562 74.524V74.41C326.562 73.69 326.88 73.324 327.408 73.324C327.954 73.324 328.254 73.72 328.254 74.41V74.524C328.254 75.244 327.93 75.61 327.408 75.61ZM329.911 71.956L329.719 72.934H329.365V73.384H329.701V75.184C329.701 75.808 329.959 76.06 330.421 76.06C330.649 76.06 330.835 76.024 330.979 75.952V75.532C330.835 75.592 330.709 75.622 330.607 75.622C330.379 75.622 330.265 75.508 330.265 75.214V73.384H330.979V72.934H330.265V71.956H329.911ZM332.91 72.874H332.868C332.016 72.874 331.488 73.498 331.488 74.41V74.53C331.488 75.454 332.016 76.06 332.886 76.06H332.91C333.66 76.06 334.194 75.586 334.194 74.86H333.66C333.66 75.22 333.468 75.61 332.922 75.61C332.346 75.61 332.07 75.232 332.052 74.596H334.194V74.17C334.194 73.378 333.666 72.874 332.91 72.874ZM332.88 73.324C333.336 73.324 333.636 73.6 333.636 74.158H332.064C332.13 73.6 332.43 73.324 332.88 73.324ZM336.214 72.874H336.166C335.362 72.874 334.822 73.48 334.822 74.398V74.542C334.822 75.454 335.344 76.06 336.172 76.06H336.22C336.982 76.06 337.486 75.574 337.486 74.8H336.946C336.946 75.274 336.718 75.61 336.214 75.61C335.704 75.61 335.386 75.292 335.386 74.578V74.254C335.386 73.672 335.704 73.324 336.196 73.324C336.682 73.324 336.928 73.66 336.928 74.14H337.486C337.486 73.378 336.952 72.874 336.214 72.874ZM338.583 71.956L338.391 72.934H338.037V73.384H338.373V75.184C338.373 75.808 338.631 76.06 339.093 76.06C339.321 76.06 339.507 76.024 339.651 75.952V75.532C339.507 75.592 339.381 75.622 339.279 75.622C339.051 75.622 338.937 75.508 338.937 75.214V73.384H339.651V72.934H338.937V71.956H338.583ZM341.582 72.874H341.54C340.688 72.874 340.16 73.498 340.16 74.41V74.53C340.16 75.454 340.688 76.06 341.558 76.06H341.582C342.332 76.06 342.866 75.586 342.866 74.86H342.332C342.332 75.22 342.14 75.61 341.594 75.61C341.018 75.61 340.742 75.232 340.724 74.596H342.866V74.17C342.866 73.378 342.338 72.874 341.582 72.874ZM341.552 73.324C342.008 73.324 342.308 73.6 342.308 74.158H340.736C340.802 73.6 341.102 73.324 341.552 73.324ZM344.742 72.874C343.95 72.874 343.5 73.474 343.5 74.398V74.464C343.5 75.46 343.974 76.06 344.742 76.06C345.144 76.06 345.462 75.898 345.69 75.58L345.768 76H346.188V71.68H345.624V73.324C345.414 73.024 345.12 72.874 344.742 72.874ZM344.844 73.324C345.354 73.324 345.63 73.678 345.63 74.446V74.476C345.63 75.232 345.366 75.61 344.844 75.61C344.322 75.61 344.064 75.256 344.064 74.476V74.44C344.064 73.696 344.316 73.324 344.844 73.324ZM350.196 76.06H350.256C351.234 76.06 351.924 75.364 351.924 74.212V73.672C351.924 72.52 351.234 71.824 350.244 71.824H350.184C349.206 71.824 348.516 72.514 348.516 73.672V74.212C348.516 75.37 349.206 76.06 350.196 76.06ZM350.22 75.526C349.488 75.526 349.104 75.064 349.104 74.212V73.672C349.104 72.802 349.524 72.358 350.22 72.358C350.952 72.358 351.336 72.82 351.336 73.672V74.212C351.336 75.094 350.904 75.526 350.22 75.526ZM354.243 72.874C353.859 72.874 353.529 73.078 353.355 73.324V71.68H352.791V76H353.007L353.205 75.514C353.439 75.88 353.781 76.06 354.237 76.06C355.005 76.06 355.479 75.46 355.479 74.464V74.398C355.479 73.48 355.035 72.874 354.243 72.874ZM354.129 73.324C354.633 73.324 354.915 73.684 354.915 74.428V74.482C354.915 75.232 354.651 75.61 354.129 75.61C353.607 75.61 353.349 75.256 353.349 74.482V74.452C353.349 73.69 353.601 73.324 354.129 73.324ZM356.865 71.68H356.277V72.202H356.865V71.68ZM356.853 72.934H356.289V76.264C356.289 76.558 356.199 76.672 355.899 76.672C355.821 76.672 355.719 76.642 355.587 76.582V77.002C355.725 77.08 355.893 77.116 356.103 77.116C356.661 77.116 356.853 76.804 356.853 76.09V72.934ZM359.078 72.874H359.036C358.184 72.874 357.656 73.498 357.656 74.41V74.53C357.656 75.454 358.184 76.06 359.054 76.06H359.078C359.828 76.06 360.362 75.586 360.362 74.86H359.828C359.828 75.22 359.636 75.61 359.09 75.61C358.514 75.61 358.238 75.232 358.22 74.596H360.362V74.17C360.362 73.378 359.834 72.874 359.078 72.874ZM359.048 73.324C359.504 73.324 359.804 73.6 359.804 74.158H358.232C358.298 73.6 358.598 73.324 359.048 73.324ZM362.382 72.874H362.334C361.53 72.874 360.99 73.48 360.99 74.398V74.542C360.99 75.454 361.512 76.06 362.34 76.06H362.388C363.15 76.06 363.654 75.574 363.654 74.8H363.114C363.114 75.274 362.886 75.61 362.382 75.61C361.872 75.61 361.554 75.292 361.554 74.578V74.254C361.554 73.672 361.872 73.324 362.364 73.324C362.85 73.324 363.096 73.66 363.096 74.14H363.654C363.654 73.378 363.12 72.874 362.382 72.874ZM364.751 71.956L364.559 72.934H364.205V73.384H364.541V75.184C364.541 75.808 364.799 76.06 365.261 76.06C365.489 76.06 365.675 76.024 365.819 75.952V75.532C365.675 75.592 365.549 75.622 365.447 75.622C365.219 75.622 365.105 75.508 365.105 75.214V73.384H365.819V72.934H365.105V71.956H364.751ZM367.689 72.874H367.635C366.861 72.874 366.381 73.216 366.381 73.786C366.381 75.01 368.367 74.392 368.367 75.184C368.367 75.466 368.013 75.61 367.713 75.61C367.137 75.61 366.855 75.442 366.855 75.1C366.855 75.082 366.855 75.07 366.861 75.04H366.303C366.297 75.094 366.297 75.13 366.297 75.172C366.291 75.676 366.765 76.06 367.539 76.06H367.629C368.457 76.06 368.931 75.742 368.931 75.076C368.931 73.918 366.945 74.374 366.945 73.726C366.945 73.462 367.167 73.324 367.617 73.324C368.067 73.324 368.295 73.468 368.295 73.762V73.816H368.853C368.859 73.768 368.859 73.744 368.859 73.708C368.859 73.234 368.385 72.874 367.689 72.874Z" fill="black"/>
<path d="M389.77 60.14H389.39C388.56 60.51 387.75 60.73 386.97 60.81V61.45H388.79V66.11H386.99V67H391.57V66.11H389.77V60.14ZM397.242 60.14H393.382L393.102 63.93L393.982 64.06C394.272 63.6 394.702 63.37 395.272 63.37C396.022 63.37 396.622 63.94 396.622 64.75C396.622 65.65 396.052 66.21 395.232 66.21C394.452 66.21 393.862 65.63 393.842 64.86H392.862C392.882 66.15 393.862 67.1 395.232 67.1C396.662 67.1 397.602 66.15 397.602 64.78C397.602 63.55 396.972 62.53 395.352 62.53C394.912 62.53 394.482 62.7 394.052 63.04L394.202 61.03H397.242V60.14ZM401.435 60.04H401.305C400.025 60.04 399.015 61 399.015 62.36V64.79C399.015 66.08 399.955 67.1 401.305 67.1H401.435C402.765 67.1 403.735 66.1 403.735 64.79V62.36C403.735 61 402.695 60.04 401.435 60.04ZM401.375 60.93C402.175 60.93 402.755 61.52 402.755 62.28V64.86C402.755 65.62 402.175 66.21 401.375 66.21C400.615 66.21 399.995 65.65 399.995 64.86V62.28C399.995 61.49 400.615 60.93 401.375 60.93Z" fill="black"/>
<path d="M386.552 71.884V76H387.14V74.206H388.82V73.672H387.14V72.418H389.066L389.144 71.884H386.552ZM390.868 72.874H390.814C390.1 72.874 389.554 73.252 389.554 73.678C389.554 73.768 389.56 73.834 389.566 73.876H390.118V73.804C390.118 73.498 390.37 73.324 390.802 73.324C391.228 73.324 391.504 73.45 391.504 73.876V74.158C389.962 74.158 389.452 74.422 389.452 75.148C389.452 75.79 389.794 76.06 390.454 76.06C390.928 76.06 391.282 75.874 391.528 75.508C391.546 75.826 391.69 76.06 392.05 76.06C392.224 76.06 392.38 76.018 392.512 75.94V75.526C392.422 75.58 392.332 75.61 392.236 75.61C392.146 75.61 392.068 75.55 392.068 75.4V73.81C392.068 73.21 391.684 72.874 390.868 72.874ZM391.504 74.596V74.716C391.504 75.268 391.09 75.61 390.646 75.61C390.226 75.61 390.016 75.472 390.016 75.196C390.016 74.788 390.214 74.596 391.504 74.596ZM393.748 71.68H393.16V72.202H393.748V71.68ZM393.172 72.934V76H393.736V72.934H393.172ZM394.754 71.68V76H395.318V71.68H394.754ZM397.566 72.874H397.524C396.672 72.874 396.144 73.498 396.144 74.41V74.53C396.144 75.454 396.672 76.06 397.542 76.06H397.566C398.316 76.06 398.85 75.586 398.85 74.86H398.316C398.316 75.22 398.124 75.61 397.578 75.61C397.002 75.61 396.726 75.232 396.708 74.596H398.85V74.17C398.85 73.378 398.322 72.874 397.566 72.874ZM397.536 73.324C397.992 73.324 398.292 73.6 398.292 74.158H396.72C396.786 73.6 397.086 73.324 397.536 73.324ZM400.726 72.874C399.934 72.874 399.484 73.474 399.484 74.398V74.464C399.484 75.46 399.958 76.06 400.726 76.06C401.128 76.06 401.446 75.898 401.674 75.58L401.752 76H402.172V71.68H401.608V73.324C401.398 73.024 401.104 72.874 400.726 72.874ZM400.828 73.324C401.338 73.324 401.614 73.678 401.614 74.446V74.476C401.614 75.232 401.35 75.61 400.828 75.61C400.306 75.61 400.048 75.256 400.048 74.476V74.44C400.048 73.696 400.3 73.324 400.828 73.324ZM406.181 76.06H406.241C407.219 76.06 407.909 75.364 407.909 74.212V73.672C407.909 72.52 407.219 71.824 406.229 71.824H406.169C405.191 71.824 404.501 72.514 404.501 73.672V74.212C404.501 75.37 405.191 76.06 406.181 76.06ZM406.205 75.526C405.473 75.526 405.089 75.064 405.089 74.212V73.672C405.089 72.802 405.509 72.358 406.205 72.358C406.937 72.358 407.321 72.82 407.321 73.672V74.212C407.321 75.094 406.889 75.526 406.205 75.526ZM410.227 72.874C409.843 72.874 409.513 73.078 409.339 73.324V71.68H408.775V76H408.991L409.189 75.514C409.423 75.88 409.765 76.06 410.221 76.06C410.989 76.06 411.463 75.46 411.463 74.464V74.398C411.463 73.48 411.019 72.874 410.227 72.874ZM410.113 73.324C410.617 73.324 410.899 73.684 410.899 74.428V74.482C410.899 75.232 410.635 75.61 410.113 75.61C409.591 75.61 409.333 75.256 409.333 74.482V74.452C409.333 73.69 409.585 73.324 410.113 73.324ZM412.849 71.68H412.261V72.202H412.849V71.68ZM412.837 72.934H412.273V76.264C412.273 76.558 412.183 76.672 411.883 76.672C411.805 76.672 411.703 76.642 411.571 76.582V77.002C411.709 77.08 411.877 77.116 412.087 77.116C412.645 77.116 412.837 76.804 412.837 76.09V72.934ZM415.062 72.874H415.02C414.168 72.874 413.64 73.498 413.64 74.41V74.53C413.64 75.454 414.168 76.06 415.038 76.06H415.062C415.812 76.06 416.346 75.586 416.346 74.86H415.812C415.812 75.22 415.62 75.61 415.074 75.61C414.498 75.61 414.222 75.232 414.204 74.596H416.346V74.17C416.346 73.378 415.818 72.874 415.062 72.874ZM415.032 73.324C415.488 73.324 415.788 73.6 415.788 74.158H414.216C414.282 73.6 414.582 73.324 415.032 73.324ZM418.366 72.874H418.318C417.514 72.874 416.974 73.48 416.974 74.398V74.542C416.974 75.454 417.496 76.06 418.324 76.06H418.372C419.134 76.06 419.638 75.574 419.638 74.8H419.098C419.098 75.274 418.87 75.61 418.366 75.61C417.856 75.61 417.538 75.292 417.538 74.578V74.254C417.538 73.672 417.856 73.324 418.348 73.324C418.834 73.324 419.08 73.66 419.08 74.14H419.638C419.638 73.378 419.104 72.874 418.366 72.874ZM420.736 71.956L420.544 72.934H420.19V73.384H420.526V75.184C420.526 75.808 420.784 76.06 421.246 76.06C421.474 76.06 421.66 76.024 421.804 75.952V75.532C421.66 75.592 421.534 75.622 421.432 75.622C421.204 75.622 421.09 75.508 421.09 75.214V73.384H421.804V72.934H421.09V71.956H420.736ZM423.674 72.874H423.62C422.846 72.874 422.366 73.216 422.366 73.786C422.366 75.01 424.352 74.392 424.352 75.184C424.352 75.466 423.998 75.61 423.698 75.61C423.122 75.61 422.84 75.442 422.84 75.1C422.84 75.082 422.84 75.07 422.846 75.04H422.288C422.282 75.094 422.282 75.13 422.282 75.172C422.276 75.676 422.75 76.06 423.524 76.06H423.614C424.442 76.06 424.916 75.742 424.916 75.076C424.916 73.918 422.93 74.374 422.93 73.726C422.93 73.462 423.152 73.324 423.602 73.324C424.052 73.324 424.28 73.468 424.28 73.762V73.816H424.838C424.844 73.768 424.844 73.744 424.844 73.708C424.844 73.234 424.37 72.874 423.674 72.874Z" fill="black"/>
<path d="M445.68 60.04H444.63C444.12 61.59 443.41 63.05 442.5 64.41V65.31H445.73V67H446.71V65.31H447.58V64.42H446.71V61.06H446.27C446.14 61.52 445.96 61.98 445.73 62.43V64.42H443.43C444.18 63.54 445.3 61.39 445.68 60.04ZM451.222 60.04C449.982 60.04 449.052 60.68 449.052 62.01C449.052 62.56 449.202 62.98 449.982 63.46V63.5C449.292 63.79 448.822 64.27 448.822 65.15C448.822 66.39 449.772 67.1 451.222 67.1C452.772 67.1 453.622 66.36 453.622 65.15C453.622 64.26 453.152 63.82 452.462 63.5V63.46C453.072 63.09 453.392 62.7 453.392 61.95C453.392 60.79 452.522 60.04 451.222 60.04ZM451.222 60.93C451.952 60.93 452.412 61.39 452.412 61.99C452.412 62.59 451.952 63.05 451.222 63.05C450.492 63.05 450.032 62.59 450.032 61.99C450.032 61.39 450.492 60.93 451.222 60.93ZM451.222 63.94C452.072 63.94 452.642 64.36 452.642 65.08C452.642 65.82 452.032 66.21 451.222 66.21C450.452 66.21 449.802 65.86 449.802 65.08C449.802 64.34 450.372 63.94 451.222 63.94Z" fill="black"/>
<path d="M443.884 71.824C443.044 71.824 442.408 72.16 442.408 72.994C442.408 74.458 444.856 73.852 444.856 74.908C444.856 75.292 444.484 75.526 443.884 75.526C443.284 75.526 442.9 75.31 442.9 74.836C442.9 74.794 442.9 74.764 442.906 74.71H442.318C442.312 74.764 442.312 74.788 442.312 74.83C442.312 75.646 442.906 76.06 443.878 76.06C444.82 76.06 445.444 75.7 445.444 74.77C445.444 73.306 442.996 73.846 442.996 72.904C442.996 72.55 443.338 72.358 443.896 72.358C444.394 72.358 444.748 72.568 444.748 72.958V73.048H445.336V72.976C445.336 72.232 444.772 71.824 443.884 71.824ZM446.314 71.884V76H448.876L448.792 75.466H446.902V71.884H446.314ZM452.231 76H452.867L451.259 71.884H450.611L449.003 76H449.573L449.915 75.106H451.883L452.231 76ZM451.679 74.572H450.125L450.887 72.592H450.923L451.679 74.572ZM455.833 71.884H454.909V76H455.443V72.574H455.473L456.889 76H457.387L458.809 72.574H458.845V76H459.433V71.884H458.515L457.183 75.124H457.159L455.833 71.884ZM461.716 72.874H461.674C460.822 72.874 460.294 73.498 460.294 74.41V74.53C460.294 75.454 460.822 76.06 461.692 76.06H461.716C462.466 76.06 463 75.586 463 74.86H462.466C462.466 75.22 462.274 75.61 461.728 75.61C461.152 75.61 460.876 75.232 460.858 74.596H463V74.17C463 73.378 462.472 72.874 461.716 72.874ZM461.686 73.324C462.142 73.324 462.442 73.6 462.442 74.158H460.87C460.936 73.6 461.236 73.324 461.686 73.324ZM464.126 71.956L463.934 72.934H463.58V73.384H463.916V75.184C463.916 75.808 464.174 76.06 464.636 76.06C464.864 76.06 465.05 76.024 465.194 75.952V75.532C465.05 75.592 464.924 75.622 464.822 75.622C464.594 75.622 464.48 75.508 464.48 75.214V73.384H465.194V72.934H464.48V71.956H464.126Z" fill="black"/>
<path d="M250.48 91.04H250.37C248.68 91.04 247.62 92.22 247.62 94.12V95.02C247.62 96.96 248.68 98.1 250.4 98.1H250.51C252.05 98.1 253.09 97.04 253.09 95.39H252.15C252.15 96.52 251.56 97.21 250.42 97.21C249.22 97.21 248.6 96.44 248.6 95.02V94.12C248.6 92.68 249.25 91.93 250.44 91.93C251.53 91.93 252.11 92.62 252.11 93.77H253.09C253.09 92.07 252.04 91.04 250.48 91.04ZM256.981 92.79C256.351 92.79 255.821 93.04 255.401 93.53V90.8H254.461V98H255.401V94.96C255.401 94.17 256.041 93.54 256.761 93.54C257.401 93.54 257.841 93.86 257.841 94.73V98H258.781V94.56C258.781 93.38 258.071 92.79 256.981 92.79ZM262.399 92.79H262.309C261.119 92.79 260.209 93.42 260.209 94.13C260.209 94.28 260.219 94.39 260.229 94.46H261.149V94.34C261.149 93.83 261.569 93.54 262.289 93.54C262.999 93.54 263.459 93.75 263.459 94.46V94.93C260.889 94.93 260.039 95.37 260.039 96.58C260.039 97.65 260.609 98.1 261.709 98.1C262.499 98.1 263.089 97.79 263.499 97.18C263.529 97.71 263.769 98.1 264.369 98.1C264.659 98.1 264.919 98.03 265.139 97.9V97.21C264.989 97.3 264.839 97.35 264.679 97.35C264.529 97.35 264.399 97.25 264.399 97V94.35C264.399 93.35 263.759 92.79 262.399 92.79ZM263.459 95.66V95.86C263.459 96.78 262.769 97.35 262.029 97.35C261.329 97.35 260.979 97.12 260.979 96.66C260.979 95.98 261.309 95.66 263.459 95.66ZM268.538 92.79C267.738 92.79 267.258 93.24 267.048 93.65L266.908 92.89H266.238V98H267.178V94.95C267.178 94.09 267.558 93.54 268.248 93.54C268.888 93.54 269.188 93.91 269.188 94.55V94.77H270.018C270.038 94.64 270.048 94.52 270.048 94.39C270.048 93.51 269.528 92.79 268.538 92.79ZM271.651 91.26L271.331 92.89H270.741V93.64H271.301V96.64C271.301 97.68 271.731 98.1 272.501 98.1C272.881 98.1 273.191 98.04 273.431 97.92V97.22C273.191 97.32 272.981 97.37 272.811 97.37C272.431 97.37 272.241 97.18 272.241 96.69V93.64H273.431V92.89H272.241V91.26H271.651ZM276.548 92.79H276.458C275.168 92.79 274.368 93.36 274.368 94.31C274.368 96.35 277.678 95.32 277.678 96.64C277.678 97.11 277.088 97.35 276.588 97.35C275.628 97.35 275.158 97.07 275.158 96.5C275.158 96.47 275.158 96.45 275.168 96.4H274.238C274.228 96.49 274.228 96.55 274.228 96.62C274.218 97.46 275.008 98.1 276.298 98.1H276.448C277.828 98.1 278.618 97.57 278.618 96.46C278.618 94.53 275.308 95.29 275.308 94.21C275.308 93.77 275.678 93.54 276.428 93.54C277.178 93.54 277.558 93.78 277.558 94.27V94.36H278.488C278.498 94.28 278.498 94.24 278.498 94.18C278.498 93.39 277.708 92.79 276.548 92.79Z" fill="black"/>
<path d="M250.3 210.14H247.92V217H250.3C252.03 217 253.14 215.81 253.14 213.92V213.22C253.14 211.33 252.03 210.14 250.3 210.14ZM248.9 211.03H250.3C251.52 211.03 252.16 211.81 252.16 213.22V213.92C252.16 215.38 251.47 216.11 250.3 216.11H248.9V211.03ZM256.588 211.79H256.498C255.308 211.79 254.398 212.42 254.398 213.13C254.398 213.28 254.408 213.39 254.418 213.46H255.338V213.34C255.338 212.83 255.758 212.54 256.478 212.54C257.188 212.54 257.648 212.75 257.648 213.46V213.93C255.078 213.93 254.228 214.37 254.228 215.58C254.228 216.65 254.798 217.1 255.898 217.1C256.688 217.1 257.278 216.79 257.688 216.18C257.718 216.71 257.958 217.1 258.558 217.1C258.848 217.1 259.108 217.03 259.328 216.9V216.21C259.178 216.3 259.028 216.35 258.868 216.35C258.718 216.35 258.588 216.25 258.588 216V213.35C258.588 212.35 257.948 211.79 256.588 211.79ZM257.648 214.66V214.86C257.648 215.78 256.958 216.35 256.218 216.35C255.518 216.35 255.168 216.12 255.168 215.66C255.168 214.98 255.498 214.66 257.648 214.66ZM260.899 210.26L260.579 211.89H259.989V212.64H260.549V215.64C260.549 216.68 260.979 217.1 261.749 217.1C262.129 217.1 262.439 217.04 262.679 216.92V216.22C262.439 216.32 262.229 216.37 262.059 216.37C261.679 216.37 261.489 216.18 261.489 215.69V212.64H262.679V211.89H261.489V210.26H260.899ZM265.856 211.79H265.766C264.576 211.79 263.666 212.42 263.666 213.13C263.666 213.28 263.676 213.39 263.686 213.46H264.606V213.34C264.606 212.83 265.026 212.54 265.746 212.54C266.456 212.54 266.916 212.75 266.916 213.46V213.93C264.346 213.93 263.496 214.37 263.496 215.58C263.496 216.65 264.066 217.1 265.166 217.1C265.956 217.1 266.546 216.79 266.956 216.18C266.986 216.71 267.226 217.1 267.826 217.1C268.116 217.1 268.376 217.03 268.596 216.9V216.21C268.446 216.3 268.296 216.35 268.136 216.35C267.986 216.35 267.856 216.25 267.856 216V213.35C267.856 212.35 267.216 211.79 265.856 211.79ZM266.916 214.66V214.86C266.916 215.78 266.226 216.35 265.486 216.35C264.786 216.35 264.436 216.12 264.436 215.66C264.436 214.98 264.766 214.66 266.916 214.66Z" fill="black"/>
<rect x="247.5" y="112.5" width="106" height="85" rx="3.5" stroke="black"/>
<path d="M255.459 187.776C255.459 187.776 271.458 184.575 275.349 171.772C279.241 158.968 283.732 169.125 288.61 166.674C295.055 163.435 296.214 158.245 303.455 156.479C310.398 154.784 316.36 169.812 323.201 167.859C329.269 166.128 331.388 153.838 334.3 149.128C337.211 144.419 344.245 140 344.245 140" stroke="#9FCB9D" stroke-width="4" stroke-linecap="round"/>
<path d="M274.61 172.384C270.578 185.115 254 188.298 254 188.298V197H346V140.792C346 140.792 338.711 145.186 335.695 149.869C332.678 154.551 330.483 166.772 324.195 168.494C317.105 170.436 310.928 155.493 303.734 157.177C296.231 158.934 295.029 164.095 288.351 167.315C283.296 169.753 278.643 159.653 274.61 172.384Z" fill="url(#paint0_linear_124_6267)"/>
<rect x="254.5" y="119.5" width="76" height="7" rx="3.5" fill="#D9D9D9" stroke="black"/>
<rect x="363.5" y="112.5" width="106" height="85" rx="3.5" fill="white" stroke="black"/>
<rect x="370.5" y="119.5" width="76" height="7" rx="3.5" fill="#D8D8D8" stroke="#1E1E1E"/>
<rect x="430.5" y="148.5" width="33" height="3" rx="1.5" fill="#D9D9D9" stroke="#1E1E1E"/>
<rect x="430.5" y="156.5" width="33" height="3" rx="1.5" fill="#D9D9D9" stroke="#1E1E1E"/>
<rect x="430.5" y="164.5" width="33" height="3" rx="1.5" fill="#D9D9D9" stroke="#1E1E1E"/>
<rect x="430.5" y="172.5" width="33" height="3" rx="1.5" fill="#D9D9D9" stroke="#1E1E1E"/>
<circle cx="387.5" cy="152.5" r="16" fill="#D0FF0D" stroke="black"/>
<circle cx="382.5" cy="180.5" r="11" fill="#6CAE69" stroke="black"/>
<circle cx="406" cy="176" r="8.5" fill="#00FFF0" stroke="black"/>
<circle cx="415" cy="153" r="7.5" fill="#9FCB9D" stroke="black"/>
<rect x="247.5" y="230.5" width="225" height="85" rx="3.5" fill="white" stroke="black"/>
<rect x="256.5" y="241.5" width="47" height="7" rx="3.5" fill="#D9D9D9" stroke="#1E1E1E"/>
<rect x="256.5" y="258.5" width="47" height="3" fill="#D9D9D9" stroke="#1E1E1E"/>
<rect x="256.5" y="271.5" width="47" height="3" fill="#D9D9D9" stroke="#1E1E1E"/>
<rect x="256.5" y="284.5" width="47" height="3" fill="#D9D9D9" stroke="#1E1E1E"/>
<rect x="256.5" y="297.5" width="47" height="3" fill="#D9D9D9" stroke="#1E1E1E"/>
<rect x="308.5" y="241.5" width="47" height="7" rx="3.5" fill="#D9D9D9" stroke="#1E1E1E"/>
<rect x="308.5" y="258.5" width="47" height="3" fill="#D9D9D9" stroke="#1E1E1E"/>
<rect x="308.5" y="271.5" width="47" height="3" fill="#D9D9D9" stroke="#1E1E1E"/>
<rect x="308.5" y="284.5" width="47" height="3" fill="#D9D9D9" stroke="#1E1E1E"/>
<rect x="308.5" y="297.5" width="47" height="3" fill="#D9D9D9" stroke="#1E1E1E"/>
<rect x="360.5" y="241.5" width="47" height="7" rx="3.5" fill="#D9D9D9" stroke="#1E1E1E"/>
<rect x="360.5" y="258.5" width="47" height="3" fill="#D9D9D9" stroke="#1E1E1E"/>
<rect x="360.5" y="271.5" width="47" height="3" fill="#D9D9D9" stroke="#1E1E1E"/>
<rect x="360.5" y="284.5" width="47" height="3" fill="#D9D9D9" stroke="#1E1E1E"/>
<rect x="360.5" y="297.5" width="47" height="3" fill="#D9D9D9" stroke="#1E1E1E"/>
<rect x="412.5" y="241.5" width="47" height="7" rx="3.5" fill="#D9D9D9" stroke="#1E1E1E"/>
<rect x="412.5" y="258.5" width="47" height="3" fill="#D9D9D9" stroke="#1E1E1E"/>
<rect x="412.5" y="271.5" width="47" height="3" fill="#D9D9D9" stroke="#1E1E1E"/>
<rect x="412.5" y="284.5" width="47" height="3" fill="#D9D9D9" stroke="#1E1E1E"/>
<rect x="412.5" y="297.5" width="47" height="3" fill="#D9D9D9" stroke="#1E1E1E"/>
<g filter="url(#filter1_d_124_6267)">
<path d="M27 137C27 132.582 30.5817 129 35 129H228C232.418 129 236 132.582 236 137V338H27V137Z" fill="white"/>
<path d="M27.5 137C27.5 132.858 30.8579 129.5 35 129.5H228C232.142 129.5 235.5 132.858 235.5 137V337.5H27.5V137Z" stroke="black"/>
</g>
<path d="M52.144 151.024H47.472V162H49.04V157.392H51.824C52.832 157.392 53.696 158.336 53.696 159.92C53.696 161.744 54.448 162.096 55.328 162.096C55.584 162.096 55.84 162.048 56.08 161.952V161.504C55.568 161.328 55.264 161.104 55.264 159.28C55.264 158.048 54.48 157.024 53.504 156.64V156.56C54.496 156.144 55.472 155.264 55.472 153.632C55.472 151.984 54.016 151.024 52.144 151.024ZM52.224 152.448C53.296 152.448 53.904 153.088 53.904 154C53.904 155.072 53.136 155.968 52.16 155.968H49.04V152.448H52.224ZM61.233 153.664H61.121C58.849 153.664 57.441 155.328 57.441 157.76V158.08C57.441 160.544 58.849 162.16 61.169 162.16H61.233C63.233 162.16 64.657 160.896 64.657 158.96H63.233C63.233 159.92 62.721 160.96 61.265 160.96C59.729 160.96 58.993 159.952 58.945 158.256H64.657V157.12C64.657 155.008 63.249 153.664 61.233 153.664ZM61.153 154.864C62.369 154.864 63.169 155.6 63.169 157.088H58.977C59.153 155.6 59.953 154.864 61.153 154.864ZM70.6996 153.664C69.6276 153.664 68.7796 154.096 68.1716 154.944L67.9636 153.824H66.8436V164.896H68.3476V160.96C68.9076 161.76 69.6916 162.16 70.6996 162.16C72.8116 162.16 74.0116 160.576 74.0116 158.096V157.92C74.0116 155.264 72.7636 153.664 70.6996 153.664ZM70.4116 154.864C71.7556 154.864 72.5076 155.824 72.5076 157.808V157.952C72.5076 159.952 71.8036 160.96 70.4116 160.96C69.0196 160.96 68.3316 160.016 68.3316 157.952V157.872C68.3316 155.84 69.0036 154.864 70.4116 154.864ZM79.4038 162.16H79.4838C81.7398 162.16 83.1958 160.64 83.1958 158.208V157.616C83.1958 155.152 81.7398 153.664 79.4678 153.664H79.3878C77.1318 153.664 75.6758 155.136 75.6758 157.616V158.208C75.6758 160.656 77.1318 162.16 79.4038 162.16ZM79.4358 160.96C77.9798 160.96 77.1798 159.904 77.1798 158.064V157.76C77.1798 155.84 78.0278 154.864 79.4358 154.864C80.8918 154.864 81.6918 155.92 81.6918 157.76V158.064C81.6918 159.984 80.8278 160.96 79.4358 160.96ZM89.0393 153.664C87.7593 153.664 86.9913 154.384 86.6553 155.04L86.4313 153.824H85.3593V162H86.8633V157.12C86.8633 155.744 87.4713 154.864 88.5753 154.864C89.5993 154.864 90.0793 155.456 90.0793 156.48V156.832H91.4073C91.4393 156.624 91.4553 156.432 91.4553 156.224C91.4553 154.816 90.6233 153.664 89.0393 153.664ZM94.019 151.216L93.507 153.824H92.563V155.024H93.459V159.824C93.459 161.488 94.147 162.16 95.379 162.16C95.987 162.16 96.483 162.064 96.867 161.872V160.752C96.483 160.912 96.147 160.992 95.875 160.992C95.267 160.992 94.963 160.688 94.963 159.904V155.024H96.867V153.824H94.963V151.216H94.019ZM100.27 150.48H98.7023V151.872H100.27V150.48ZM98.7343 153.824V162H100.238V153.824H98.7343ZM106.923 153.664C105.786 153.664 104.875 154.112 104.187 155.024L103.979 153.824H102.891V162H104.395V157.136C104.395 155.872 105.419 154.864 106.571 154.864C107.595 154.864 108.299 155.376 108.299 156.768V162H109.803V156.496C109.803 154.608 108.667 153.664 106.923 153.664ZM115.591 153.664C113.511 153.664 112.295 154.672 112.295 156.24C112.295 157.168 112.647 157.84 113.367 158.24C112.583 158.512 112.087 159.072 112.087 159.856C112.087 160.432 112.327 160.88 112.823 161.184C112.119 161.488 111.623 162.176 111.623 163.088C111.623 164 112.487 165.008 113.607 165.008H116.823C118.679 165.008 119.863 164.064 119.863 162.608C119.863 161.408 119.063 160.512 117.783 160.512H114.695C114.007 160.512 113.575 160.192 113.575 159.68C113.575 159.168 114.055 158.8 114.695 158.8H115.783C117.799 158.8 118.999 157.76 118.999 156.24C118.999 155.52 118.727 154.944 118.199 154.48L118.231 154.432C119.255 154.224 119.863 153.424 119.863 152.352H118.583C118.471 153.04 118.039 153.568 117.287 153.936C116.775 153.744 116.247 153.664 115.591 153.664ZM115.639 154.864C116.679 154.864 117.511 155.232 117.511 156.24C117.511 157.248 116.679 157.6 115.639 157.6C114.599 157.6 113.783 157.248 113.783 156.24C113.783 155.232 114.599 154.864 115.639 154.864ZM117.335 161.952C118.023 161.952 118.375 162.32 118.375 162.832C118.375 163.344 117.815 163.808 117.127 163.808H114.039C113.527 163.808 113.111 163.392 113.111 162.88C113.111 162.368 113.527 161.952 114.039 161.952H117.335Z" fill="black"/>
<path d="M43.5 188C43.5 186.067 45.067 184.5 47 184.5H216C217.933 184.5 219.5 186.067 219.5 188V216C219.5 217.933 217.933 219.5 216 219.5H47C45.067 219.5 43.5 217.933 43.5 216V188Z" stroke="black"/>
<path d="M43.5 188C43.5 186.067 45.067 184.5 47 184.5H216C217.933 184.5 219.5 186.067 219.5 188V189.5H43.5V188Z" fill="#D0FF0D" stroke="black"/>
<rect x="85.5" y="195.5" width="76" height="3" rx="1.5" fill="#D9D9D9" stroke="black"/>
<rect x="85.5" y="204.5" width="118" height="8" rx="4" fill="#D9D9D9" stroke="black"/>
<circle cx="62" cy="204" r="8.5" fill="#D0FF0D" stroke="black"/>
<path d="M43.5 232C43.5 230.067 45.067 228.5 47 228.5H216C217.933 228.5 219.5 230.067 219.5 232V260C219.5 261.933 217.933 263.5 216 263.5H47C45.067 263.5 43.5 261.933 43.5 260V232Z" stroke="black"/>
<path d="M43.5 232C43.5 230.067 45.067 228.5 47 228.5H216C217.933 228.5 219.5 230.067 219.5 232V233.5H43.5V232Z" fill="#D0FF0D" stroke="black"/>
<rect x="85.5" y="239.5" width="76" height="3" rx="1.5" fill="#D9D9D9" stroke="black"/>
<rect x="85.5" y="248.5" width="118" height="8" rx="4" fill="#D9D9D9" stroke="black"/>
<circle cx="62" cy="248" r="8.5" fill="#D0FF0D" stroke="black"/>
<path d="M43.5 276C43.5 274.067 45.067 272.5 47 272.5H216C217.933 272.5 219.5 274.067 219.5 276V304C219.5 305.933 217.933 307.5 216 307.5H47C45.067 307.5 43.5 305.933 43.5 304V276Z" stroke="black"/>
<path d="M43.5 276C43.5 274.067 45.067 272.5 47 272.5H216C217.933 272.5 219.5 274.067 219.5 276V277.5H43.5V276Z" fill="#D0FF0D" stroke="black"/>
<rect x="85.5" y="283.5" width="76" height="3" rx="1.5" fill="#D9D9D9" stroke="black"/>
<rect x="85.5" y="292.5" width="118" height="8" rx="4" fill="#D9D9D9" stroke="black"/>
<circle cx="62" cy="292" r="8.5" fill="#D0FF0D" stroke="black"/>
<defs>
<filter id="filter0_d_124_6267" x="224" y="5" width="275" height="341" filterUnits="userSpaceOnUse" color-interpolation-filters="sRGB">
<feFlood flood-opacity="0" result="BackgroundImageFix"/>
<feColorMatrix in="SourceAlpha" type="matrix" values="0 0 0 0 0 0 0 0 0 0 0 0 0 0 0 0 0 0 127 0" result="hardAlpha"/>
<feOffset dx="4"/>
<feGaussianBlur stdDeviation="4"/>
<feComposite in2="hardAlpha" operator="out"/>
<feColorMatrix type="matrix" values="0 0 0 0 0.3 0 0 0 0 0.29625 0 0 0 0 0.29625 0 0 0 0.23 0"/>
<feBlend mode="normal" in2="BackgroundImageFix" result="effect1_dropShadow_124_6267"/>
<feBlend mode="normal" in="SourceGraphic" in2="effect1_dropShadow_124_6267" result="shape"/>
</filter>
<filter id="filter1_d_124_6267" x="23" y="121" width="225" height="225" filterUnits="userSpaceOnUse" color-interpolation-filters="sRGB">
<feFlood flood-opacity="0" result="BackgroundImageFix"/>
<feColorMatrix in="SourceAlpha" type="matrix" values="0 0 0 0 0 0 0 0 0 0 0 0 0 0 0 0 0 0 127 0" result="hardAlpha"/>
<feOffset dx="4"/>
<feGaussianBlur stdDeviation="4"/>
<feComposite in2="hardAlpha" operator="out"/>
<feColorMatrix type="matrix" values="0 0 0 0 0.3 0 0 0 0 0.29625 0 0 0 0 0.29625 0 0 0 0.23 0"/>
<feBlend mode="normal" in2="BackgroundImageFix" result="effect1_dropShadow_124_6267"/>
<feBlend mode="normal" in="SourceGraphic" in2="effect1_dropShadow_124_6267" result="shape"/>
</filter>
<linearGradient id="paint0_linear_124_6267" x1="300" y1="140.792" x2="300" y2="197" gradientUnits="userSpaceOnUse">
<stop stop-color="#9FCB9D"/>
<stop offset="1" stop-color="#D9D9D9" stop-opacity="0"/>
</linearGradient>
</defs>
</svg>
