<svg width="50" height="50" viewBox="0 0 50 50" fill="none" xmlns="http://www.w3.org/2000/svg">
<path d="M5.79496 8.00184C5.71771 7.99734 5.63859 8.00251 5.56059 8.01551L3.82621 8.31824C3.34821 8.40224 3.00004 8.81857 3.00004 9.30457V13.3534L2.71684 13.6444C2.53784 13.8284 2.43663 14.072 2.43363 14.328C2.42763 14.846 2.41824 15.4126 2.40824 15.8026C2.16624 15.9866 2.02262 16.271 2.01762 16.58C2.01762 16.58 1.99904 17.9056 2.00004 18.0136C2.06404 22.6756 2.82555 24.6428 2.85355 24.7108L2.93559 24.9276C3.04759 25.2236 3.29365 25.449 3.59965 25.535L4.83207 26.2245L5.61332 27.8397C5.75232 28.1257 6.01907 28.3286 6.33207 28.3866L6.96098 28.4979L7.70707 28.5682C7.79107 28.6862 7.90129 28.7863 8.03129 28.8593L11.0801 30.5604C11.1791 30.6154 11.2884 30.6528 11.4004 30.6718L14.252 31.1542C14.529 31.2022 14.8132 31.129 15.0352 30.955C15.1042 30.901 15.1648 30.8394 15.2168 30.7714L15.5293 30.7929L17 32.2382V32.4686C17 32.8376 17.2033 33.1774 17.5293 33.3514L18.5293 33.8827C18.6743 33.9597 18.836 33.9999 19 33.9999H20.4629L21.3418 35.3241L21.6211 36.2987C21.7061 36.5937 21.9221 36.8322 22.2071 36.9472L24.625 37.9276C24.935 38.0526 25.2846 38.016 25.5586 37.828C25.8346 37.643 26 37.3329 26 36.9999V35.4139L27.4141 33.9999H29C29.211 33.9999 29.4169 33.9334 29.5879 33.8104L29.8223 33.6386L30.084 33.8202C30.252 33.9362 30.4503 33.9999 30.6543 33.9999H32C32.266 33.9999 32.5201 33.8949 32.7071 33.7069L33.4141 32.9999H35.9864C36.1204 32.9999 36.254 32.9738 36.377 32.9218L37.1133 32.6093L37.3594 32.7753L38 33.4139V33.8593C38 34.0763 38.0712 34.2878 38.2032 34.4628L38.7422 35.1776V35.2011C38.7422 35.4771 38.8566 35.7406 39.0586 35.9296L39.6036 36.4413L40.1055 37.4472C40.2485 37.7352 40.5229 37.9352 40.8399 37.9862C40.8939 37.9952 40.946 37.9999 41 37.9999C41.263 37.9999 41.5191 37.8959 41.7071 37.7069L42.7071 36.7069C42.8951 36.5199 43 36.2649 43 35.9999V34.9999C43 34.8209 42.9514 34.6451 42.8594 34.4901L42 33.037V33.0057C42.001 32.8487 41.9655 32.6946 41.8965 32.5546L40.9629 30.6757L40.9903 29.4237L44.7071 25.7069C44.8951 25.5199 45 25.2649 45 24.9999V22.9999C45 22.7349 44.8951 22.4799 44.7071 22.2929L44 21.5858V20.9022L44.1309 20.8905C44.6459 20.8385 45.0354 20.3997 45.0274 19.8807L45.0098 18.7186L47.3164 17.9491C47.7254 17.8131 48 17.4309 48 16.9999V15.9999C48 15.4479 47.553 14.9999 47 14.9999V14.535L48.5547 13.4979C48.8327 13.3129 49 13.0019 49 12.6679V11.9999C49 11.7349 48.8951 11.4799 48.7071 11.2929L48 10.5858V9.99989C48 9.44789 47.553 8.99989 47 8.99989H46C45.621 8.99989 45.2755 9.21362 45.1055 9.55262L44.1055 11.5526C44.0365 11.6906 44 11.8449 44 11.9999V12.2792L41.6836 13.0507C41.2746 13.1867 41 13.5689 41 13.9999V14.9999H40C39.555 14.9999 39.1611 15.2955 39.0391 15.7245L38.6543 17.0624C38.6193 17.0744 38.5858 17.0903 38.5528 17.1073L38 17.3827V15.9999C38 15.4479 37.553 14.9999 37 14.9999C37 14.4479 36.553 13.9999 36 13.9999H35V12.9999C35 12.4999 34.6318 12.0777 34.1368 12.0097L31.9571 11.7108C31.9481 11.6798 31.9369 11.6481 31.9239 11.6171C31.7699 11.2441 31.404 10.9999 31 10.9999H27.4141L26.7071 10.2929C26.5241 10.1089 26.2757 10.0039 26.0157 9.99989L17.9278 9.87684L11.1289 8.8534L8.10746 8.66981L6.02348 8.04285C5.94848 8.02085 5.87221 8.00634 5.79496 8.00184ZM5.67191 10.0253L7.64066 10.619C7.71566 10.642 7.79218 10.656 7.86918 10.66L10.9121 10.8417L17.7071 11.8671C17.7491 11.8731 17.792 11.8758 17.834 11.8768L25.5782 11.994L26.293 12.7069C26.48 12.8949 26.734 12.9999 27 12.9999H28.586L28.293 13.2929C28.007 13.5789 27.9212 14.0087 28.0762 14.3827C28.2302 14.7557 28.596 14.9999 29 14.9999H30C30.221 14.9999 30.4354 14.9279 30.6094 14.7929L31.9883 13.7323L32.5039 13.8046L32.4668 13.828C32.2208 13.994 32.0613 14.2616 32.0313 14.5546L31.293 15.2929C31.105 15.4799 31 15.7349 31 15.9999V16.9999C31 17.1549 31.0365 17.3092 31.1055 17.4472L32.1055 19.4472C32.3125 19.8622 32.7806 20.0785 33.2286 19.9725C33.6806 19.8665 34 19.4639 34 18.9999V17.4198L34.0918 17.33C34.2558 17.17 34.3608 16.9593 34.3868 16.7323C34.3868 16.7293 34.4308 16.3475 34.4668 16.0975C34.4878 16.0675 34.5102 16.0349 34.5332 15.9999H35C35 16.5519 35.447 16.9999 36 16.9999V17.5858L35.293 18.2929C35.007 18.5789 34.9212 19.0087 35.0762 19.3827C35.2302 19.7557 35.596 19.9999 36 19.9999H37.0079C37.1639 19.9999 37.3161 19.9634 37.4551 19.8944L39.2364 18.9999H39.4239C39.8689 18.9999 40.2618 18.7052 40.3848 18.2772L40.7539 16.9999H42C42.553 16.9999 43 16.5519 43 15.9999V14.7206L45 14.0546V15.9999C45 16.2059 45.064 16.3975 45.17 16.5565L43.6836 17.0507C43.2706 17.1887 42.993 17.5795 43 18.0155L43.0137 18.9921L42.8985 19.0057C42.3885 19.0577 42 19.4869 42 19.9999V21.9999C42 22.2649 42.105 22.5199 42.293 22.7069L43 23.4139V24.5858L39.293 28.2929C39.11 28.4749 39.0041 28.7204 38.9981 28.9784L38.9571 30.8788C38.9541 31.0398 38.9886 31.1986 39.0606 31.3436L39.3594 31.9472L38.7051 31.2929C38.6611 31.2469 38.6116 31.2078 38.5586 31.1718L37.7832 30.6483C37.5032 30.4593 37.149 30.4255 36.836 30.5565L35.7832 30.9999H33C32.734 30.9999 32.48 31.1049 32.293 31.2929L31.586 31.9999H30.9688L30.3829 31.5917C30.0339 31.3487 29.5686 31.3524 29.2246 31.6034L28.6758 31.9999H27C26.734 31.9999 26.48 32.1049 26.293 32.2929L24.293 34.2929C24.105 34.4799 24 34.7349 24 34.9999V35.5175L23.4082 35.2772L23.2207 34.6229C23.1927 34.5249 23.1508 34.4325 23.0938 34.3475L21.8321 32.4472C21.6471 32.1682 21.335 31.9999 21 31.9999H19.25L19 31.8671V31.8182C19 31.5502 18.8932 31.2934 18.7012 31.1054L16.668 29.1054C16.497 28.9374 16.2703 28.8362 16.0313 28.8202L14.5157 28.7206C14.2077 28.7036 13.9187 28.823 13.7207 29.035L11.9043 28.7284L9.42582 27.3475C9.31082 26.9625 8.97154 26.6795 8.56254 26.6405L7.23637 26.5194L6.50395 25.0839C6.41895 24.9099 6.28518 24.7639 6.11918 24.6639L4.68168 23.7987C4.67168 23.7927 4.66143 23.7852 4.65043 23.7792C4.48043 23.1982 4.04704 21.3931 4.00004 17.9921C4.00004 17.9261 4.0048 17.5393 4.0098 17.1913C4.3778 16.9763 4.40373 16.7198 4.42973 14.7538L4.71684 14.455C4.89784 14.268 5.00004 14.0197 5.00004 13.7597V10.1444L5.67191 10.0253ZM46.2735 11.6893C46.2795 11.6953 46.286 11.7009 46.293 11.7069L46.8301 12.246L46 12.7987V12.2362L46.2735 11.6893ZM6.20902 33.994C6.07315 34.0228 5.94316 34.0785 5.82816 34.162L4.41215 35.1893C4.14815 35.3803 4.00004 35.6839 4.00004 35.9999C3.56404 35.9999 3.17796 36.2821 3.04496 36.6991C2.90996 37.1291 3.07712 37.5957 3.45512 37.8397L3.51762 37.8788L3.15043 38.4725C2.87743 38.9135 2.98543 39.4897 3.40043 39.8007L3.93754 40.203L4.05473 40.4882L3.57035 40.9999H3.00004C2.44704 40.9999 2.00004 41.4479 2.00004 41.9999C2.00004 42.5519 2.44704 42.9999 3.00004 42.9999H4.00004H4.00199H4.00395H4.0059H4.00785H4.0098H4.01176H4.01371H4.01566H4.01762H4.01957C4.16057 42.9969 4.29787 42.9632 4.42387 42.9042L5.77348 42.2772C5.98448 42.1782 6.1549 42.0097 6.2559 41.7987L6.63285 40.9999H7.00004C7.50204 40.9999 7.91732 40.6303 7.98832 40.1483H7.99027C8.08027 40.4623 8.31699 40.7122 8.62699 40.8182L9.95512 41.2733L11 41.8495V41.9999C11 42.5519 11.447 42.9999 12 42.9999C12.553 42.9999 13 42.5519 13 41.9999V40.9999V40.9979V40.996V40.994C12.999 40.742 12.9021 40.5108 12.7461 40.3358C12.7241 40.3098 12.6989 40.2856 12.6739 40.2616C12.6429 40.2336 12.6083 40.2075 12.5743 40.1835L10.8789 38.955C10.8279 38.918 10.7738 38.8853 10.7168 38.8593L10.0059 38.5272L10 35.9979C9.99904 35.4459 9.55204 34.9999 9.00004 34.9999H7.58012L7.28324 34.4764C7.14324 34.2294 6.90499 34.054 6.62699 33.994C6.48749 33.9635 6.3449 33.9653 6.20902 33.994ZM13.1621 35.9764C12.6951 35.9414 12.2887 36.2173 12.1407 36.6483L12.0547 36.8944C12.0187 36.9984 12 37.1096 12 37.2206V37.4139C12 37.9219 12.3818 38.3501 12.8868 38.4081L13.3008 38.4921C13.3928 38.5181 13.4862 38.5311 13.5782 38.5311C13.9822 38.5311 14.3598 38.2865 14.5118 37.8905L14.6407 37.5565C14.7867 37.1735 14.6858 36.7398 14.3848 36.4628L14.1739 36.2694C14.0089 36.1174 13.7983 36.0257 13.5743 36.0077L13.1621 35.9764ZM6.14652 36.5194C6.32752 36.8164 6.65004 36.9999 7.00004 36.9999H8.00199L8.00395 37.9999H8.00004H7.00004C6.44704 37.9999 6.00004 38.4479 6.00004 38.9999C5.87004 38.9999 5.74299 39.0252 5.62699 39.0722C5.59099 39.0092 5.54904 38.9504 5.50004 38.8964C5.57004 38.8364 5.63259 38.7654 5.68559 38.6854L5.95707 38.2714C6.09607 38.0574 6.14855 37.7987 6.10355 37.5487C6.23155 37.3307 6.27288 37.0702 6.21488 36.8202L6.14652 36.5194ZM16.2422 37.9823C16.1536 37.9943 16.0667 38.0183 15.9825 38.0546L15.7579 38.1522C15.7089 38.1732 15.6603 38.1984 15.6153 38.2264L15.4649 38.3222C15.1759 38.5052 15 38.8259 15 39.1679C15 39.9769 15.3971 40.2612 15.7051 40.3612C15.8251 40.4192 16.0032 40.4999 16.2422 40.4999C16.2762 40.4999 16.4548 40.4931 16.5528 40.4901L16.6153 40.496C16.6443 40.499 16.6742 40.4999 16.7032 40.4999C17.1872 40.4999 17.6065 40.1519 17.6895 39.6679L17.7305 39.4296C17.7915 39.0706 17.6513 38.7064 17.3653 38.4804L16.9981 38.1893C16.7821 38.0176 16.5081 37.9462 16.2422 37.9823ZM19.1016 40.0214L19.0704 40.0272C18.8494 40.0722 18.5894 40.2634 18.4434 40.4354C18.3904 40.4984 18.3446 40.5665 18.3086 40.6405L18.1582 40.912C18.0122 41.153 17.9757 41.4457 18.0567 41.7167L18.1504 42.0253C18.1624 42.0623 18.1735 42.0987 18.1895 42.1347L18.2891 42.3632C18.4271 42.6822 18.7214 42.9079 19.0664 42.9569L19.2969 42.9901C19.3439 42.9971 19.3905 42.9999 19.4375 42.9999C19.6815 42.9999 19.9176 42.9109 20.1016 42.7499L20.1289 42.7421C20.2929 42.6971 20.4435 42.6101 20.5645 42.4901L20.7168 42.3397C20.9738 42.0867 21.0745 41.7141 20.9805 41.3671L20.9356 41.1972C20.8946 41.0452 20.8169 40.904 20.7129 40.787L20.3829 40.4198C20.2499 40.2718 20.0749 40.1651 19.8829 40.1171L19.545 40.0331C19.401 39.9971 19.2486 39.9924 19.1016 40.0214Z" fill="white"/>
</svg>
