<svg width="448*240.98/293" height="240.98" viewBox="0 0 448 293" fill="none" xmlns="http://www.w3.org/2000/svg">
<path d="M393.497 196.12L393.46 196.075L393.457 196.073C393.07 195.61 392.79 195.067 392.635 194.484C392.48 193.9 392.456 193.29 392.562 192.696C392.669 192.102 392.905 191.539 393.253 191.045C393.602 190.552 394.054 190.142 394.578 189.842L394.887 189.666L394.822 189.316L391.961 174.061L398.72 176.899L400.357 191.452L400.367 191.538L400.405 191.616C400.85 192.53 400.944 193.576 400.67 194.555C400.395 195.534 399.771 196.378 398.915 196.928C398.059 197.478 397.03 197.695 396.025 197.538C395.039 197.383 394.141 196.88 393.497 196.12Z" fill="#FFB6B6" stroke="black"/>
<path d="M28.6592 9.98486H373.838V173.152H28.6592V9.98486Z" fill="#E6E6E6" stroke="black"/>
<path d="M38.5586 24.0625H363.939V160.032H38.5586V24.0625Z" fill="white" stroke="black"/>
<path d="M28.5117 0.5H373.69V14.1977H28.5117V0.5Z" fill="#F99A6E" stroke="black"/>
<path d="M38.9407 9.52254C40.4461 9.52254 41.6665 8.30289 41.6665 6.79838C41.6665 5.29387 40.4461 4.07422 38.9407 4.07422C37.4352 4.07422 36.2148 5.29387 36.2148 6.79838C36.2148 8.30289 37.4352 9.52254 38.9407 9.52254Z" fill="white"/>
<path d="M49.2864 9.52254C50.7918 9.52254 52.0122 8.30289 52.0122 6.79838C52.0122 5.29387 50.7918 4.07422 49.2864 4.07422C47.7809 4.07422 46.5605 5.29387 46.5605 6.79838C46.5605 8.30289 47.7809 9.52254 49.2864 9.52254Z" fill="white"/>
<path d="M59.6331 9.52254C61.1385 9.52254 62.3589 8.30289 62.3589 6.79838C62.3589 5.29387 61.1385 4.07422 59.6331 4.07422C58.1276 4.07422 56.9072 5.29387 56.9072 6.79838C56.9072 8.30289 58.1276 9.52254 59.6331 9.52254Z" fill="white"/>
<path d="M56.4919 112.458C56.6655 112.284 56.9009 112.186 57.1469 112.185H135.631C135.877 112.186 136.113 112.284 136.286 112.458C136.46 112.633 136.558 112.869 136.558 113.114C136.558 113.36 136.46 113.596 136.286 113.77C136.113 113.944 135.877 114.043 135.631 114.044H57.1469C56.9009 114.043 56.6655 113.944 56.4919 113.77C56.3182 113.596 56.2207 113.36 56.2207 113.114C56.2207 112.869 56.3182 112.633 56.4919 112.458Z" fill="#E6E6E6" stroke="black"/>
<path d="M56.4919 121.036C56.6655 120.862 56.9009 120.764 57.1469 120.763H97.2139C97.4598 120.764 97.6953 120.862 97.8689 121.036C98.0426 121.21 98.1401 121.446 98.1401 121.692C98.1401 121.938 98.0426 122.174 97.8689 122.348C97.6953 122.522 97.4598 122.62 97.2139 122.622H57.1469C56.9009 122.62 56.6655 122.522 56.4919 122.348C56.3182 122.174 56.2207 121.938 56.2207 121.692C56.2207 121.446 56.3182 121.21 56.4919 121.036Z" fill="#E6E6E6" stroke="black"/>
<path d="M135.73 135.957H105.917C105.663 135.956 105.42 135.856 105.24 135.676C105.061 135.497 104.96 135.254 104.96 135.001V130.228C104.96 129.974 105.061 129.731 105.24 129.552C105.42 129.373 105.663 129.272 105.917 129.272H135.73C135.984 129.272 136.227 129.373 136.407 129.552C136.586 129.731 136.687 129.974 136.687 130.228V135.001C136.687 135.254 136.586 135.497 136.407 135.676C136.227 135.856 135.984 135.956 135.73 135.957Z" fill="#F9A826" stroke="black"/>
<path d="M135.73 86.2441H105.917C105.663 86.2438 105.42 86.1429 105.24 85.9636C105.061 85.7844 104.96 85.5415 104.96 85.2882V80.5149C104.96 80.2616 105.061 80.0187 105.24 79.8394C105.42 79.6602 105.663 79.5593 105.917 79.559H135.73C135.984 79.5593 136.227 79.6602 136.407 79.8394C136.586 80.0187 136.687 80.2617 136.687 80.5151V85.288C136.687 85.5414 136.586 85.7844 136.407 85.9636C136.227 86.1429 135.984 86.2438 135.73 86.2441Z" fill="#F9A826" stroke="black"/>
<path d="M187.317 48.4179C187.573 48.162 187.92 48.0179 188.282 48.0172H344.379C344.741 48.0179 345.088 48.162 345.343 48.4179C345.599 48.6739 345.743 49.0208 345.743 49.3824C345.743 49.7441 345.599 50.091 345.343 50.347C345.088 50.6029 344.741 50.747 344.379 50.7477H188.282C187.92 50.747 187.573 50.6029 187.317 50.347C187.062 50.091 186.918 49.7441 186.918 49.3824C186.918 49.0208 187.062 48.6739 187.317 48.4179Z" fill="#E6E6E6" stroke="black"/>
<path d="M187.317 59.6103C187.573 59.3544 187.92 59.2103 188.282 59.2096H294.25C294.612 59.2103 294.959 59.3544 295.215 59.6103C295.47 59.8663 295.614 60.2132 295.614 60.5748C295.614 60.9365 295.47 61.2834 295.215 61.5393C294.959 61.7952 294.612 61.9394 294.25 61.9401H188.282C187.92 61.9394 187.573 61.7952 187.317 61.5393C187.062 61.2834 186.918 60.9365 186.918 60.5748C186.918 60.2132 187.062 59.8663 187.317 59.6103Z" fill="#E6E6E6" stroke="black"/>
<path d="M187.317 70.5496C187.573 70.2937 187.92 70.1496 188.282 70.1489H344.379C344.741 70.1496 345.088 70.2937 345.343 70.5496C345.599 70.8056 345.743 71.1525 345.743 71.5142C345.743 71.8758 345.599 72.2227 345.343 72.4787C345.088 72.7346 344.741 72.8787 344.379 72.8794H188.282C187.92 72.8787 187.573 72.7346 187.317 72.4787C187.062 72.2227 186.918 71.8758 186.918 71.5142C186.918 71.1525 187.062 70.8056 187.317 70.5496Z" fill="#E6E6E6" stroke="black"/>
<path d="M187.317 81.742C187.573 81.4861 187.92 81.342 188.282 81.3413H294.25C294.612 81.342 294.959 81.4861 295.215 81.742C295.47 81.998 295.614 82.3449 295.614 82.7066C295.614 83.0682 295.47 83.4151 295.215 83.6711C294.959 83.927 294.612 84.0711 294.25 84.0718H188.282C187.92 84.0711 187.573 83.927 187.317 83.6711C187.062 83.4151 186.918 83.0682 186.918 82.7066C186.918 82.3449 187.062 81.998 187.317 81.742Z" fill="#E6E6E6" stroke="black"/>
<path d="M344.837 104.549H315.023C314.77 104.548 314.526 104.447 314.347 104.268C314.168 104.089 314.067 103.846 314.066 103.593V98.8194C314.067 98.5661 314.168 98.3232 314.347 98.144C314.526 97.9648 314.769 97.8639 315.023 97.8635H344.837C345.091 97.8639 345.334 97.9648 345.513 98.144C345.693 98.3233 345.793 98.5663 345.794 98.8197V103.593C345.793 103.846 345.693 104.089 345.513 104.268C345.334 104.447 345.09 104.548 344.837 104.549Z" fill="#F9A826" stroke="black"/>
<path d="M90.4922 51.0725C90.4918 50.7282 90.5797 50.4397 90.6961 50.2531C90.8163 50.0603 90.9193 50.0379 90.9506 50.0376H136.168C136.2 50.0379 136.302 50.0601 136.422 50.2517C136.538 50.4372 136.626 50.7243 136.627 51.0677C136.627 51.412 136.539 51.7005 136.423 51.8871C136.303 52.0799 136.2 52.1023 136.168 52.1026H90.9506C90.9194 52.1023 90.8169 52.0801 90.697 51.8885C90.5808 51.7029 90.4926 51.4159 90.4922 51.0725Z" fill="#E4E4E4" stroke="black"/>
<path d="M90.4922 59.9529C90.4918 59.6085 90.5797 59.3201 90.6961 59.1335C90.8163 58.9407 90.9193 58.9183 90.9506 58.918H136.168C136.2 58.9183 136.302 58.9405 136.422 59.1321C136.538 59.3176 136.626 59.6047 136.627 59.948C136.627 60.2924 136.539 60.5808 136.423 60.7674C136.303 60.9602 136.2 60.9827 136.168 60.983H90.9506C90.9194 60.9827 90.8169 60.9605 90.697 60.7688C90.5808 60.5833 90.4926 60.2962 90.4922 59.9529Z" fill="#E4E4E4" stroke="black"/>
<path d="M90.4922 68.7258C90.4918 68.3815 90.5797 68.093 90.6961 67.9064C90.8163 67.7136 90.9193 67.6912 90.9506 67.6909H110.407C110.438 67.6912 110.54 67.7134 110.66 67.905C110.776 68.0906 110.865 68.3777 110.865 68.721C110.865 69.0653 110.777 69.3538 110.661 69.5404C110.541 69.7332 110.438 69.7556 110.407 69.7559H90.9506C90.9194 69.7556 90.8169 69.7334 90.697 69.5418C90.5808 69.3563 90.4926 69.0692 90.4922 68.7258Z" fill="#E4E4E4" stroke="black"/>
<path d="M79.7605 59.7806C79.7605 66.277 74.4908 71.5439 67.9896 71.5439C61.4885 71.5439 56.2188 66.277 56.2188 59.7806C56.2188 53.2841 61.4885 48.0172 67.9896 48.0172C74.4908 48.0172 79.7605 53.2841 79.7605 59.7806Z" fill="#E4E4E4" stroke="black"/>
<path d="M322.57 102.684L322.571 102.681C322.695 101.672 323.185 100.743 323.948 100.071C324.712 99.3985 325.696 99.0294 326.713 99.0336C327.731 99.0378 328.712 99.4149 329.47 100.093C330.228 100.772 330.71 101.705 330.826 102.715L330.836 102.8L330.874 102.878L337.315 116.032L333.14 122.054L327.353 107.651L327.221 107.321L326.865 107.338C326.262 107.367 325.66 107.263 325.101 107.034C324.542 106.805 324.04 106.457 323.63 106.013C323.221 105.569 322.914 105.041 322.731 104.466C322.548 103.891 322.493 103.283 322.57 102.684Z" fill="#FFB6B6" stroke="black"/>
<path d="M390.721 264.934L390.72 285.7H386.015L383.452 264.934L390.721 264.934Z" fill="#FFB6B6" stroke="black"/>
<rect x="380.858" y="107.313" width="3.90155" height="11.7391" fill="#FFB6B6" stroke="black"/>
<path d="M392.16 291.171L392.161 284.858L381.54 284.858H381.54H381.54L392.16 291.171ZM392.16 291.171L374.959 291.17M392.16 291.171L374.959 291.17M374.959 291.17C375.026 289.523 375.711 287.956 376.882 286.786C378.118 285.551 379.793 284.858 381.54 284.858L374.959 291.17Z" fill="#2F2E41" stroke="black"/>
<path d="M378.688 265.596L372.416 285.394L367.931 283.974L371.759 263.403L378.688 265.596Z" fill="#FFB6B6" stroke="black"/>
<path d="M355.737 285.854C356.3 284.304 357.425 283.018 358.896 282.255C360.444 281.451 362.248 281.295 363.911 281.819L363.918 281.821M355.737 285.854L364.06 281.372L363.918 281.821M355.737 285.854L372.137 291.043L374.044 285.025M355.737 285.854L374.044 285.025M363.918 281.821L363.919 281.821L374.044 285.025M363.918 281.821L374.044 285.025" fill="#2F2E41" stroke="black"/>
<path d="M366.054 179.817C366.054 179.817 357.676 192.964 360.636 204.698C363.597 216.433 366.821 238.987 366.821 238.987L382.873 277.166L394.839 276.679L382.956 231.664L383.426 201.567C383.426 201.567 391.685 187.183 390.077 182.705C388.469 178.227 366.054 179.817 366.054 179.817Z" fill="#2F2E41"/>
<path d="M384.08 229.55L384.078 229.558L384.077 229.566L378.675 271.016L368.322 267.649L377.911 220.979L377.911 220.978L385.429 184.357L392.956 184.98C392.959 185.023 392.961 185.069 392.964 185.119C392.986 185.482 393.013 186.009 393.036 186.659C393.082 187.96 393.11 189.75 393.038 191.711C392.966 193.673 392.794 195.796 392.443 197.765C392.09 199.741 391.563 201.525 390.8 202.832C389.959 204.273 389.126 206.678 388.35 209.426C387.571 212.189 386.836 215.347 386.204 218.325C385.572 221.304 385.041 224.11 384.668 226.171C384.482 227.201 384.335 228.045 384.234 228.632C384.184 228.926 384.145 229.155 384.119 229.311L384.09 229.489L384.082 229.535L384.08 229.546L384.08 229.549L384.08 229.55C384.08 229.55 384.08 229.55 384.573 229.631L384.08 229.55Z" fill="#2F2E41" stroke="black"/>
<path d="M370.651 119.949L370.719 119.914L370.774 119.861L375.315 115.411L388.432 115.792L397.066 121.722C397.068 121.727 397.071 121.732 397.073 121.737C397.115 121.818 397.177 121.938 397.255 122.095C397.412 122.41 397.633 122.871 397.893 123.453C398.412 124.619 399.081 126.269 399.678 128.202C400.878 132.083 401.768 137.041 400.65 141.512L400.642 141.543L400.638 141.574L395.122 187.67C392.39 188.773 389.079 189.037 385.599 188.783C382.012 188.52 378.285 187.71 374.902 186.741C371.522 185.773 368.497 184.65 366.317 183.769C365.228 183.329 364.35 182.949 363.746 182.68C363.474 182.559 363.258 182.46 363.102 182.389L363.759 123.466L370.651 119.949Z" fill="#3F3D56" stroke="black"/>
<path d="M373.007 131.545C372.767 133.483 371.827 135.266 370.364 136.56C368.9 137.854 367.014 138.569 365.06 138.571H341.726L326.642 112.624L335.788 109.004L344.12 123.817L344.279 124.099L344.601 124.07L356.961 122.952L364.674 122.579C365.839 122.523 367.002 122.721 368.082 123.161C369.162 123.601 370.133 124.272 370.927 125.126C371.721 125.98 372.318 126.997 372.677 128.106C373.037 129.215 373.149 130.388 373.007 131.545Z" fill="#3F3D56" stroke="black"/>
<path d="M394.14 98.3236C394.14 104.497 389.132 109.502 382.955 109.502C376.777 109.502 371.77 104.497 371.77 98.3236C371.77 92.1505 376.777 87.1458 382.955 87.1458C389.132 87.1458 394.14 92.1506 394.14 98.3236Z" fill="#FFB6B6" stroke="black"/>
<path d="M391.994 90.0549L392.076 90.2933L392.317 90.369C394.569 91.077 396.202 93.3248 396.539 95.7361C396.876 98.1454 396.064 100.65 394.666 102.726L395.049 102.983L394.666 102.726C393.05 105.123 390.759 107.505 388.081 108.166C386.826 108.476 385.408 108.775 384.029 108.812C382.649 108.849 381.356 108.621 380.315 107.924C378.88 106.963 378.302 105.534 378.327 103.778C378.339 103.019 378.402 102.281 378.466 101.546C378.481 101.365 378.497 101.183 378.512 101.002C378.585 100.1 378.638 99.2001 378.549 98.3436C378.459 97.4796 378.222 96.6432 377.707 95.8716C377.192 95.1001 376.421 94.4262 375.311 93.8514L375.305 93.8479L375.298 93.8446C374.195 93.3149 373.151 92.6711 372.182 91.9236C372.108 91.8634 372.033 91.8044 371.957 91.7449C371.791 91.6148 371.621 91.4823 371.46 91.3286C371.348 91.2215 371.262 91.1243 371.207 91.0392C371.156 90.9615 371.145 90.9174 371.143 90.9023C371.144 90.9009 371.15 90.8549 371.197 90.7493C371.247 90.6376 371.323 90.5048 371.414 90.36C371.505 90.2169 371.604 90.0735 371.697 89.9397C371.711 89.92 371.725 89.9002 371.739 89.8804C371.814 89.7725 371.889 89.6661 371.942 89.5831L371.942 89.5831L371.943 89.5815C373.373 87.3151 375.516 85.5872 378.035 84.669C380.554 83.7508 383.307 83.6943 385.861 84.5083L385.861 84.5084C388.623 85.3872 391.076 87.3907 391.994 90.0549Z" fill="#2F2E41" stroke="black"/>
<path d="M397.115 136.583L401.662 186.426L387.054 185.643L397.115 136.583Z" fill="#3F3D56"/>
<path d="M447.452 293H268.609C268.464 293 268.325 292.942 268.223 292.839C268.12 292.736 268.063 292.597 268.062 292.452C268.063 292.307 268.12 292.168 268.223 292.065C268.325 291.962 268.464 291.904 268.609 291.904H447.452C447.597 291.904 447.737 291.962 447.84 292.064C447.942 292.167 448 292.307 448 292.452C448 292.597 447.942 292.737 447.84 292.839C447.737 292.942 447.597 293 447.452 293V293Z" fill="black"/>
<path d="M38.7304 287.536H43.1101L45.1938 270.652H38.7295L38.7304 287.536Z" fill="#9E616A"/>
<path d="M37.6133 286.107L46.2388 286.106H46.2392C47.697 286.106 49.0951 286.685 50.126 287.715C51.1568 288.745 51.736 290.143 51.7361 291.6V291.778L37.6135 291.779L37.6133 286.107Z" fill="#2F2E41"/>
<path d="M79.0996 287.536H83.4793L85.5629 270.652H79.0986L79.0996 287.536Z" fill="#9E616A"/>
<path d="M77.9824 286.107L86.608 286.106H86.6083C88.0662 286.106 89.4643 286.685 90.4951 287.715C91.5259 288.745 92.1051 290.143 92.1052 291.6V291.778L77.9827 291.779L77.9824 286.107Z" fill="#2F2E41"/>
<path d="M73.8117 151.898L76.6696 170.107L49.5186 170.464L53.0909 152.969L73.8117 151.898Z" fill="#F4E1C4"/>
<path d="M60.2836 207.312L44.2921 281.538H38.0815L43.0515 198.164L43.0536 198.127L43.0504 198.091L43.0504 198.091L43.0504 198.09L43.0503 198.089L43.0496 198.08L43.0468 198.046C43.0443 198.015 43.0407 197.969 43.0364 197.907C43.0276 197.784 43.0156 197.602 43.003 197.365C42.9777 196.891 42.9499 196.201 42.9398 195.342C42.9196 193.622 42.9708 191.227 43.2557 188.524C43.8272 183.103 45.3326 176.519 49.0238 171.659L49.0721 171.596L49.0981 171.52L50.8208 166.546L75.5379 166.166L84.0308 188.766L85.0959 283.538H78.6764L61.2598 207.306L60.2836 207.312Z" fill="#2F2E41" stroke="black"/>
<path d="M38.6571 183.117L38.6539 183.118C37.5012 183.44 36.2704 183.328 35.1947 182.804C34.119 182.28 33.2732 181.379 32.8175 180.273C32.3618 179.168 32.3278 177.933 32.722 176.804C33.1162 175.675 33.9112 174.729 34.9564 174.147L35.1368 174.046L35.1937 173.848L45.6312 137.4L53.1326 138.886L41.7445 175.991L41.6875 176.177L41.7707 176.352C42.075 176.994 42.2348 177.694 42.2388 178.404C42.2429 179.114 42.0912 179.816 41.7944 180.461C41.4976 181.106 41.0628 181.678 40.5208 182.137C39.9787 182.596 39.3426 182.931 38.6571 183.117Z" fill="#F4E1C5" stroke="black"/>
<path d="M71.1115 125.369L71.1097 125.367C68.7056 123.51 65.7802 122.451 62.7436 122.339C59.707 122.227 56.7114 123.067 54.1768 124.743C51.6422 126.418 49.6958 128.843 48.6102 131.68C47.5246 134.516 47.3543 137.62 48.123 140.558C50.4785 149.497 51.8209 155.934 52.0933 159.661C52.125 160.083 52.2941 160.483 52.5748 160.801C52.8555 161.118 53.2324 161.335 53.648 161.418C53.7715 161.442 53.897 161.455 54.0228 161.455L71.1115 125.369ZM71.1115 125.369C72.6501 126.546 73.9342 128.023 74.8865 129.71C75.8389 131.397 76.4397 133.259 76.6529 135.184L76.653 135.186M71.1115 125.369L76.653 135.186M76.653 135.186C77.8136 145.4 75.6241 155.676 74.6253 159.628C74.5203 160.04 74.2831 160.407 73.95 160.671C73.6169 160.936 73.2063 161.084 72.781 161.093L72.78 161.093L54.0649 161.454L54.0634 161.454M76.653 135.186L54.0634 161.454M54.0634 161.454C54.0499 161.455 54.0365 161.455 54.0229 161.455L54.0634 161.454Z" fill="#3F3D56" stroke="black"/>
<path d="M106.518 129.805C106.583 129.564 106.666 129.329 106.768 129.101C107.165 128.227 107.82 127.494 108.644 127C109.469 126.505 110.425 126.274 111.385 126.336C112.345 126.397 113.264 126.75 114.018 127.346C114.773 127.942 115.328 128.754 115.61 129.673C115.891 130.592 115.886 131.575 115.595 132.492C115.305 133.408 114.741 134.214 113.981 134.803C113.22 135.391 112.298 135.734 111.338 135.787C110.377 135.839 109.423 135.598 108.603 135.095L108.364 134.948L108.114 135.076L83.0459 147.873C82.373 148.216 81.6068 148.333 80.8623 148.204C80.1178 148.075 79.4352 147.708 78.917 147.159L71.9383 139.76L78.0825 134.344L82.2789 138.008L82.4959 138.197L82.7686 138.105L106.196 130.149L106.449 130.063L106.518 129.805Z" fill="#F4E1C5" stroke="black"/>
<path d="M81.4632 137.69L72.923 145.144C72.7341 145.309 72.5119 145.431 72.2714 145.503C72.031 145.574 71.778 145.593 71.5296 145.557C71.2813 145.522 71.0435 145.434 70.8324 145.299C70.6213 145.163 70.4419 144.984 70.3064 144.773C70.3064 144.773 70.3064 144.773 70.3064 144.773L64.1978 135.267L64.1786 135.237L64.1553 135.21C63.162 134.062 62.665 132.567 62.7734 131.053C62.8819 129.539 63.5868 128.129 64.7338 127.134C65.8807 126.139 67.3759 125.639 68.8913 125.744C70.4067 125.849 71.8184 126.551 72.8166 127.695L72.841 127.723L72.8693 127.747L81.4472 135.049C81.4473 135.049 81.4473 135.049 81.4473 135.049C81.6381 135.212 81.7916 135.414 81.8974 135.641C82.0031 135.868 82.0587 136.115 82.0602 136.366C82.0617 136.616 82.0092 136.864 81.9062 137.093C81.8039 137.319 81.6543 137.522 81.4673 137.686L81.4632 137.69Z" fill="#3F3D56" stroke="black"/>
<path d="M46.808 131.242L46.8257 131.212L46.8389 131.179C47.4019 129.769 48.5011 128.641 49.8957 128.04C51.2903 127.44 52.8662 127.417 54.278 127.976C55.6897 128.535 56.8218 129.63 57.4263 131.022C58.0307 132.414 58.0582 133.989 57.5026 135.401L57.489 135.435L57.4807 135.471L54.9446 146.444C54.8881 146.688 54.7796 146.917 54.6265 147.115C54.4734 147.314 54.2793 147.477 54.0574 147.594C53.8354 147.711 53.5909 147.778 53.3405 147.792C53.09 147.806 52.8396 147.765 52.6061 147.674L42.0522 143.53C41.8188 143.438 41.6079 143.298 41.4339 143.117C41.2598 142.937 41.1268 142.721 41.0438 142.485C40.9607 142.248 40.9297 141.997 40.9527 141.747C40.9757 141.498 41.0522 141.256 41.1771 141.039L46.808 131.242Z" fill="#3F3D56" stroke="black"/>
<path d="M71.2277 108.047C71.2277 114.107 66.312 119.02 60.2476 119.02C54.1832 119.02 49.2676 114.107 49.2676 108.047C49.2676 101.987 54.1832 97.0736 60.2476 97.0736C66.312 97.0736 71.2277 101.987 71.2277 108.047Z" fill="#F4E1C4" stroke="black"/>
<path d="M179.391 293H0.548775C0.403603 293 0.264519 292.942 0.162015 292.839C0.0595112 292.736 0.00195312 292.597 0.00195312 292.452C0.00195312 292.307 0.0595112 292.168 0.162015 292.065C0.264519 291.962 0.403603 291.904 0.548775 291.904H179.391C179.536 291.904 179.676 291.962 179.778 292.065C179.881 292.168 179.938 292.307 179.938 292.452C179.938 292.597 179.881 292.736 179.778 292.839C179.676 292.942 179.536 293 179.391 293V293Z" fill="black"/>
<path d="M69.7 95.9557L69.7092 95.962L69.7186 95.9678C71.112 96.835 72.383 97.8845 73.498 99.0884C74.4258 100.19 75.0568 101.545 75.0586 102.896L68.2142 102.934L67.598 102.754L67.2225 102.645L67.0257 102.983C65.7761 105.13 65.2082 107.606 65.3973 110.083C65.5863 112.56 66.5233 114.921 68.0843 116.854L68.0842 116.854L68.0903 116.861C68.1554 116.939 68.2199 117.014 68.2833 117.089C68.5434 117.394 68.7855 117.678 68.9783 117.982C69.2068 118.342 69.3253 118.671 69.3077 119.002C69.2514 119.33 69.1021 119.635 68.8773 119.88C68.7761 119.991 68.7 120.101 68.6404 120.194C68.6124 120.237 68.5913 120.271 68.573 120.3C68.5463 120.343 68.5258 120.375 68.4986 120.414C68.4338 120.507 68.4043 120.524 68.3515 120.537L68.1859 120.578L68.0804 120.713C67.9165 120.921 67.5388 121.162 67.049 121.333C66.5652 121.502 66.0828 121.564 65.7653 121.509L65.7183 121.501L65.6705 121.502L41.8076 121.979L46.1754 103.466C46.9138 100.709 47.7527 97.9548 49.8621 96.3983L49.8621 96.3983C51.425 95.2449 53.4599 94.9279 55.5522 94.6371L61.2105 93.8508C62.6471 93.6512 64.0173 93.4707 65.328 93.7349C66.8914 94.0501 68.2728 94.9769 69.7 95.9557Z" fill="#2F2E41" stroke="black"/>
</svg>
