<svg width="800" height="800" viewBox="0 0 800 800" fill="none" xmlns="http://www.w3.org/2000/svg">
<path d="M595 625L557.5 585C505 525 475 445 475 365C475 317.5 500 272.5 540 245C550 240 552.5 227.5 550 217.5C545 207.5 535 200 525 200H275C265 200 255 207.5 250 217.5C247.5 227.5 250 240 260 245C300 272.5 325 317.5 325 365C325 445 295 522.5 242.5 585L205 625C185 647.5 180 677.5 192.5 705C205 732.5 230 750 260 750H537.5C567.5 750 592.5 732.5 605 705C620 677.5 615 647.5 595 625ZM337.5 250H462.5C437.5 282.5 425 322.5 425 365C425 450 455 532.5 507.5 600H295C347.5 532.5 377.5 450 377.5 365C375 322.5 362.5 282.5 337.5 250Z" fill="#282828"/>
<path d="M475 75C490 75 500 65 500 50V25C500 10 490 0 475 0C460 0 450 10 450 25V50C450 65 460 75 475 75Z" fill="#282828"/>
<path d="M325 100C340 100 350 90 350 75V50C350 35 340 25 325 25C310 25 300 35 300 50V75C300 90 310 100 325 100Z" fill="#282828"/>
<path d="M400 175C415 175 425 165 425 150V125C425 110 415 100 400 100C385 100 375 110 375 125V150C375 165 385 175 400 175Z" fill="#282828"/>
</svg>
